/* XPM */
static char *result[] = {
/* columns rows colors chars-per-pixel */
"64 52 195 2 ",
"   c #2D2D2D",
".  c #302E2E",
"X  c #32302E",
"o  c #2F3131",
"O  c #323231",
"+  c #323837",
"@  c #373837",
"#  c #343A3B",
"$  c #533D2E",
"%  c #6A452C",
"&  c #775130",
"*  c #78573A",
"=  c #363E43",
"-  c #354344",
";  c #384045",
":  c #394B4B",
">  c #3C5555",
",  c #3E595C",
"<  c #37635D",
"1  c #38635D",
"2  c #396A63",
"3  c #387066",
"4  c #3A736B",
"5  c #3F7D77",
"6  c #444444",
"7  c #474B4A",
"8  c #4C4C4B",
"9  c #514F4F",
"0  c #4F4F51",
"q  c #4E5253",
"w  c #4C5B59",
"e  c #515050",
"r  c #525252",
"t  c #585654",
"y  c #555B5C",
"u  c #5A5A5A",
"i  c #675142",
"p  c #695242",
"a  c #715944",
"s  c #6D5F54",
"d  c #44635F",
"f  c #50605D",
"g  c #796C52",
"h  c #435A68",
"j  c #595E62",
"k  c #4A6568",
"l  c #436B6C",
"z  c #526464",
"x  c #586769",
"c  c #526B6B",
"v  c #50766C",
"b  c #476373",
"n  c #576A75",
"m  c #467474",
"M  c #477B79",
"N  c #527373",
"B  c #5B7179",
"V  c #527A7B",
"C  c #646464",
"Z  c #656B66",
"A  c #6B6B6B",
"S  c #6A7A6A",
"D  c #6C7A7B",
"F  c #757575",
"G  c #767B7B",
"H  c #7A7A7A",
"J  c #894F26",
"K  c #8C5426",
"L  c #8C5229",
"P  c #925925",
"I  c #9E5C25",
"U  c #945728",
"Y  c #845A36",
"T  c #A35E25",
"R  c #9E6729",
"E  c #8B633A",
"W  c #926537",
"Q  c #996331",
"!  c #A56529",
"~  c #AB6A29",
"^  c #B36C26",
"/  c #BE6B21",
"(  c #A7722B",
")  c #B87429",
"_  c #A57537",
"`  c #C16C1F",
"'  c #C16C21",
"]  c #CC7E25",
"[  c #95714D",
"{  c #877A54",
"}  c #827D60",
"|  c #678173",
" . c #758E78",
".. c #CE8126",
"X. c #D68D29",
"o. c #D98E28",
"O. c #98834C",
"+. c #A28C56",
"@. c #AB9255",
"#. c #B49958",
"$. c #898465",
"%. c #949369",
"&. c #9A936C",
"*. c #939179",
"=. c #AB976F",
"-. c #8CA57E",
";. c #B2A770",
":. c #BEB275",
">. c #CEAD5A",
",. c #D1AF5A",
"<. c #D3B15B",
"1. c #C19976",
"2. c #CEB569",
"3. c #C2B573",
"4. c #DEC36D",
"5. c #D8C678",
"6. c #E1C670",
"7. c #EAD37B",
"8. c #4C7686",
"9. c #577989",
"0. c #4B8383",
"q. c #468885",
"w. c #4C8C8C",
"e. c #528585",
"r. c #5A818D",
"t. c #528A89",
"y. c #53918C",
"u. c #4D8D93",
"i. c #5C879A",
"p. c #4E9593",
"a. c #529797",
"s. c #529897",
"d. c #529C9C",
"f. c #608599",
"g. c #708A90",
"h. c #5B8FAF",
"j. c #5796A3",
"k. c #549EA3",
"l. c #5C90B0",
"z. c #569BB0",
"x. c #648FA8",
"c. c #6492AD",
"v. c #6198B8",
"b. c #54A0A2",
"n. c #58A3AB",
"m. c #5BA6B3",
"M. c #5CA8B6",
"N. c #5DAABC",
"B. c #61A4BA",
"V. c #639EC1",
"C. c #5FADC0",
"Z. c #61AEC4",
"A. c #67A6CB",
"S. c #61B0C6",
"D. c #63B2CC",
"F. c #67AAD2",
"G. c #69AED7",
"H. c #67B5D4",
"J. c #6AB1DB",
"K. c #69B9DC",
"L. c #6CBCE3",
"P. c #6EBDE7",
"I. c #70BDEC",
"U. c #73C5F7",
"Y. c #74C6F9",
"T. c #74C8FB",
"R. c #858585",
"E. c #8C8C8C",
"W. c #839388",
"Q. c #929292",
"!. c #9C9C9C",
"~. c #8598A4",
"^. c #9CA0A2",
"/. c #A4A4A4",
"(. c #ACADAD",
"). c #AFB1B1",
"_. c #B4B4B4",
"`. c #BCBDBD",
"'. c #CAAF9C",
"]. c #CBB19F",
"[. c #D4BEAE",
"{. c #F6E58C",
"}. c #F8E78D",
"|. c #FAE98E",
" X c #D6C5B8",
".X c #A6C9CC",
"XX c #C2C2C2",
"oX c #CBCBCB",
"OX c #C9DBD9",
"+X c #DCDCDC",
"@X c #CAE1E1",
"#X c #E4E4E4",
"$X c #EAEAEA",
"%X c #F3F3F3",
"&X c #FFFFFF",
/* pixels */
"&X&X&X&X&X&X&X&X%Xt   O O O o O O O O O O _.&X&X&X&X&X&X&X&X&X&X&X&X&X&X&X&X&X&X&X&X&X&X&X&X&X&XoX@ o O O O o O . t %X&X&X&X&X&X",
"&X&X&X&X&X&X&X&X%Xu   X O X X X O O . o O _.&X&X&X&X&X&X&X&X&X&X&X&X&X&X&X&X&X&X&X&X&X&X&X&X&X&XoXO . . O O O . o r %X&X&X&X&X&X",
"&X&X&X&X&X&X$X$X+Xy # # = = - - = = = = = (.$X$X#X$X#X%X&X&X&X&X&X&X&X&X&X&X&X&X&X&X&X&X&X&X#X$X`.; ; ; = = ; = = j +X$X$X&X&X&X",
"&X&X&X&X&X%XA 8 q 8.w.p.A.J.J.J.J.J.J.J.J.9.8 8 9 9 8 ).&X&X&X&X&X&X&X&X&X&X&X&X&X&X&X&X&XXX8 8 n G.J.J.J.J.J.J.J.V.r 0 C $X&X&X",
"&X&X&X&X&X%Xr   + 0.d.k.L.Y.Y.Y.T.Y.Y.Y.U.b   . . .   /.&X&X&X&X&X&X&X&X&X&X&X&X&X&X&X&X&X`.o   h U.Y.Y.Y.Y.U.Y.T.F.#   7 $X&X&X",
"&X&X&X%X%X#Xy + ; u.b.b.L.U.U.U.U.U.Y.Y.U.8.+ # = O + ^.%X%X%X%X%X%X&X&X&X&X&X&X&X&X&X%X%X_.# + b I.U.U.U.Y.U.U.U.F.; O 0 +X%X%X",
"&X&X$XA t j v.F.F.K.L.L.U.U.U.Y.U.U.U.U.U.J.F.A.j.0.0.c u u u u t /.&X&X&X&X&X&X&X&XXXu t 9.A.F.J.U.U.U.U.U.P.m.n.n.w.q.8.y t u ",
"&X&X$X8   # F.T.Y.Y.U.U.U.U.U.U.U.U.U.U.U.U.Y.Y.C.d.k.,           Q.&X&X&X&X&X&X&X&X_.o . h Y.Y.U.U.U.U.Y.Y.L.k.d.s.d.d.p.#     ",
"&X&X$X0 . # F.Y.Y.U.Y.U.U.Y.U.U.U.U.U.U.U.U.U.U.C.d.d.k O O @ X X E.%X%X%X%X%X&X&X&X_.X . b U.U.U.U.Y.U.U.U.L.d.s.s.s.d.w.# O O ",
"&X&X#X8 . = F.Y.U.U.U.U.U.U.U.U.U.U.U.Y.U.Y.U.Y.U.L.L.9.8 8 & I I Y u x j u u !.&X&X_.X . b U.U.Y.U.U.P.n.m.j.c z c 5 M 4 + O O ",
"&X&X#X8 . = F.Y.U.U.U.U.U.U.Y.U.U.U.U.U.U.Y.U.U.U.U.T.f.e r E ` ` & . .       H &X&X_.O . b U.U.U.U.T.K.d.d.t.q 9 q 3 4 2 + O O ",
"%X&X#X0 . = F.Y.Y.U.Y.U.Y.U.U.U.U.U.U.U.U.U.U.U.U.U.T.i.r r E / ` & X @ X .   F %X&X_.O X b U.U.U.U.Y.K.d.d.t.y r w 4 4 2 + . O ",
"A A F l.V.V.I.U.U.U.U.U.U.Y.U.Z.M.M.K.U.Y.U.U.Y.U.U.U.M.e.t.Z a * E ( ( R P P [ A A B M M k.U.U.P.B.M.k.c c c e.t.w.w.w.0.# O o ",
"O   = L.T.Y.U.U.U.Y.U.U.U.U.U.M.d.d.K.Y.U.U.U.U.U.U.Y.Z.d.d.v r q W o.X.../ / K o X w d.s.N.U.Y.K.d.d.t.r r f s.d.d.d.d.w.# O O ",
"o o = J.Y.U.U.U.U.U.U.U.U.Y.U.m.k.d.K.Y.U.U.U.U.U.U.Y.Z.d.d.N r q W o.X.] / / K O X > d.s.B.U.U.K.d.d.t.q r y a.d.d.d.d.w.= O @ ",
"o o = J.Y.U.Y.U.U.Y.U.U.z.u.u..X@XOXg.h b V.Y.Y.U.U.U.Z.s.d.N r r a ( ! ) ....) P P a c c e.M.N.m.d.d.t.r r f a.d.p.> > z ).`.`.",
"O O = J.T.T.T.Y.U.U.U.U.q.2 4 OX&X&XF     h.T.U.Y.U.Y.Z.d.d.N r 0 i L L ~ X.X.] / ' Q e 8 c d.a.d.d.d.t.y r j a.d.w.@   8 %X&X&X",
"O O = J.T.I.T.I.U.U.U.U.q.3 4 OX&X&XF   O l.T.U.U.U.U.Z.d.d.N r r * L L ~ X.X.] / / Q r e c d.d.d.d.d.t.r r z p.d.q.@ o 8 #X&X&X",
"O . = J.T.Y.T.Y.U.U.U.U.z.w.w.| H F 8 . O l.T.U.H.N.B.n.d.d.v r 0 R. X X1.! ! ) ] .._ r r c a.d.d.d.d.t.r r q > > c )._.XX%X&X&X",
"o O = L.I.T.T.I.U.U.U.U.m.d.d.:       O O l.T.U.N.s.d.d.d.d.N r 9 /.&X&X].L L ! X.o._ r e c d.d.d.d.d.t.r r 8 o . r %X&X&X&X&X&X",
". . = J.T.I.Y.Y.U.U.Y.U.m.s.a.: . o O o O l.T.Y.B.d.d.d.d.s.N 9 9 /.&X&X].L L ! X.X._ r 9 c d.k.d.d.d.w.w r 8 o   t %X&X&X&X&X&X",
"/./.^.9.9.9.P.Y.U.Y.U.U.K.H.D., . O $ % % r.S.S.n.d.d.e.N B 9.Q.E.XX&X&X].J L ! X.o.] E Q g c N V d.d.q.6 = r !./._.%X&X&X&X&X&X",
"&X&X$X8   + F.I.Y.U.Y.U.Y.Y.I.h . O % U K | d.d.d.d.d.v t 9 E.XX`.+X&X&X].L L ~ X.X.] / ' Q e e z d.d.| O . u %X&X&X&X&X&X&X&X&X",
"&X&X#X7   = G.T.Y.U.U.Y.U.Y.U.h . o % L L | d.d.d.d.d.N 9 9 E.XX`.+X&X&X].J J ! X.X.] / ' I t r x s.d.0.O . u %X&X&X&X&X&X&X&X&X",
"&X&X%X(.!.!.9.8.9.i.x.9.M.Z.Z.8.l l Z S S y.b.d.| N N V V V | R.R.(.+X+X X'.'.=.~ ~ ^ / / Q r e c d.d.0.+   u %X&X&X&X&X&X&X&X&X",
"&X&X&X&X&X%Xt   o 8 r r t.d.d.d.d.d.d.d.d.d.d.d.N 0 8 V d.d.V e 8 R.`.`.+X&X&X[.L L I / ' Q r r z d.d.8.O   t %X&X&X&X&X&X&X&X&X",
"&X&X&X&X&X$Xr . O 0 r r t.d.d.k.d.d.d.d.d.d.d.s.c e 0 V d.d.N e 9 R.XX`.+X&X&X[.L L T ' ' Q r r c s.k.0.O   t %X&X&X&X&X&X&X&X&X",
"&X&X&X&X&X%Xu . O k N V V V V V V V V V V  .-.-.*.&.&. .V V r.f.f.g.E.E.`.&X&X[.L L U T T Y r r w l 2 N E.E./.%X&X&X&X&X&X&X&X&X",
"&X&X&X&X&X%Xt . # t.d.d.z e r e r r r r 9 +.,.,.7.|.|.&.r e c.T.T.c.e r !.&X&X[.L L L L L & r r 7 .   C &X&X&X&X&X&X&X&X&X&X&X&X",
"&X&X&X&X&X$Xr   + 0.k.d.x e r e q r 0 0 e +.,.>.7.|.|.&.8 e x.T.Y.x.e e !.&X&X[.L L L L L * r r 7 .   C %X&X&X&X&X&X&X&X&X&X&X&X",
"&X&X&X&X&X%X!.R.R.N l l 7 6 6 } &.&.%.&.&.3.6.6.3.;.;.W.f.f.A.Y.U.A.f.9.~._._.Q.L L U T T Y 6 6 t E.R./.%X&X&X&X&X&X&X&X&X&X&X&X",
"&X&X&X&X&X&X&X&X%Xy   o O o @ 3.|.}.}.}.{.}.{.{.$.e q c.T.Y.U.U.Y.Y.Y.T.c.e e & L J I / ` K o   A %X&X&X&X&X&X&X&X&X&X&X&X&X&X&X",
"&X&X&X&X&X&X&X&X%Xr       . X 3.|.|.}.|.{.{.{.{.$.e r c.T.U.U.Y.Y.Y.Y.Y.c.r r p L L I / / L O   A %X&X&X&X&X&X&X&X&X&X&X&X&X&X&X",
"&X&X&X&X&X&X&X&X%XQ.F F H H  .&.;.;.5.7.7.7.7.7.$.9 r c.T.U.U.U.Y.P.H.K.i.r r p L L I / ' L O   Z &X&X&X&X&X&X&X&X&X&X&X&X&X&X&X",
"&X&X&X&X&X&X&X&X&X&X&X&X&X&X&XC X X O.,.>.>.>.>.{ e r c.T.U.U.U.Y.D.d.k.V r r i L L I ' ' P o   A %X&X&X&X&X&X&X&X&X&X&X&X&X&X&X",
"&X&X&X&X&X&X&X&X&X&X&X&X&X&X&XZ   X O.,.>.>.>.>.g 0 e c.Y.T.Y.T.Y.D.d.d.8.r r i L J I ' ' P     C &X&X&X&X&X&X&X&X&X&X&X&X&X&X&X",
"&X&X&X&X&X&X&X&X&X&X&X&XoX`.`.z - : g @.@.2.4.4.=.$.$.g.V.A.A.K.K.m.e.e.c r q s [ [ [ U K [ F A !.&X&X&X&X&X&X&X&X&X&X&X&X&X&X&X",
"&X&X&X&X&X&X&X&X&X&X&X%XZ X @ , 3 3 d t r :.{.{.{.{.{.&.q q V d.d.V r r t r e H `.`.Q.O   H %X&X&X%X&X&X&X&X&X&X&X&X&X&X&X&X&X&X",
"&X&X&X&X&X&X&X&X&X&X&X&XC   O 1 4 3 f 9 r :.|.|.|.|.}.&.q q V d.d.V r r e 9 e H `.XXE.X   F &X&X&X&X&X&X&X&X&X&X&X&X&X&X&X&X&X&X",
"&X&X&X&X&X&X&X&X&X&X&X%XC   O < 4 3 d f f %.:.:.5.7.7.=.g g S t.t.c e e y c c D !./.F     F %X&X&X&X&X&X&X&X&X&X&X&X&X&X&X&X&X&X",
"&X&X&X&X&X&X&X&X&X&X&X%XA   O < 4 4 4 4 3 : o + O.<.<.>.>.>.{ r r r r r v d.d.8.t t 7 X   F &X&X&X&X&X&X&X&X&X&X&X&X&X&X&X&X&X&X",
"&X&X&X&X&X&X&X&X&X&X&X%XC     , 4 4 4 4 4 :     [ ,.<.,.>.>.{ 9 r r r 9 m d.d.0.r r 7     H &X&X&X&X&X&X&X&X&X&X&X&X&X&X&X&X&X&X",
"&X&X&X&X&X&X&X&X&X&X&X%XR.u x d < < < < < f u u $.#.@.@.#.#.$.n B x z f 8.d.b.| 8 8 e u u Q.&X&X&X&X&X&X&X&X&X&X&X&X&X&X&X&X&X&X",
"&X&X&X&X&X&X&X&X&X&X&X&X%X%X%XC + + + o + (.&X%X} X X 7 t r x.U.I.Z.s.a.d.d.d.m O X F %X%X%X&X&X&X&X&X&X&X&X&X&X&X&X&X&X&X&X&X&X",
"&X&X&X&X&X&X&X&X&X&X&X&X&X&X&XZ         X ).&X&XG     6 r r x.U.T.H.d.d.d.d.d.m O   H &X&X&X&X&X&X&X&X&X&X&X&X&X&X&X&X&X&X&X&X&X",
"&X&X&X&X&X&X&X&X&X&X&X&X&X&X%XR.t t u y t  X&X&XQ.u u r 8 8 i.U.P.B.p.p.s.d.d.m O   H &X&X&X&X&X&X&X&X&X&X&X&X&X&X&X&X&X&X&X&X&X",
"&X&X&X&X&X&X&X&X&X&X&X&X&X&X&X%X%X%X%X%X%X%X&X&X%X%X%XR.. O l b.b.q.4 4 q.d.d.m O   G &X&X&X&X&X&X&X&X&X&X&X&X&X&X&X&X&X&X&X&X&X",
"&X&X&X&X&X&X&X&X&X&X&X&X&X&X&X&X&X&X&X&X&X&X&X&X&X&X&XE.  . 3 d.d.w.4 4 q.d.d.m     F &X&X&X&X&X&X&X&X&X&X&X&X&X&X&X&X&X&X&X&X&X",
"&X&X&X&X&X&X&X&X&X&X&X&X&X&X&X&X&X&X&X&X&X&X&X&X&X&X&X!.8 8 c u.p.M 2 2 M w.w.V 8 8 R.&X&X&X&X&X&X&X&X&X&X&X&X&X&X&X&X&X&X&X&X&X",
"&X&X&X&X&X&X&X&X&X&X&X&X&X&X&X&X&X&X&X&X&X&X&X&X&X&X&X%X$X$XE.+ + + + + # # + G $X$X%X&X&X&X&X&X&X&X&X&X&X&X&X&X&X&X&X&X&X&X&X&X",
"&X&X&X&X&X&X&X&X&X&X&X&X&X&X&X&X&X&X&X&X&X&X&X&X&X&X&X&X&X&XQ.  O O O   o o   H &X&X&X&X&X&X&X&X&X&X&X&X&X&X&X&X&X&X&X&X&X&X&X&X",
"&X&X&X&X&X&X&X&X&X&X&X&X&X&X&X&X&X&X&X&X&X&X&X&X&X&X&X&X&X&XQ.  O O O O O O   H &X&X&X&X&X&X&X&X&X&X&X&X&X&X&X&X&X&X&X&X&X&X&X&X"
};
