/* XPM */
static char *result[] = {
/* columns rows colors chars-per-pixel */
"50 50 58 1 ",
"  c #881417",
". c #D31D24",
"X c #D41D24",
"o c #D51E24",
"O c #D71E24",
"+ c #D81E23",
"@ c #D81E25",
"# c #D91E25",
"$ c #DA1E25",
"% c #DB1E25",
"& c #DB1F25",
"* c #DC1F25",
"= c #DD1E26",
"- c #DC1F26",
"; c #DD1F26",
": c #DE1F26",
"> c #DE3036",
", c #DD3339",
"< c #DE3339",
"1 c #DE373D",
"2 c #DE7841",
"3 c #DF7F43",
"4 c #CA8642",
"5 c #CE8943",
"6 c #CF8943",
"7 c #DE8043",
"8 c #DE8143",
"9 c #DE8544",
"0 c #D18A44",
"q c #D48D46",
"w c #D58D46",
"e c #D68E46",
"r c #DF8946",
"t c #DE8A46",
"y c #D88F47",
"u c #DF8C47",
"i c #DE8D47",
"p c #D89047",
"a c #D99047",
"s c #DE9048",
"d c #DF9048",
"f c #DC9248",
"g c #DD9348",
"h c #DE9349",
"j c #DE9449",
"k c #DF9449",
"l c #DE9B9E",
"z c #DEAEB0",
"x c #DEB1B3",
"c c #DEB7B9",
"v c #DFC2C3",
"b c #DFC3C4",
"n c #DFDBDC",
"m c #DFDCDC",
"M c #DFDFDF",
"N c #DEE0E0",
"B c #DFE0E0",
"V c None",
/* pixels */
"VVVVVVVVVVVVVVVVVVVVVVVVVVVVVVVVVVVVVVVVVVVVVVVVVV",
"VVVVVVVVVVVVVVVVVVVVVVVVVVVVVVVVVVVVVVVVVVVVVVVVVV",
"VVVVVVVVVVVVVVVVVVVVVVVVVVVVVVVVVVVVVVVVVVVVVVVVVV",
"VVVVVVVVVVVVVVVVVVVVVVVVVVVVVVVVVVVVVVVVVVVVVVVVVV",
"VVVVVVVVVVVVVVVVVVVVVVVVVVVVVVVVVVVVVVVVVVVVVVVVVV",
"VVVVVVVVVVVVVVVVVVVVVVVVVVVVVVVVVVVVVVVVVVVVVVVVVV",
"VVVVVVVVVVVVVVVVVVVVVVVVVVVVVVVVVVVVVqkkkkkkVVVVVV",
"VVVVVVVVVVVVVVVVVVVVVVVVVVVVVVVVVVVVVqkkkkkkVVVVVV",
"VVVVVVVVVVVVVVVVVVVVVVVVVVVVVVVVVVVVVqkkkkkkVVVVVV",
"VVVVVVVVVVVVVVVVVVVVVVVVVVVVVVajjjjjjkkkkkkkVVVVVV",
"VVVVVVVVVVVVVVVVVVVVVVVVVVVVVVpkkkkkkkkkkkkkVVVVVV",
"VVVVVVVVVVVVVVVVVVVVVVVVVVVVVVpkkkkkkkkkkkkkVVVVVV",
"VVVVVVVVVVVVVVVVVVVVVVVVVVVVVV4556kkk0555555VVVVVV",
"VVVVVVVVVVVVVVVVVVVVVVVfkkkkkkVVVVkkkVVVVVVVVVVVVV",
"VVVVVVVVVVVVVVVVVVVVVVVfkkkkkkVVVVkkkVVVVVVVVVVVVV",
"VVVVVVVVVVVVVVVVVVVVVVVfkkkkkkVVVVkkkVVVVVVVVVVVVV",
"VVVVVVVVVVVVVVVVVVVVgggVVVVVVVVVVVkkkVVVVVVVVVVVVV",
"VVVVVVVVVVVVVVVVVVVVkkkVVVVVVVVVVVkkkVVVVVVVVVVVVV",
"VVVVVVVVVVVVVVVVVVVVkkkVVVVVVVVVVVkkkVVVVVVVVVVVVV",
"VVVVVVVVVVVVVVVVVVVVwwwVVVVVVVVVVVwwwVVVVVVVVVVVVV",
"VVVVVVVVV;::::::dkkeVVVVVVVVVVyhhfVVVVVVVVVVVVVVVV",
"VVVVVVVVV;::::::dkkeVVVVVVVVVVyhhfVVVVVVVVVVVVVVVV",
"VVVVVVVVV;::::::dkkeVVVVVVVVVVyhhfVVVVVVVVVVVVVVVV",
"VVVVVV%%%:::::::dkk7&&&VVVVVVVyhhfVVVVVVVVVVVVVVVV",
"VVVVVV::::::::::dkk3:::VVVVVVVyhhfVVVVVVVVVVVVVVVV",
"VVVVVV::::::::::dkk3:::VVVVVVVyhhfVVVVVVVVVVVVVVVV",
"VVVVVV::::::::::ruu2:::VVVVVVVyhhfVVVVVVVVVVVVVVVV",
"VVVVVV:::::::::::::::::VVVV:::9hhi:::VVVVVVVVVVVVV",
"VVVVVV:::::::::::::::::VVVV:::9hhi:::VVVVVVVVVVVVV",
"VVVVVV:::::::::::::::::VVVV:::9hhi:::VVVVVVVVVVVVV",
"VVVVVV:::vbbl::::::.VVVX@@O:::9hhi:::+@#@VVVVVVVVV",
"VVVVVV:::MBBx::::::oVVV$::::::9hhi::::::=VVVVVVVVV",
"VVVVVV:::MBBx::::::oVVV$::::::9hhi::::::=VVVVVVVVV",
"VVVVVV---nmmz::::::oVVV$::::::8sst::::::=VVVVVVVVV",
"VVVVVVVVV;:::::::::oVVV$::::::::::::::::=VVVVVVVVV",
"VVVVVVVVV;:::::::::oVVV$::::::::::::::::=VVVVVVVVV",
"VVVVVVVVV;:::::::::oVVV$::::::::::::::::=VVVVVVVVV",
"VVVVVVVVVVVVVVVVVVVVVVV$::>ccc<:::::::::=VVVVVVVVV",
"VVVVVVVVVVVVVVVVVVVVVVV$::<NNN1:::::::::=VVVVVVVVV",
"VVVVVVVVVVVVVVVVVVVVVVV%::<BBB1:::::::::;VVVVVVVVV",
"VVVVVVVVVVVVVVVVVVVVVVV$;;,MMM1::::::;;;*VVVVVVVVV",
"VVVVVVVVVVVVVVVVVVVVVVVVVVV::::::::::VVVVVVVVVVVVV",
"VVVVVVVVVVVVVVVVVVVVVVVVVVV::::::::::VVVVVVVVVVVVV",
"VVVVVVVVVVVVVVVVVVVVVVVVVVV::::::::::VVVVVVVVVVVVV",
"VVVVVVVVVVVVVVVVVVVVVVVVVVV          VVVVVVVVVVVVV",
"VVVVVVVVVVVVVVVVVVVVVVVVVVVVVVVVVVVVVVVVVVVVVVVVVV",
"VVVVVVVVVVVVVVVVVVVVVVVVVVVVVVVVVVVVVVVVVVVVVVVVVV",
"VVVVVVVVVVVVVVVVVVVVVVVVVVVVVVVVVVVVVVVVVVVVVVVVVV",
"VVVVVVVVVVVVVVVVVVVVVVVVVVVVVVVVVVVVVVVVVVVVVVVVVV",
"VVVVVVVVVVVVVVVVVVVVVVVVVVVVVVVVVVVVVVVVVVVVVVVVVV"
};
