/* XPM */
static char *result[] = {
/* columns rows colors chars-per-pixel */
"67 64 246 2 ",
"   c black",
".  c #010000",
"X  c #000100",
"o  c #010100",
"O  c #020000",
"+  c #020001",
"@  c #030001",
"#  c #020101",
"$  c #030101",
"%  c #010200",
"&  c #020200",
"*  c #020201",
"=  c #020301",
"-  c #040101",
";  c #050101",
":  c #060101",
">  c #060102",
",  c #030401",
"<  c #040401",
"1  c #050601",
"2  c #050602",
"3  c #060602",
"4  c #080102",
"5  c #090202",
"6  c #0A0203",
"7  c #0C0203",
"8  c #0D0203",
"9  c #0E0304",
"0  c #0F0304",
"q  c #070802",
"w  c #070902",
"e  c #080902",
"r  c #090A03",
"t  c #090B03",
"y  c #0B0D03",
"u  c #0C0E04",
"i  c #0D0F04",
"p  c #100304",
"a  c #120305",
"s  c #170406",
"d  c #1C0507",
"f  c #1D0607",
"g  c #1F0608",
"h  c #140809",
"j  c #0E1004",
"k  c #101305",
"l  c #121605",
"z  c #131706",
"x  c #141806",
"c  c #151906",
"v  c #161A07",
"b  c #171B07",
"n  c #171C07",
"m  c #181D07",
"M  c #220609",
"N  c #250709",
"B  c #29080A",
"V  c #2B080B",
"C  c #2D080B",
"Z  c #2E090C",
"A  c #31090C",
"S  c #32090D",
"D  c #2C0E11",
"F  c #3F0C10",
"G  c #1B2008",
"H  c #1C2108",
"J  c #1D2209",
"K  c #1D2309",
"L  c #1E2409",
"P  c #1F2509",
"I  c #202609",
"U  c #212809",
"Y  c #22280A",
"T  c #252B0B",
"R  c #262C0B",
"E  c #2D350D",
"W  c #30390E",
"Q  c #313A0F",
"!  c #333C0F",
"~  c #440C11",
"^  c #460C11",
"/  c #460C12",
"(  c #490E12",
")  c #4A0E13",
"_  c #4B0E13",
"`  c #4C0E13",
"'  c #520F14",
"]  c #530F15",
"[  c #46161A",
"{  c #4C1A1E",
"}  c #531015",
"|  c #571016",
" . c #5C1117",
".. c #601218",
"X. c #611218",
"o. c #69131A",
"O. c #6C141B",
"+. c #6D141B",
"@. c #6F151C",
"#. c #74161D",
"$. c #75161D",
"%. c #78161E",
"&. c #7C171F",
"*. c #364010",
"=. c #384211",
"-. c #384311",
";. c #394311",
":. c #3C4712",
">. c #424D14",
",. c #475315",
"<. c #485516",
"1. c #59681A",
"2. c #5A6A1B",
"3. c #5D6D1C",
"4. c #60711C",
"5. c #60711D",
"6. c #61721D",
"7. c #64751E",
"8. c #64761E",
"9. c #66781E",
"0. c #6B7E20",
"q. c #5D5D5D",
"w. c #717171",
"e. c #861922",
"r. c #8C1A22",
"t. c #8C1A23",
"y. c #8D1B24",
"u. c #8E1B24",
"i. c #931C25",
"p. c #941C25",
"a. c #9C1D27",
"s. c #9E1D28",
"d. c #A11E28",
"f. c #A21E29",
"g. c #A61F2A",
"h. c #AC202B",
"j. c #AD202C",
"k. c #B6222E",
"l. c #B9232E",
"z. c #BD232F",
"x. c #BF242F",
"c. c #C92633",
"v. c #CA2633",
"b. c #CB2633",
"n. c #CE2734",
"m. c #CF2734",
"M. c #D02734",
"N. c #D12735",
"B. c #D32735",
"V. c #D32835",
"C. c #D42835",
"Z. c #D52835",
"A. c #D82836",
"S. c #D82936",
"D. c #D92937",
"F. c #DA2937",
"G. c #DC2937",
"H. c #DD2937",
"J. c #DB2A38",
"K. c #E02A38",
"L. c #E22B39",
"P. c #E52B3A",
"I. c #E62B3A",
"U. c #E72B3A",
"Y. c #E82B3A",
"T. c #E82C3A",
"R. c #E92C3B",
"E. c #EA2C3B",
"W. c #EB2C3B",
"Q. c #EB2D3C",
"!. c #EB2E3D",
"~. c #EB2F3E",
"^. c #EB313F",
"/. c #EC3240",
"(. c #ED404E",
"). c #ED424F",
"_. c #ED4653",
"`. c #EE4A57",
"'. c #EE4B57",
"]. c #EF5965",
"[. c #EF5B67",
"{. c #F0616C",
"}. c #F0646F",
"|. c #F16F79",
" X c #728622",
".X c #728722",
"XX c #778D23",
"oX c #798E24",
"OX c #7B9125",
"+X c #809726",
"@X c #829927",
"#X c #829A27",
"$X c #839A27",
"%X c #869E28",
"&X c #90AA2B",
"*X c #91AB2B",
"=X c #93AD2C",
"-X c #94AE2C",
";X c #96B02C",
":X c #97B22D",
">X c #9AB62E",
",X c #9BB72E",
"<X c #9FBC2F",
"1X c #A2BF30",
"2X c #A2C030",
"3X c #A3C030",
"4X c #A4C131",
"5X c #A4C231",
"6X c #A5C231",
"7X c #A7C532",
"8X c #A8C632",
"9X c #A9C832",
"0X c #AAC833",
"qX c #AAC933",
"wX c #ABC933",
"eX c #ABCA33",
"rX c #ACCB33",
"tX c #AECD34",
"yX c #AFCE34",
"uX c #AFCF34",
"iX c #B0D034",
"pX c #B0D035",
"aX c #B1D035",
"sX c #B1D135",
"dX c #B2D135",
"fX c #B2D235",
"gX c #F27781",
"hX c #F27882",
"jX c #898989",
"kX c #F9BEC2",
"lX c #C5C5C5",
"zX c #F9C0C5",
"xX c #F9C2C7",
"cX c #FACED1",
"vX c #FBD3D6",
"bX c #FBD9DC",
"nX c #FBDADC",
"mX c #FDE9EB",
"MX c #FEF9F9",
"NX c #FEF9FA",
"BX c snow",
"VX c #FFFBFB",
"CX c #FFFDFD",
"ZX c #FFFEFE",
"AX c white",
"SX c None",
/* pixels */
"SXSXSXSXSXSXSXSXSXSXSXSXSXSXSXSXSXSXSXSXSXSX      SXSXSXSXSXSXSXSXSXSXSXSXSXSXSXSXSXSXSXSXSXSXSXSXSXSXSXSXSXSXSXSXSXSXSXSXSXSXSXSXSXSX",
"SXSXSXSXSXSXSXSXSXSXSXSXSXSXSXSXSXSXSXSX    Q -Xo   SXSXSXSXSXSXSXSXSXSXSXSXSXSXSXSXSXSXSXSXSXSXSXSXSXSXSXSXSXSXSXSXSXSXSXSXSXSXSXSXSX",
"SXSXSXSXSXSXSXSXSXSXSXSXSXSXSXSXSXSXSX  , >XfXfXtXu   SXSXSXSXSXSXSXSXSXSXSXSXSXSXSXSXSXSXSXSXSXSXSXSXSXSXSXSXSXSXSXSXSXSXSXSXSXSXSXSX",
"SXSXSXSXSXSXSXSXSXSXSXSXSXSXSXSXSXSXSX  eXfXfXfXfXfXm   SXSXSXSXSXSXSXSXSXSXSXSXSXSXSXSXSXSXSXSXSXSXSXSXSXSXSXSXSXSXSXSXSXSXSXSXSXSXSX",
"SXSXSXSXSXSXSXSXSXSXSXSXSXSXSXSXSXSXSX  fXfXqXfXfXfXfXT   SXSXSXSXSXSXSXSXSXSXSXSXSXSXSXSXSXSXSXSXSXSXSXSXSXSXSXSXSXSXSXSXSXSXSXSXSXSX",
"SXSXSXSXSXSXSXSXSXSXSXSXSXSXSXSXSXSXSX  yXfX+Xw 4XfXfXfXL   SXSXSXSXSXSXSXSXSXSXSXSXSXSXSXSXSXSXSXSXSXSXSXSXSXSXSXSXSXSXSXSXSXSXSXSXSX",
"SXSXSXSXSXSXSXSXSXSXSXSXSXSXSXSXSXSXSX  1XfX=X    9.fXfXfXn   SXSXSXSXSXSXSXSXSXSXSXSXSXSXSXSXSXSXSXSXSXSXSXSXSXSXSXSXSXSXSXSXSXSXSXSX",
"SXSXSXSXSXSXSXSXSXSXSXSXSXSXSXSXSXSXSX  %XfXwX      R fXfXfXy   SXSXSXSXSXSXSXSXSXSXSXSXSXSXSXSXSXSXSXSXSXSXSXSXSXSXSXSXSXSXSXSXSXSXSX",
"SXSXSXSXSXSXSXSXSXSXSXSXSXSXSXSXSXSXSX  5.fXfX    SX  y uXfXpX< SXSXSXSXSXSXSXSXSXSXSXSXSXSXSXSXSXSXSXSXSXSXSXSXSXSXSXSXSXSXSXSXSXSXSX",
"SXSXSXSXSXSXSXSXSXSXSXSXSXSXSXSXSXSXSX  -.fXfXo   SXSX  = 9XfX9X  SXSXSXSXSXSXSXSXSXSXSXSXSXSXSXSXSXSXSXSXSXSXSXSXSXSXSXSXSXSXSXSXSXSX",
"SXSXSXSXSXSXSXSXSXSXSXSXSXSXSXSXSXSXSX  K fXfXr   SXSXSXSXX 1XfX;X  SXSXSXSXSXSXSXSXSXSXSXSXSXSXSXSXSXSXSXSXSXSXSXSXSXSXSXSXSXSXSXSXSX",
"SXSXSXSXSXSXSXSXSXSXSXSXSXSXSXSXSXSXSX  y fXfXH   SXSXSXSXSX  3XfX5.  SXSXSXSXSXSXSXSXSXSXSXSXSXSXSXSXSXSXSXSXSXSXSXSXSXSXSXSXSXSXSXSX",
"SXSXSXSXSXSXSXSXSXSXSXSXSXSXSXSXSXSXSX  q fXfX:.  SXSXSXSXSXSX  8XfXY   SXSXSXSXSXSXSXSXSXSXSXSXSXSXSXSXSXSXSXSXSXSXSXSXSXSXSXSXSXSXSX",
"SXSXSXSXSXSXSXSXSXSXSXSXSXSXSXSXSXSXSXSX< fXfX>.  SXSXSXSXSXSXSX* yXsXo SXSXSXSXSXSXSXSXSXSXSXSXSXSXSXSXSXSXSXSXSXSXSXSXSXSXSXSXSXSXSX",
"SXSXSXSXSXSXSXSXSXSXSXSXSXSXSXSXSXSXSXSX& fXfX,.  SXSXSXSXSXSXSX  t fX*X  SXSXSXSXSXSXSXSXSXSXSXSXSXSXSXSXSXSXSXSXSXSXSXSXSXSXSXSXSXSX",
"SXSXSXSXSXSXSXSXSXSXSXSXSXSXSXSXSXSXSXSXo fXfX;.  SXSXSXSXSXSXSXSX  E fXW   SXSXSXSXSXSXSXSXSXSXSXSXSXSXSXSXSXSXSXSXSXSXSXSXSXSXSXSXSX",
"SXSXSXSXSXSXSXSXSXSXSXSXSXSXSXSXSXSXSXSXo fXfXU   SXSXSXSXSXSXSXSXSX   XsXo SXSXSXSXSXSXSXSXSXSXSXSXSXSXSXSXSXSXSXSXSXSXSXSXSXSXSXSXSX",
"SXSXSXSXSXSXSXSXSXSXSXSXSXSXSXSXSXSXSXSXo fXfXc   SXSXSXSXSXSXSXSXSXSX  rXOX  SXSXSXSXSXSXSXSXSXSXSXSXSXSXSXSXSXSXSXSXSXSXSXSXSXSXSXSX",
"SXSXSXSXSXSXSXSXSXSXSXSXSXSXSXSXSXSXSXSX% fXfX1   SXSXSXSXSXSXSXSXSXSX  l fXi   SXSXSXSXSXSXSXSXSXSXSXSXSXSXSXSXSXSXSXSXSXSXSXSXSXSXSX",
"SXSXSXSXSXSXSXSXSXSXSXSXSXSXSXSXSXSXSXSX< fXfX    SXSXSXSXSXSXSXSXSXSXSX  @X<X  SXSXSXSXSXSXSXSXSXSXSXSXSXSXSXSXSXSXSXSXSXSXSXSXSXSXSX",
"SXSXSXSXSXSXSXSXSXSXSXSXSXSXSXSXSXSXSXSXq fXdX    SXSXSXSXSXSXSXSXSXSXSX  % fXJ   SXSXSXSXSXSXSXSXSXSXSXSXSXSXSXSXSXSXSXSXSXSXSXSXSXSX",
"SXSXSXSXSXSXSXSXSXSXSXSXSXSXSXSXSXSXSXSXu fX0X    SXSXSXSXSXSXSXSXSXSXSXSX  0.8X  SXSXSXSXSXSXSXSXSXSXSXSXSXSXSXSXSXSXSXSXSXSXSXSXSXSX",
"SXSXSXSXSXSXSXSXSXSXSXSXSXSXSXSXSXSXSX  P fX&X  SXSXSXSXSXSXSXSXSXSXSXSXSX  % fXI   SXSXSXSXSXSXSXSXSXSXSXSXSXSXSXSXSXSXSXSXSXSXSXSXSX",
"SXSXSXSXSXSXSXSXSXSXSXSXSXSXSXSXSXSXSX  *.fX7.  SXSXSXSXSXSXSXSXSXSXSXSXSXSX  .X6X  SXSXSXSXSXSXSXSXSXSXSXSXSXSXSXSXSXSXSXSXSXSXSXSXSX",
"SXSXSXSXSXSXSXSXSXSXSXSXSXSXSXSXSXSXSX  1.fX!   SXSXSXSXSXSXSXSXSXSXSXSXSXSX  , fXx   SXSXSXSXSXSXSXSXSXSXSXSXSXSXSXSXSXSXSXSXSXSXSXSX",
"SXSXSXSXSXSXSXSXSXSXSXSXSXSXSXSXSXSXSX  %XfXk   SXSXSXSXSXSXSXSXSXSXSXSXSXSXSX  $X-X  SXSXSXSXSXSXSXSXSXSXSXSXSXSXSXSXSXSXSXSXSXSXSXSX",
"SXSXSXSXSXSXSXSXSXSXSXSXSXSXSXSXSXSXSX  6XfX&   SXSXSXSXSXSXSXSXSXSXSXSXSXSXSX  w fX3   SXSXSXSXSXSXSXSXSXSXSXSXSXSXSXSXSXSXSXSXSXSXSX",
"SXSXSXSXSXSXSXSXSXSXSXSXSXSXSXSXSXSXSX  aXsX  SXSXSXSXSXSXSXSXSXSXSXSXSXSXSXSXSX  *XXX  SXSXSXSXSXSXSXSXSXSXSXSXSXSXSXSXSXSXSXSXSXSXSX",
"SXSXSXSXSXSXSXSXSXSXSXSXSXSXSXSXSXSXSX& fX7X  SXSXSXSXSXSXSXSXSXSXSXSXSXSXSXSXSX  j fXo SXSXSXSXSXSXSXSXSXSXSXSXSXSXSXSXSXSXSXSXSXSXSX",
"SXSXSXSXSXSXSXSXSXSXSXSXSXSXSXSXSXSX  m fX#X  SXSXSXSXSXSXSXSXSXSXSXSXSXSXSXSXSXSX  ,X6.  SXSXSXSXSXSXSXSXSXSXSXSXSXSXSXSXSXSXSXSXSXSX",
"SXSXSXSXSXSXSXSXSXSXSXSXSXSXSXSXSXSX  2.fX=.  SXSXSXSXSXSXSXSXSXSXSXSXSXSXSXSXSXSX  z fX  SXSXSXSXSXSXSXSX            SXSXSXSXSXSXSXSX",
"SXSXSXSXSXSXSXSXAXAXAXAXSXSXSXSXSXSX  1XfXe SXSXSXSXSXSXSXSXSXSXSXSXSXSXSXSXSXSXSXSX  <X3.  SXSXSXSX    0 a.T.W.W.P.u.>   SXSXSXSXSXSX",
"SXSXSXSXSXSXSXSXAXAXAXAXSXSXSXSXSXSX  fXfX  SXSXSXSXSXSXSXSXSXSXSXSXSXSXSXSXSXSXSXSX  b fXX SXSXSX  F K.W.W.W.W.W.W.W.W.p.  SXSXSXSXSX",
"SXSXSXSXSXSXSXAXAXAXAXAXSXSXSXSXSX  v fX:X  SXSXSXSXSXSXSXSXSXSXSXSXSXSXSXSXSXSXSXSXSX  2X4.    O Z.W.W.W.W.W.W.W.W.W.W.W.K.-   SXSXSX",
"SXSXSXSXSXSXSXAXAXAXAXAXSXSXSXSXSX  oXfXW   SXSXSXSXSXSXSXSXSXSXSXSXSXSXSXSXSXSXSXSXSX  G fXo   F.W.W.W.W.W.W.W.W.W.W.W.W.W.I.+ SXSXSX",
"SXSXSXSXSXSXSXlXw.q.jXSXSXSXSXSXSX  iXfX  SXSXSXSXSXSXSXSXSXSXSXSXSXSXSXSXSXSXSXSXSXSXSX  5Xq ( W.W.W.W.W.W.W.W.W.W.W.W.W.W.W.B.  SXSX",
"SXSXSXSXSX    h [ { D #     SXSX  i fX X  SXSXSXSXSXSXSXSXSXSXSXSXSXSXSXSXSXSXSXSXSXSXSX  5 y.W.W.W.W.W.W.W.W.W.W.W.W.W.W.W.W.W._   SX",
"SXSXSXSX  ^ U.W.W.W.W.W.m.C       8.fX2       6 9 .   SXSXSXSXSXSXSXSXSXSXSXSXSX    : ..H.W.W.W.W.W.W.W.W.W.W.W.W.W.W.W.W.W.W.W.L.  SX",
"SXSXSX  j.W.W.W.W.W.W.W.W.W.H.d   <.r . ) A.W.W.W.W.M.- SXSXSXSXSXSXSXSXSXSX  0 l.R.W.W.W.W.W.W.W.W.W.W.W.W.W.W.W.W.W.W.W.W.W.W.W.- SX",
"SXSX  s.W.).`.W.W.W.W.W.W.W.W.W.d.' k.W.W.W.W.W.W.W.W.K.  SXSXSXSXSXSXSXSXSXO W.W.W.W.W.W.W.W.W.W.W.W.W.W.W.W.W.W.W.W.W.W.W.W.W.W.`   ",
"SXSXN ].CXAXAXNX~.W.W.W.W.W.W.W.W.W.W.W.W.W.W.W.W.W.W.W.g   SXSXSXSXSXSXSXSX} W.W.W.zXZXAXmX!.W.W.W.W.W.W.W.W.W.W.W.W.W.W.W.W.W.W.g.  ",
"SX  J.AXAXAXAXAXkXW.W.W.W.W.W.W.W.W.W.W.W.W.W.W.W.W.W.W.h.  SXSXSXSXSXSXSX  c.W.W.nXAXAXAXAXvXW.W.W.W.W.W.W.W.W.W.W.W.W.W.W.W.W.W.G.  ",
"SX7 _.AXAXAXAXAXMXW.W.W.W.W.W.W.W.W.W.W.W.W.W.W.W.W.W.W.E.  SXSXSXSXSXSXSX  E.W.Q.AXAXAXAXAXAXW.W.W.W.W.W.W.W.W.W.W.W.W.W.W.W.W.W.T.  ",
"  #.(.AXAXAXAXAXNXW.W.W.W.W.W.W.W.W.W.W.W.W.W.W.W.W.W.W.W.8 SXSXSXSXSXSXSX  W.W.~.AXAXAXAXAXAXQ.W.W.W.W.W.W.W.W.W.W.W.W.W.W.W.W.W.W.  ",
"  M.W.ZXAXAXAXAXxXW.W.W.W.W.W.W.W.W.W.W.W.W.W.W.W.W.W.W.W.O.SXSXSXSXSXSXSX- W.W.W.BXAXAXAXAXVXW.W.W.W.W.W.W.W.W.W.W.W.W.W.W.W.W.W.W.  ",
"  Y.W.[.AXAXAXCX^.W.W.W.W.W.W.W.W.W.W.W.W.W.W.W.W.W.W.W.W.x.SXSXSXSXSXSXSX; W.W.W.{.AXAXAXAXhXW.W.W.W.W.W.W.W.W.W.W.W.W.W.W.W.W.W.U.  ",
"  W.W.W./.gX|.Q.W.W.W.W.W.W.W.W.W.W.W.W.W.W.W.W.W.W.W.W.W.t.SXSXSXSXSXSXSX  W.W.W.W.'.cXbX}.W.W.W.W.W.W.W.W.W.W.W.W.W.W.W.W.W.W.W.C.  ",
"  W.W.W.W.W.W.W.W.W.W.W.W.W.W.W.W.W.W.W.W.W.W.W.W.W.W.W.W.~ SXSXSXSXSXSXSX  Y.W.W.W.W.W.W.W.W.W.W.W.W.W.W.W.W.W.W.W.W.W.W.W.W.W.W.r.SX",
"  E.W.W.W.W.W.W.W.W.W.W.W.W.W.W.W.W.W.W.W.W.W.W.W.W.W.W.W.7 SXSXSXSXSXSXSX  j.W.W.W.W.W.W.W.W.W.W.W.W.W.W.W.W.W.W.W.W.W.W.W.W.W.W.g SX",
"  I.W.W.W.W.W.W.W.W.W.W.W.W.W.W.W.W.W.W.W.W.W.W.W.W.W.W.W.  SXSXSXSXSXSXSXSXf W.W.W.W.W.W.W.W.W.W.W.W.W.W.W.W.W.W.W.W.W.W.W.W.W.E.  SX",
"  b.W.W.W.W.W.W.W.W.W.W.W.W.W.W.W.W.W.W.W.W.W.W.W.W.W.W.m.  SXSXSXSXSXSXSXSX  D.W.W.W.W.W.W.W.W.W.W.W.W.W.W.W.W.W.W.W.W.W.W.W.W.e.SXSX",
"  e.W.W.W.W.W.W.W.W.W.W.W.W.W.W.W.W.W.W.W.W.W.W.W.W.W.W.]   SXSXSXSXSXSXSXSXSXs W.W.W.W.W.W.W.W.W.W.W.W.W.W.W.W.W.W.W.W.W.W.W.W.O SXSX",
"  V W.W.W.W.W.W.W.W.W.W.W.W.W.W.W.W.W.W.W.W.W.W.W.W.W.W.$ SXSXSXSXSXSXSXSXSXSX  $.W.W.W.W.W.W.W.W.W.W.W.W.W.W.W.W.W.W.W.W.W.W.o.  SXSX",
"SXO W.W.W.W.W.W.W.W.W.W.W.W.W.W.W.W.W.W.W.W.W.W.W.W.W.m.  SXSXSXSXSXSXSXSXSXSXSX  f.W.W.W.W.W.W.W.W.W.W.W.W.W.W.W.W.W.W.W.W.V.  SXSXSX",
"SX  L.W.W.W.W.W.W.W.W.W.W.W.W.W.W.W.W.W.W.W.W.W.W.W.W.A   SXSXSXSXSXSXSXSXSXSXSXSX  i.W.W.W.W.W.W.W.W.W.W.W.W.W.W.W.W.W.W.T.$ SXSXSXSX",
"SX  @.W.W.W.W.W.W.W.W.W.W.W.W.W.W.W.W.W.W.W.W.W.W.W.Y.  SXSXSXSXSXSXSXSXSXSXSXSXSXSX  ( W.W.W.W.W.W.W.W.W.W.W.W.W.W.W.W.R.8   SXSXSXSX",
"SXSX  E.W.W.W.W.W.W.W.W.W.W.W.W.W.W.W.W.W.W.W.W.W.W. .  SXSXSXSXSXSXSXSXSXSXSXSXSXSXSXSX8 H.W.W.W.W.W.W.W.W.W.W.W.W.W.S.:   SXSXSXSXSX",
"SXSX  B W.W.W.W.W.W.W.W.W.W.W.W.W.W.W.W.W.W.W.W.W.R.  SXSXSXSXSXSXSXSXSXSXSXSXSXSXSXSXSXSX  %.W.W.W.W.W.W.W.W.W.W.E.X.  SXSXSXSXSXSXSX",
"SXSXSX  / W.W.W.W.W.W.W.W.W.W.W.W.W.W.W.W.W.W.W.W.|   SXSXSXSXSXSXSXSXSXSXSXSXSXSXSXSXSXSXSX  $ &.P.W.W.W.W.R.z.F     SXSXSXSXSXSXSXSX",
"SXSXSXSX  Z W.W.W.W.W.W.W.W.W.W.W.W.W.W.W.W.W.W.D.  SXSXSXSXSXSXSXSXSXSXSXSXSXSXSXSXSXSXSXSXSXSX    . : - .       SXSXSXSXSXSXSXSXSXSX",
"SXSXSXSXSX  4 n.W.W.W.Y.+.@ M W.W.W.W.W.W.W.W.Y.-   SXSXSXSXSXSXSXSXSXSXSXSXSXSXSXSXSXSXSXSXSXSXSXSXSXSXSXSXSXSXSXSXSXSXSXSXSXSXSXSXSX",
"SXSXSXSXSXSX    ; f 7         a v.W.W.W.W.W.C.-   SXSXSXSXSXSXSXSXSXSXSXSXSXSXSXSXSXSXSXSXSXSXSXSXSXSXSXSXSXSXSXSXSXSXSXSXSXSXSXSXSXSX",
"SXSXSXSXSXSXSXSXSXSXSXSXSXSXSXSX  p h.U.N.S   SXSXSXSXSXSXSXSXSXSXSXSXSXSXSXSXSXSXSXSXSXSXSXSXSXSXSXSXSXSXSXSXSXSXSXSXSXSXSXSXSXSXSXSX",
"SXSXSXSXSXSXSXSXSXSXSXSXSXSXSXSXSX        SXSXSXSXSXSXSXSXSXSXSXSXSXSXSXSXSXSXSXSXSXSXSXSXSXSXSXSXSXSXSXSXSXSXSXSXSXSXSXSXSXSXSXSXSXSX"
};
