/* XPM */
static char *result[] = {
/* columns rows colors chars-per-pixel */
"32 60 190 2 ",
"   c #150B2F",
".  c #150C31",
"X  c #151444",
"o  c #161749",
"O  c #161F5B",
"+  c #161D57",
"@  c #16215E",
"#  c #331E7C",
"$  c #381976",
"%  c #162262",
"&  c #18256A",
"*  c #182263",
"=  c #1B2A76",
"-  c #1C2B7B",
";  c #202069",
":  c #2E217C",
">  c #212A7F",
",  c #292378",
"<  c #31217E",
"1  c #1D2E82",
"2  c #1F3087",
"3  c #1F3089",
"4  c #252A84",
"5  c #2B2B8B",
"6  c #2F2586",
"7  c #322384",
"8  c #20328D",
"9  c #292F92",
"0  c #233493",
"q  c #24369B",
"w  c #2C339C",
"e  c #24389E",
"r  c #2A3796",
"t  c #2539A2",
"y  c #283AA6",
"u  c #273CAA",
"i  c #293DAD",
"p  c #2B35A1",
"a  c #3032A1",
"s  c #2A3EB1",
"d  c #2A41B5",
"f  c #2C43BC",
"g  c #2D45C3",
"h  c #2F48CB",
"j  c #3049CE",
"k  c #314BD3",
"l  c #344EDD",
"z  c #3147D0",
"x  c #3351DD",
"c  c #3255DA",
"v  c #2C64DE",
"b  c #2A6DDF",
"n  c #3B6EDD",
"m  c #267EDB",
"M  c #3B72DD",
"N  c #344FE0",
"B  c #3451E0",
"V  c #335BE2",
"C  c #2C65E0",
"Z  c #2B6BE0",
"A  c #316AE4",
"S  c #2A72E2",
"D  c #2F7CEB",
"F  c #267CE2",
"G  c #3074E9",
"H  c #784DD4",
"J  c #5A66D8",
"K  c #407DDB",
"L  c #5077DE",
"P  c #7867D6",
"I  c #7775DC",
"U  c #9553CF",
"Y  c #8E5BD2",
"T  c #865ED3",
"R  c #9256D0",
"E  c #9159D1",
"W  c #985CD2",
"Q  c #8562D4",
"!  c #8961D4",
"~  c #836DD4",
"^  c #1E8BDF",
"/  c #298ADE",
"(  c #3583DD",
")  c #2790D5",
"_  c #1FB4CB",
"`  c #20B0CE",
"'  c #21B8D5",
"]  c #1F8DE0",
"[  c #1F92E2",
"{  c #1F9EE4",
"}  c #2283E0",
"|  c #228CE0",
" . c #2E82EB",
".. c #2C8BEC",
"X. c #2886E7",
"o. c #2493E2",
"O. c #2C95E3",
"+. c #209BE6",
"@. c #299DE4",
"#. c #2C93EE",
"$. c #229EEA",
"%. c #2B99EF",
"&. c #3397EA",
"*. c #1FABE6",
"=. c #1FA1E9",
"-. c #1EA8EC",
";. c #1DB3E6",
":. c #29A5E5",
">. c #21A2EA",
",. c #21ABED",
"<. c #29A9E8",
"1. c #31AFE9",
"2. c #27B2E6",
"3. c #25BCE5",
"4. c #25B2EB",
"5. c #27B8ED",
"6. c #21B3F1",
"7. c #22BBF3",
"8. c #28B3F2",
"9. c #3CB5F4",
"0. c #3AB9F6",
"q. c #35BFF8",
"w. c #34BEF7",
"e. c #25A6F0",
"r. c #4F91DE",
"t. c #6D88DB",
"y. c #6795D9",
"u. c #7386D6",
"i. c #4ABFDE",
"p. c #5799EA",
"a. c #6985E2",
"s. c #54A8E7",
"d. c #5CACE8",
"f. c #50A1EC",
"g. c #48B6E7",
"h. c #58B6EE",
"j. c #45AEF1",
"k. c #40B3F3",
"l. c #4FB8F4",
"z. c #63AFE9",
"x. c #69B3EA",
"c. c #72BBF0",
"v. c #1ECEE7",
"b. c #1DD9E7",
"n. c #24C4E5",
"m. c #25C5EF",
"M. c #22CBE9",
"N. c #21DBE7",
"B. c #37D3E7",
"V. c #22C4F5",
"C. c #23CFFC",
"Z. c #2CC9FC",
"A. c #32C3F9",
"S. c #23D6F3",
"D. c #24D3FF",
"F. c #2CD3FE",
"G. c #22DAFB",
"H. c #22DAF4",
"J. c #32D6FF",
"K. c #3DD8FF",
"L. c #3FD6FE",
"P. c #3CCBE3",
"I. c #1EEEE7",
"U. c #1EEAEB",
"Y. c #1FE3EF",
"T. c #1EF4EA",
"R. c #1CFDEA",
"E. c #1FEEF2",
"W. c #1FF1F1",
"Q. c #20E2EB",
"!. c #21E6E6",
"~. c #20E5F5",
"^. c #20EAF3",
"/. c #5BD8FD",
"(. c #46DAFF",
"). c #6DC2F1",
"_. c #76E3FF",
"`. c #8CC5EF",
"'. c #92C7F0",
"]. c #A1CFF2",
"[. c #A7D2F3",
"{. c #B8F1FF",
"}. c #AAE8FC",
"|. c #C0CFF4",
" X c #D6EAFA",
".X c #C1F3FF",
"XX c #DBF8FF",
"oX c #C5E1F7",
"OX c #E9FAFF",
"+X c None",
/* pixels */
"+X+X+X+X+X+X+X+X+XD.D.D.D.D.D.D.+X+X+X+X+X+X+X+X+X+X+X+X+X+X+X+X",
"+X+X+X+X+X+X+X+XD.D.D.D.D.D.F.F.D.+X+X+X+X+X+X+X+X+X+X+X+X+X+X+X",
"+X+X+X+X+X+X+X+XD.D.D.D.D.L.{.{.K.C.>.+X+X+X+X+X+X+X+X+X+X+X+X+X",
"+X+X+X+X+X+X+X+X+X+X+X+X,.J._.XX(.D.V.$.+X+X+X+X+X+X+X+X+X+X+X+X",
"+X+X+X+X+X+X+X+X+X+X+X^ [ =.4./.F.D.D.=.^ +X+X+X+X+X+X+X+X+X+X+X",
"+X+X+X+X+X+X+X+X+X^ ] ] ] ] | -.C.^.E.*.] ] +X+X+X+X+X+X+X+X+X+X",
"+X+X+X+X+X+X+X+Xx.].c.o.| ] ] | ..S.R.m.+.^ / ] +X+X+X+X+X+X+X+X",
"+X+X+X+X+X+X+Xx.'.'.x.| ] ] | Z V  .Y.T.V.{ ] ] ] +X+X+X+X+X+X+X",
"+X+X+X+X+X+X^ `.[.^ ] ] Z S Z B B x V.R.W.;.] ] ] +X+X+X+X+X+X+X",
"+X+X+X+X+X+X^ s.x.[ ] C B N B B B B ..S.R.v.[ ] ] ] +X+X+X+X+X+X",
"+X+X+X+X+X+X] ] ] ] v N N B N B B B B ..H.~.e.F ] ] +X+X+X+X+X+X",
"+X+X+X+X+X] ] ] ] Z N N B N B B B k x B M.W...Z | ] ] +X+X+X+X+X",
"+X+X+X+X+X] ] / v N N B B N k k k g j k 3.R.4.F [ ] ] +X+X+X+X+X",
"+XD.+X+X+X] ^ b V G Z B N k g f f g f g / Y.E.e./ ] ] +X+X+X+X+X",
"+X+X+X+X] ] [ X.#.G.8.B k f f d s s d d s ' S.D Z ] ] ] +X+X+X+X",
"+X+X+X+X| ^ 6.D.Y.T.2.c g f d e e e e e e _ :.N v ] | ^ +XD.+X+X",
"+X+X+X] ] [ 7.E.T.2.V k g s e q e q e q q ` @.l x v } ^ +XD.+X+X",
"+X+X+X| ] 6.Y.T.2.V k d i e e q e e q 9 9 ) m j x x C ^ +XK.D.+X",
"+X+X] ] ] 7.W.3.c l g 3 8 e q q q q 7 7 < r d h B B Z ^ +X.XJ.+X",
"+X+X] ] 6.~.R.<.N g 3 8 i q 3 1 - 4 0 9 < 5 d z N C | ] +X.XJ.+X",
"+X+X] ] 7.E.E.%.N f 3 i t 0 1 - & - 2 0 6 # p z B C | ] :.(.D.+X",
"+X+X] ] 7.E.<.V g 3 3 t q 1 - & % & - 0 q 4 t h B B Z ] $.C.D.+X",
"+X] ] | v.E.#.k f s i e q - & % % % - 0 q 2 t k B N C ] +.D.q.! ",
"+X+X] 6.U.4.V l h s t q 1 - % % % % = 2 q 2 t h N N C ] { w.I R ",
"+X+X[ v.R.@.l k h y 7 7 # , % % % % & - 2 e d g k N C ] { 9.Y +X",
"+X+X7.U.R.@.N z a 7 7 6 , ; % % % @ % = 1 t g f h N C +.7.0.Y +X",
"+X+Xa.B.n.A N z a $ : 2 - % % O o O % - - 8 i f k N C >.D.0.Y +X",
"+X+XU g. .N k j a 7 4 1 - % @ o . + % - 3 2 3 u h N v >.D.q.Y +X",
"+XR y.1.S N j f s w 0 1 = O o     X O = 0 q 1 e j N C >.A.a.E +X",
"+XU B.;.Z N j f d t 0 1 - O       X @ = 0 e 2 e j N C >.k.R +X+X",
"U t.B.-.C N j f t 3 0 1 - @ X   . O % = 8 e q d k N C >.k.Y +X+X",
"Y 9.V.+.C B z f t 3 0 1 - % O X o O % = q e i z N N Z 6.k.Y +X+X",
"E p.O.} Z N k g t 3 0 1 - % % % % % % = 1 0 s k N l D D.k.Y +X+X",
"R R M ] C N N z t 2 8 2 - % % % % O % = = 3 t g N N D D.k.E +X+X",
"U I ( [ Z N B j u 8 0 0 1 & % % % % O = 1 0 e f B N D D.k.E +X+X",
"Y c.h.O.Z N N k g f u 2 8 - % % % % & - - y s g N x D D.9.Y +X+X",
"W [.OXx.Z N B B z f u 1 1 - % % O % = 1 : a t d B N D Z.f.Y +X+X",
"W h.}.z.C N N B k g u 1 1 - & % & & - 1 6 p d h B B ..k.Y R +X+X",
"~ 9.<.| Z N N N N k i 1 1 1 = & - - 4 - 8 0 t k N  .Y.P.T +X+X+X",
"A.C.$.| ] C N N B k i 1 - - 1 1 1 - : # 9 q i k B >.R.N./ ] +X+X",
"D.D.$.] ] Z B B N k i 4 : # > - 1 1 : 5 q i f z O.T.U.V.[ +X+X+X",
"D.D.+X] | Z ..#.V c f y 4 # < - - 1 0 q e s h l :.b.{ [ ^ +X+X+X",
"+XD.+X] ] Z #.G.b.:.k f i r 0 4 - 2 0 t i f k O.I.v.| ] ] +X+X+X",
"+XD.+X+X] Z #.G.W.n.x k f s q 1 1 0 e i f i g 2.b.{ ] ] +X+X+X+X",
"+XD.+X+X] ] L p.Y.n.c l s e i q q q 2 i f h ) U.v.^ ^ ^ +X+X+X+X",
"+XD.+X+X] ] J T g.I.:.k s 8 s s t e 1 e d k e.2./ ^ ] ] +X+X+X+X",
"+XD.+X+X] ] n H y.R.M.x h u f f t 2 4 y f g v F / ] ] +X+X+X+X+X",
"+XD.+X+X] ] / J ~ i.M.B l k g d 0 1 e s h k v F ] ] ] +X+X+X+X+X",
"+X+X+X+X| ] [ M H t.Y. .B l f f 2 q h z l N S ^ ] ] +X+X+X+X+X+X",
"+X+X+X+X+X] ] / J ~ i.n.B l j f 8 g N N x C } ^ ] ] +X+X+X+X+X+X",
"+X+X+X+X+X+X] ] ( P u.U.o.V l h s k B C b } | ] ] | +X+X+X+X+X+X",
"+X+X+X+X+X+X] ] / m r.T.I. .N N B N B F ] ] ] ] | +X+X+X+X+X+X+X",
"+X+X+X+X+X+X+X] / ^ =.G.E.S. .V N v v } [ ] ] ] +X+X+X+X+X+X+X+X",
"+X+X+X+X+X+X+X+X^ &.)./.V.E.S.S C / o.] ^ / ] +X+X+X+X+XD.D.+X+X",
"+X+X+X+X+X+X+X+X] s. X Xh.V.Y.-.{ ] ] ] | ] ] +X+X+X+X+XD.D.+X+X",
"+X+X+X+X+X+X+X+X+X/ s.oX].:.C.D.C.-.[ ^ ] ^ +XD.D.+X+X+X+X+X+X+X",
"+X+X+X+X+X+X+X+X+X+X| o.o.o.9.0.C.C.,.+.+X+XD.D.D.+X+X+X+X+X+X+X",
"+X+X+X+X+X+X+X+X+X+X+X^ ] ( T ! j.D.D.C.F.A.0.Z.+X+X+X+X+X+X+X+X",
"+X+X+X+X+X+X+X+X+X+X+X+X+X+X+XU T j.q.q.A.a.E +X+X+X+X+X+X+X+X+X",
"+X+X+X+X+X+X+X+X+X+X+X+X+X+X+X+XU T ! ! ! R U +X+X+X+X+X+X+X+X+X"
};
