/* XPM */
static char *result[] = {
/* columns rows colors chars-per-pixel */
"64 64 19 1 ",
"  c #008F50",
". c #008E51",
"X c #008F51",
"o c #008F52",
"O c #009050",
"+ c #009051",
"@ c #219E68",
"# c #229E68",
"$ c #2CA26F",
"% c #2DA26F",
"& c #30A472",
"* c #41AB7D",
"= c #43AC7E",
"- c #4DB085",
"; c #C0E3D4",
": c #D6EDE3",
"> c #D7EDE3",
", c white",
"< c None",
/* pixels */
"<<<<<<<<<<<<<<<<<<<<<<<<<<<<<<<<<<<<<<<<<<<<<<<<<<<<<<<<<<<<<<<<",
"<<<<<<<<<<<<<<<<<<<<<<<<<<<<<<<<<<<<<<<<<<<<<<<<<<<<<<<<<<<<<<<<",
"<<<<<<<<<<<<<<<<<<<<<<<<<<XXXXXXXXXXXX<<<<<<<<<<<<<<<<<<<<<<<<<<",
"<<<<<<<<<<<<<<<<<<<<<<XXXXXXXXXXXXXXXXXXXX<<<<<<<<<<<<<<<<<<<<<<",
"<<<<<<<<<<<<<<<<<<<<XXXXXXXXXXXXXXXXXXXXXXXX<<<<<<<<<<<<<<<<<<<<",
"<<<<<<<<<<<<<<<<<<XXXXXXXXXXXXXXXXXXXXXXXXXXXX<<<<<<<<<<<<<<<<<<",
"<<<<<<<<<<<<<<<<XXXXXXXXXXXXXXXXXXXXXXXXXXXXXXXX<<<<<<<<<<<<<<<<",
"<<<<<<<<<<<<<<+XXXXXXXXXXXXXXXXXXXXXXXXXXXXXXXXXX+<<<<<<<<<<<<<<",
"<<<<<<<<<<<<<XXXXXXXXXXXXXXXXXXXXXXXXXXXXXXXXXXXXXX<<<<<<<<<<<<<",
"<<<<<<<<<<<<+XXXXXXXXXXXXXXXXXXXXXXXXXXXXXXXXXXXXXX+<<<<<<<<<<<<",
"<<<<<<<<<<<XXXXXXXXXXXXXXXXXXXXXXXXXXXXXXXXXXXXXXXXXX<<<<<<<<<<<",
"<<<<<<<<<<XXXXXXXXXXXXXXXXXXXXXXXXXXXXXXXXXXXXXXXXXXXX<<<<<<<<<<",
"<<<<<<<<<XXXXXXXXXXXXXXXXXXXXXXXXXXXXXXXXXXXXXXXXXXXXXX<<<<<<<<<",
"<<<<<<<<XXXXXXXXXXXXXXXXXXXXXXXXXXXXXXXXXXXXXXXXXXXXXXXX<<<<<<<<",
"<<<<<<<+XXXXXXXXXXXXXXXXXXXXXXXXXXXXXXXXXXXXXX*XXXXXXXXX+<<<<<<<",
"<<<<<<<XXXXXXXXXXXXXXXXXXXXXXXXXXXXXXXXXXXXXX:,-XXXXXXXXX<<<<<<<",
"<<<<<<XXXXXXXXXXXXXXXXXXXXXXXXXXXXXXXXXXXXXX>,,,-XXXXXXXXX<<<<<<",
"<<<<<<XXXXXXXXXXXXXXXXXXXXXXXXXXXXXXXXXXXXX:,,,,,-XXXXXXXX<<<<<<",
"<<<<<XXXXXXXXXXXXXXXXXXXXXXXXXXXXXXXXXXXXX>,,,,,,,-XXXXXXXX<<<<<",
"<<<<<XXXXXXXXXXXXXXXXXXXXXXXXXXXXXXXXXXXX:,,,,,,,,,-XXXXXXX<<<<<",
"<<<<XXXXXXXXXXXXXXXXXXXXXXXXXXXXXXXXXXXX>,,,,,,,,,,,-XXXXXXX<<<<",
"<<<<XXXXXXXXXXXXXXXXXXXXXXXXXXXXXXXXXXX>,,,,,,,,,,,,;XXXXXXX<<<<",
"<<<+XXXXXXXXXXXXXXXXXXXXXXXXXXXXXXXXXX>,,,,,,,,,,,,;XXXXXXXX+<<<",
"<<<XXXXXXXXXXXXXXXXXXXXXXXXXXXXXXXXXX:,,,,,,,,,,,,;XXXXXXXXXX<<<",
"<<<XXXXXXXXXXXXXXXXXXXXXXXXXXXXXXXXX>,,,,,,,,,,,,;XXXXXXXXXXX<<<",
"<<<XXXXXXXXXXXXXXXXXXXXXXXXXXXXXXXX:,,,,,,,,,,,,;XXXXXXXXXXXX<<<",
"<<XXXXXXXXXXXXXXXXXXXXXXXXXXXXXXXX>,,,,,,,,,,,,;XXXXXXXXXXXXXX<<",
"<<XXXXXXXXXXXXX%@XXXXXXXXXXXXXXXX:,,,,,,,,,,,,;XXXXXXXXXXXXXXX<<",
"<<XXXXXXXXXXXX%,,@XXXXXXXXXXXXXX>,,,,,,,,,,,,;XXXXXXXXXXXXXXXX<<",
"<<XXXXXXXXXXX%,,,,@XXXXXXXXXXXX:,,,,,,,,,,,,;XXXXXXXXXXXXXXXXX<<",
"<<XXXXXXXXXX%,,,,,,@XXXXXXXXXX>,,,,,,,,,,,,;XXXXXXXXXXXXXXXXXX<<",
"<<XXXXXXXXX%,,,,,,,,@XXXXXXXX:,,,,,,,,,,,,;XXXXXXXXXXXXXXXXXXX<<",
"<<XXXXXXXX%,,,,,,,,,,@XXXXXX>,,,,,,,,,,,,;XXXXXXXXXXXXXXXXXXXX<<",
"<<XXXXXXX$,,,,,,,,,,,,@XXXX:,,,,,,,,,,,,;XXXXXXXXXXXXXXXXXXXXX<<",
"<<XXXXXXX=,,,,,,,,,,,,,@XX>,,,,,,,,,,,,;XXXXXXXXXXXXXXXXXXXXXX<<",
"<<+XXXXXXX=,,,,,,,,,,,,,#:,,,,,,,,,,,,;XXXXXXXXXXXXXXXXXXXXXX+<<",
"<<XXXXXXXXX=,,,,,,,,,,,,,,,,,,,,,,,,,;XXXXXXXXXXXXXXXXXXXXXXXX<<",
"<<oXXXXXXXXX=,,,,,,,,,,,,,,,,,,,,,,,;XXXXXXXXXXXXXXXXXXXXXXXXo<<",
"<<<XXXXXXXXXX=,,,,,,,,,,,,,,,,,,,,,;XXXXXXXXXXXXXXXXXXXXXXXXX<<<",
"<<<XXXXXXXXXXX=,,,,,,,,,,,,,,,,,,,;XXXXXXXXXXXXXXXXXXXXXXXXXX<<<",
"<<<XXXXXXXXXXXX=,,,,,,,,,,,,,,,,,;XXXXXXXXXXXXXXXXXXXXXXXXXXX<<<",
"<<<+XXXXXXXXXXXX=,,,,,,,,,,,,,,,;XXXXXXXXXXXXXXXXXXXXXXXXXXX+<<<",
"<<<<XXXXXXXXXXXXX=,,,,,,,,,,,,,;XXXXXXXXXXXXXXXXXXXXXXXXXXXX<<<<",
"<<<<XXXXXXXXXXXXXX=,,,,,,,,,,,;XXXXXXXXXXXXXXXXXXXXXXXXXXXXX<<<<",
"<<<<<XXXXXXXXXXXXXX=,,,,,,,,,;XXXXXXXXXXXXXXXXXXXXXXXXXXXXX<<<<<",
"<<<<<XXXXXXXXXXXXXXX=,,,,,,,;XXXXXXXXXXXXXXXXXXXXXXXXXXXXXX<<<<<",
"<<<<<<XXXXXXXXXXXXXXX=,,,,,;XXXXXXXXXXXXXXXXXXXXXXXXXXXXXX<<<<<<",
"<<<<<<XXXXXXXXXXXXXXXX=,,,;XXXXXXXXXXXXXXXXXXXXXXXXXXXXXXX<<<<<<",
"<<<<<<<XXXXXXXXXXXXXXXX=,;XXXXXXXXXXXXXXXXXXXXXXXXXXXXXXX<<<<<<<",
"<<<<<<<<XXXXXXXXXXXXXXXX&XXXXXXXXXXXXXXXXXXXXXXXXXXXXXXX<<<<<<<<",
"<<<<<<<<OXXXXXXXXXXXXXXXXXXXXXXXXXXXXXXXXXXXXXXXXXXXXXXO<<<<<<<<",
"<<<<<<<<<XXXXXXXXXXXXXXXXXXXXXXXXXXXXXXXXXXXXXXXXXXXXXX<<<<<<<<<",
"<<<<<<<<<<XXXXXXXXXXXXXXXXXXXXXXXXXXXXXXXXXXXXXXXXXXXX<<<<<<<<<<",
"<<<<<<<<<<<XXXXXXXXXXXXXXXXXXXXXXXXXXXXXXXXXXXXXXXXXX<<<<<<<<<<<",
"<<<<<<<<<<<<XXXXXXXXXXXXXXXXXXXXXXXXXXXXXXXXXXXXXXXX<<<<<<<<<<<<",
"<<<<<<<<<<<<<oXXXXXXXXXXXXXXXXXXXXXXXXXXXXXXXXXXXXo<<<<<<<<<<<<<",
"<<<<<<<<<<<<<<<XXXXXXXXXXXXXXXXXXXXXXXXXXXXXXXXXX<<<<<<<<<<<<<<<",
"<<<<<<<<<<<<<<<< XXXXXXXXXXXXXXXXXXXXXXXXXXXXXX <<<<<<<<<<<<<<<<",
"<<<<<<<<<<<<<<<<<<+XXXXXXXXXXXXXXXXXXXXXXXXXX+<<<<<<<<<<<<<<<<<<",
"<<<<<<<<<<<<<<<<<<<<.XXXXXXXXXXXXXXXXXXXXXX.<<<<<<<<<<<<<<<<<<<<",
"<<<<<<<<<<<<<<<<<<<<<<<+XXXXXXXXXXXXXXXX+<<<<<<<<<<<<<<<<<<<<<<<",
"<<<<<<<<<<<<<<<<<<<<<<<<<<<+XXXXXXXX+<<<<<<<<<<<<<<<<<<<<<<<<<<<",
"<<<<<<<<<<<<<<<<<<<<<<<<<<<<<<<<<<<<<<<<<<<<<<<<<<<<<<<<<<<<<<<<",
"<<<<<<<<<<<<<<<<<<<<<<<<<<<<<<<<<<<<<<<<<<<<<<<<<<<<<<<<<<<<<<<<"
};
