/* XPM */
static char *result[] = {
/* columns rows colors chars-per-pixel */
"64 64 190 2 ",
"   c #830E13",
".  c #820E14",
"X  c #891016",
"o  c #921115",
"O  c #911215",
"+  c #901116",
"@  c #911117",
"#  c #921317",
"$  c #9F1318",
"%  c #A71319",
"&  c #A41419",
"*  c #AB141A",
"=  c #AD151A",
"-  c #AC151B",
";  c #AE151A",
":  c #B1151B",
">  c #B5151B",
",  c #B5161C",
"<  c #BA161C",
"1  c #BB161C",
"2  c #BC161D",
"3  c #C3171E",
"4  c #C5171E",
"5  c #CA181F",
"6  c #D11920",
"7  c #D21920",
"8  c #D31920",
"9  c #D41920",
"0  c #D51920",
"q  c #D81921",
"w  c #DB1A21",
"e  c #DB1A22",
"r  c #DC1A21",
"t  c #DC1A22",
"y  c #DD1A22",
"u  c #DE1A22",
"i  c #DF1A22",
"p  c #E01B22",
"a  c #E11B22",
"s  c #E11B23",
"d  c #E21B22",
"f  c #E31B22",
"g  c #E31B23",
"h  c #E41B23",
"j  c #E51B23",
"k  c #E61B23",
"l  c #E71B23",
"z  c #E81B23",
"x  c #E91C23",
"c  c #E91C24",
"v  c #E81D25",
"b  c #EA1C24",
"n  c #EB1C24",
"m  c #EB1D25",
"M  c #EC1C24",
"N  c #ED1C24",
"B  c #EC1D25",
"V  c #ED1D25",
"C  c #ED1E26",
"Z  c #ED1F27",
"A  c #E01F28",
"S  c #E22028",
"D  c #E42128",
"F  c #E3262E",
"G  c #EB232B",
"H  c #ED2028",
"J  c #ED2129",
"K  c #ED222A",
"L  c #ED232A",
"P  c #EE232B",
"I  c #EE242C",
"U  c #EE252D",
"Y  c #EE262E",
"T  c #EE272E",
"R  c #EE272F",
"E  c #E72D34",
"W  c #EE2931",
"Q  c #EE2A31",
"!  c #EE2C33",
"~  c #EE2D35",
"^  c #EE2E36",
"/  c #E63138",
"(  c #E8343A",
")  c #E8343B",
"_  c #EF343B",
"`  c #E8353C",
"'  c #E8373E",
"]  c #EF343C",
"[  c #EF353C",
"{  c #EF373E",
"}  c #EA383F",
"|  c #EE3940",
" . c #EF3940",
".. c #EE3A41",
"X. c #EF3C43",
"o. c #F03F46",
"O. c #F04147",
"+. c #F0454C",
"@. c #F0474D",
"#. c #F0484E",
"$. c #ED4C52",
"%. c #F14B51",
"&. c #F14C52",
"*. c #F14D54",
"=. c #F15157",
"-. c #F15359",
";. c #F2555B",
":. c #F25A60",
">. c #F25C62",
",. c #F25F65",
"<. c #F26065",
"1. c #F26166",
"2. c #F2646A",
"3. c #F3666B",
"4. c #F3676C",
"5. c #F1686E",
"6. c #F3696F",
"7. c #F47378",
"8. c #F4797E",
"9. c #083F88",
"0. c #094088",
"q. c #094089",
"w. c #174B8F",
"e. c #235495",
"r. c #33619D",
"t. c #426CA4",
"y. c #4770A6",
"u. c #4E75AA",
"i. c #5178AB",
"p. c #557BAD",
"a. c #5A7FAF",
"s. c #F57C81",
"d. c #F47D81",
"f. c #5C80B0",
"g. c #5F83B2",
"h. c #6487B5",
"j. c #6B8CB7",
"k. c #7C99C0",
"l. c #F58185",
"z. c #F5888C",
"x. c #F68D91",
"c. c #F68F93",
"v. c #F69195",
"b. c #F69397",
"n. c #F7999C",
"m. c #F79B9E",
"M. c #F79DA0",
"N. c #F8A5A8",
"B. c #F8AAAD",
"V. c #F9AFB1",
"C. c #95ADCC",
"Z. c #ADBFD7",
"A. c #FBC8CA",
"S. c #FBCED0",
"D. c #FBD3D4",
"F. c #FCD3D5",
"G. c #FCD7D8",
"H. c #FCDCDD",
"J. c #C2D0E2",
"K. c #D2DCE9",
"L. c #D7E0EC",
"P. c #DBE3ED",
"I. c #FDE1E2",
"U. c #FDE5E6",
"Y. c #FDE7E8",
"T. c #FDE8E9",
"R. c #FDEAEB",
"E. c #FEEDEE",
"W. c #E0E7F0",
"Q. c #E3E9F1",
"!. c #EAEFF5",
"~. c #EDF1F6",
"^. c #EFF3F7",
"/. c #FEF0F0",
"(. c #FEF4F4",
"). c #F5F7FA",
"_. c #FEF8F8",
"`. c #FEF8F9",
"'. c #FFF9F9",
"]. c snow",
"[. c #F8FAFC",
"{. c #FFFBFC",
"}. c #FBFCFD",
"|. c #FFFCFC",
" X c #FFFDFD",
".X c #FDFEFE",
"XX c #FFFEFE",
"oX c #FEFEFF",
"OX c white",
"+X c None",
/* pixels */
"+X+X+X+X+X+X+X+X+X+X+X+X+X+X+X+X+X+X+X+X+X+X+X+X+X+X+X+X+X+X+X+X+X+X+X+X+X+X+X+X+X+X+X+X+X+X+X+X+X+X+X+X+X+X+X+X+X+X+X+X+X+X+X+X",
"+X+X+X+X+X+X+X+X+X+X+X+X+X+X+X+X+X+X+X+X+X+X+X+X+X+X+X+X+X+X+X+X+X+X+X+X+X+X+X+X+X+X+X+X+X+X+X+X+X+X+X+X+X+X+X+X+X+X+X+X+X+X+X+X",
"+X+X+X+X+X+X+X+X+X+X+X+X+X+X+X+X+X+X+X+X+X+X+X+X+X+X+X+X+X+X+X+X+X+X+X+X+X+X+X+X+X+X+X+X+X+X+X+X+X+X+X+X+X+X+X+X+X+X+X+X+X+X+X+X",
"+X+X+X+X+X+X+X+X+X+X+X+X+X+X+X+X+X+X+X+X+X+X+X+X+X/ 5.z.7.-.X._ _ X.-.7.z.5./ +X+X+X+X+X+X+X+X+X+X+X+X+X+X+X+X+X+X+X+X+X+X+X+X+X",
"+X+X+X+X+X+X+X+X+X+X+X+X+X+X+X+X+X+X+X+X+X+X` d.%.Z N N N N N N N N N N N N Z %.d.` +X+X+X+X+X+X+X+X+X+X+X+X+X+X+X+X+X+X+X+X+X+X",
"+X+X+X+X+X+X+X+X+X+X+X+X+X+X+X+X+X+X+X+X$.1.Z N N N N N N N N N N N N N N N N N N Z 1.$.+X+X+X+X+X+X+X+X+X+X+X+X+X+X+X+X+X+X+X+X",
"+X+X+X+X+X+X+X+X+X+X+X+X+X+X+X+X+X+X' :.V N N N N N N N N N N N N N N N N N N N N N N V :.' +X+X+X+X+X+X+X+X+X+X+X+X+X+X+X+X+X+X",
"+X+X+X+X+X+X+X+X+X+X+X+X+X+X+X+X+X2.J N N N N N N N N N N N N N N N N N N N N N N N N N N J 2.+X+X+X+X+X+X+X+X+X+X+X+X+X+X+X+X+X",
"+X+X+X+X+X+X+X+X+X+X+X+X+X+X+XF #.N N N N N N N N N N N N N N N N N N N N N N N N N N N N N N #.F +X+X+X+X+X+X+X+X+X+X+X+X+X+X+X",
"+X+X+X+X+X+X+X+X+X+X+X+X+X+X( ! N N N N N N N N N N N N N N N N N N N N N N N N N N N N N N N N ! ) +X+X+X+X+X+X+X+X+X+X+X+X+X+X",
"+X+X+X+X+X+X+X+X+X+X+X+X+X} P N N N N N N N N N N N N N N N N N N N N N N N N N N N N N N N N N N P } +X+X+X+X+X+X+X+X+X+X+X+X+X",
"+X+X+X+X+X+X+X+X+X+X+X+XE L N N N N N N N N N N N N N N N N N N N N N N N N N N N N N N N N N N N N L E +X+X+X+X+X+X+X+X+X+X+X+X",
"+X+X+X+X+X+X+X+X+X+X+XA R N N N N N N N N N N N N N N N N N N N N N N N N N N N N N N N N N N N N N N R A +X+X+X+X+X+X+X+X+X+X+X",
"+X+X+X+X+X+X+X+X+X+X7 [ N N N N N N N N N N N N N N N N N N N N N N N N N N N N N N N N N N N N N N N N ] 7 +X+X+X+X+X+X+X+X+X+X",
"+X+X+X+X+X+X+X+X+X+X..N N N N N N N N N N N N N N N N N N N N N N N N N N N N N N N N N N N N N N N N N N | +X+X+X+X+X+X+X+X+X+X",
"+X+X+X+X+X+X+X+X+XS C N N N N N N N N N N N N N N N N N N N N N N N N N N N N N N N N N N N N N N N N N N C S +X+X+X+X+X+X+X+X+X",
"+X+X+X+X+X+X+X+X+X^ N N N N N N N N N N N N N N N N N N N N N N N N N N N N N N N N N N N N N N N N N N N N ^ +X+X+X+X+X+X+X+X+X",
"+X+X+X+X+X+X+X+XD N N N N N N N N N N N N N N N N N N N N N N N N N N N N N N N N N N N N N N N N N N N N N N D +X+X+X+X+X+X+X+X",
"+X+X+X+X+X+X+X+XW N N N N N N N N N N N N N N N N N N N N N N N N N N N N N N N N N N N N N N N N N N N N N N W +X+X+X+X+X+X+X+X",
"+X+X+X+X+X+X+Xe N N N N N N N N N N N N N N N N @.x.m.6.I N N N N N N N N N N N N N N N N V =.b.n.<.H N N N N N e +X+X+X+X+X+X+X",
"+X+X+X+X+X+X+XG N N N N N N N N N N N N N N v.OXOXOXOXOXOXU.Y N N N N N N N N N N N N N V.OXOXOXOXOXOXF.Z N N N G +X+X+X+X+X+X+X",
"+X+X+X+X+X+X+XJ N N N N N N N N N N N N N I.OXOXOXOXOXOXOXOXOXo.N N N N N N N N N N V (.OXOXOXOXOXOXOXOXXXQ N N J +X+X+X+X+X+X+X",
"+X+X+X+X+X+X9 N N N N N N N N N N N N N A.OXOXOXOXOXOXOXOXOXOXOXK N N N N N N N N N T.OXOXOXOXOXOXOXOXOXOX XN N N 9 +X+X+X+X+X+X",
"+X+X+X+X+X+Xs N N N N N N N N N N N N [ OXOXOXOXOXOXOXQ.a.p.P.OXG.N N N N N N N N >.OXOXOXOXOXOXOXK.i.g.!.OXB.N N s +X+X+X+X+X+X",
"+X+X+X+X+X+Xv N N N N N N N N N N N N S.OXOXOXOXOXOXC.9.9.9.9.k.OXC N N N N N N N /.OXOXOXOXOXOXh.9.9.9.9.Z.OXN N v +X+X+X+X+X+X",
"+X+X+X+X+X+Xm N N N N N N N N N N N N  XOXOXOXOXOXoX9.9.9.9.9.9.}.+.N N N N N N N OXOXOXOXOXOX).9.9.9.9.9.9.OXR N m +X+X+X+X+X+X",
"+X+X+X+X+X+XB N N N N N N N N N N N N OXOXOXOXOXOX~.9.9.9.9.9.9.L.3.N N N N N N V OXOXOXOXOXOXJ.9.9.9.9.9.9.). .N B +X+X+X+X+X+X",
"+X+X+X+X+X+XN N N N N N N N N N N N N XXOXOXOXOXOX[.9.9.9.9.9.9.^.;.N N N N N N V OXOXOXOXOXOXW.9.9.9.9.9.9..X^ N N +X+X+X+X+X+X",
"+X+X+X+X+X+XN N N N N N N N N N N N N R.OXOXOXOXOXOXr.9.9.9.9.e.OXU N N N N N N N |.OXOXOXOXOXOXw.9.9.9.9.y.OXV N N +X+X+X+X+X+X",
"+X+X+X+X+X+XN N N N N N N N N N N N N 4.OXOXOXOXOXOXOXf.0.0.u.OX_.N N N N N N N N M.OXOXOXOXOXOXoXt.0.q.j.OXI.N N N +X+X+X+X+X+X",
"+X+X+X+X+X+XN N N N N N N N N N N N N N `.OXOXOXOXOXOXOXOXOXOXOX&.N N N N N N N N V XXOXOXOXOXOXOXOXOXOXOXOX~ N N N +X+X+X+X+X+X",
"+X+X+X+X+X+XN N N N N N N N N N N N N N W OXOXOXOXOXOXOXOXOXOXN.N N N N N N N N N N O.OXOXOXOXOXOXOXOXOXOX8.N N N N +X+X+X+X+X+X",
"+X+X+X+X+X+XN N N N N N N N N N N N N N N T (.OXOXOXOXOXOXOXl.N N N N N N N N N N N N { {.OXOXOXOXOXOXOX,.N N N N N +X+X+X+X+X+X",
"+X+X+X+X+X+XN N N N N N N N N N N N N N N N N *.D.'. XE.c.Z N N N N N N N N N N N N N N N ,.H.].|.Y.s.V N N N N N N +X+X+X+X+X+X",
"+X+X+X+X+X+XN N N N N N N N N N N N N N N N N N N N N N N N N N N N N N N N N N N N N N N N N N N N N N N N N N N N +X+X+X+X+X+X",
"+X+X+X+X+X+XN N N N N N N N N N N N N N N N N N N N N N N N N N N N N N N N N N N N N N N N N N N N N N N N N N N N +X+X+X+X+X+X",
"+X+X+X+X+X+XN N N N N N N N N N N N N N N N N N N N N N N N N N N N N N N N N N N N N N N N N N N N N N N N N N N N +X+X+X+X+X+X",
"+X+X+X+X+X+XN N N N N N N N N N N N N N N N N N N N N N N N N N N N N N N N N N N N N N N N N N N N N N N N N N N N +X+X+X+X+X+X",
"+X+X+X+X+X+XN N N N N N N N N N N N N N N N N N N N N N N N N N N N N N N N N N N N N N N N N N N N N N N N N N N N +X+X+X+X+X+X",
"+X+X+X+X+X+XN N N N N N N N N N N N N N N N N N N N N N N N N N N N N N N N N N N N N N N N N N N N N N N N N N N N +X+X+X+X+X+X",
"+X+X+X+X+X+XN N N N N N N N N N N N N N N N N N N N N N N N N N N N N N N N N N N N N N N N N N N N N N N N N N N N +X+X+X+X+X+X",
"+X+X+X+X+X+XN N N N N N N N N N N N N N N N N N N N N N N N N N N N N N N N N N N N N N N N N N N N N N N N N N N N +X+X+X+X+X+X",
"+X+X+X+X+X+XN N N N N N N N N N N N N N N N N N N N N N N N N N N N N N N N N N N N N N N N N N N N N N N N N N N N +X+X+X+X+X+X",
"+X+X+X+X+X+XN N N N N N N N N N N N N N N N N N N N N N N N N N N N N N N N N N N N N N N N N N N N N N N N N N N N +X+X+X+X+X+X",
"+X+X+X+X+X+XN N N N N N N N N N N N N N N N N N N N N N N N N N N N N N N N N N N N N N N N N N N N N N N N N N N N +X+X+X+X+X+X",
"+X+X+X+X+X+XN N N N N N N N N N N N N N N N N N N N N N N N N N N N N N N N N N N N N N N N N N N N N N N N N N N N +X+X+X+X+X+X",
"+X+X+X+X+X+XN N N N N N N N N N N N N N N N N N N N N N N N N N N N N N N N N N N N N N N N N N N N N N N N N N N N +X+X+X+X+X+X",
"+X+X+X+X+X+XN N N N N N N N N N N N N N N N N N N N N N N N N N N N N N N N N N N N N N N N N N N N N N N N N N N N +X+X+X+X+X+X",
"+X+X+X+X+X+XN N N N N N N N N N N N N N N N N N N N N N N N N N N N N N N N N N N N N N N N N N N N N N N N N N N N +X+X+X+X+X+X",
"+X+X+X+X+X+XN N N N N N N N N N N N N N N N N N N N N N N N N N N N N N N N N N N N N N N N N N N N N N N N N N N N +X+X+X+X+X+X",
"+X+X+X+X+X+XN N N N N N N N N N N N N N N N N N N N N N N N N N N N N N N N N N N N N N N N N N N N N N N N N N N N +X+X+X+X+X+X",
"+X+X+X+X+X+XN N N N N N N N N N N N N N N N N N N N N N N N N N N N N N N N N N N N N N N N N N N N N N N N N N N N +X+X+X+X+X+X",
"+X+X+X+X+X+XN N N N N N N N N N N N N N N N N N N N N N N N N N N N N N N N N N N N N N N N N N N N N N N N N N N N +X+X+X+X+X+X",
"+X+X+X+X+X+XN N N N N N N N N N N N N N N N N N N N N N N N N N N N N N N N N N N N N N N N N N N N N N N N N N N N +X+X+X+X+X+X",
"+X+X+X+X+X+XN N N N N N N N N c f n N N N N N N N N N N N N M h j M N N N N N N N N N N N N N n g b N N N N N N N N +X+X+X+X+X+X",
"+X+X+X+X+X+XM N N N N N N n 4 +X+X  t N N N N N N N N N N u o +X+X@ r N N N N N N N N N N N w . +X+X8 N N N N N N N +X+X+X+X+X+X",
"+X+X+X+X+X+XM N N N N N b - +X+X+X+X+Xu N N N N N N N N i +X+X+X+X+X+Xq N N N N N N N N N t +X+X+X+X+X5 N N N N N M +X+X+X+X+X+X",
"+X+X+X+X+X+Xn N N N N b % +X+X+X+X+X+X+Xz N N N N N N x X +X+X+X+X+X+X+Xa N N N N N N N j +X+X+X+X+X+X+X7 N N N N M +X+X+X+X+X+X",
"+X+X+X+X+X+Xk N N N n = +X+X+X+X+X+X+X+X: M N N N N N 1 +X+X+X+X+X+X+X+XO x N N N N N b $ +X+X+X+X+X+X+X+Xy N N N b +X+X+X+X+X+X",
"+X+X+X+X+X+X0 N N n , +X+X+X+X+X+X+X+X+X+X3 N N N N 9 +X+X+X+X+X+X+X+X+X+X; n N N N n : +X+X+X+X+X+X+X+X+X+Xh N N d +X+X+X+X+X+X",
"+X+X+X+X+X+X# h z > +X+X+X+X+X+X+X+X+X+X+X+X2 l b 6 +X+X+X+X+X+X+X+X+X+X+X+X* f n p & +X+X+X+X+X+X+X+X+X+X+X+ a c < +X+X+X+X+X+X",
"+X+X+X+X+X+X+X+X+X+X+X+X+X+X+X+X+X+X+X+X+X+X+X+X+X+X+X+X+X+X+X+X+X+X+X+X+X+X+X+X+X+X+X+X+X+X+X+X+X+X+X+X+X+X+X+X+X+X+X+X+X+X+X+X",
"+X+X+X+X+X+X+X+X+X+X+X+X+X+X+X+X+X+X+X+X+X+X+X+X+X+X+X+X+X+X+X+X+X+X+X+X+X+X+X+X+X+X+X+X+X+X+X+X+X+X+X+X+X+X+X+X+X+X+X+X+X+X+X+X",
"+X+X+X+X+X+X+X+X+X+X+X+X+X+X+X+X+X+X+X+X+X+X+X+X+X+X+X+X+X+X+X+X+X+X+X+X+X+X+X+X+X+X+X+X+X+X+X+X+X+X+X+X+X+X+X+X+X+X+X+X+X+X+X+X"
};
