/* XPM */
static char *result[] = {
/* columns rows colors chars-per-pixel */
"60 60 20 1 ",
"  c #7F007F",
". c red",
"X c #FF0F0F",
"o c #FF1B1B",
"O c #FF1D1D",
"+ c #FF1E1E",
"@ c #FF3939",
"# c #FF7F7F",
"$ c #780087",
"% c blue",
"& c #7F7FFF",
"* c #800080",
"= c #FF8080",
"- c #8080FF",
"; c #BFBFFF",
": c #FFC6C6",
"> c #FFE2E2",
", c #FFE4E4",
"< c white",
"1 c None",
/* pixels */
"111111111111111111111111111111111111111111111111111111111111",
"111111111111111111111111111111111111111111111111111111111111",
"111111111111111111111111111111111111111111111111111111111111",
"111111111111111111111111111111111111111111111111111111111111",
"1111111111111111111111................1111111111111111111111",
"1111111111111111111111................1111111111111111111111",
"1111111111111111111111................1111111111111111111111",
"111111111111111.1111.1................1.1111.111111111111111",
"111111111111111..............................111111111111111",
"111111111111111..............................111111111111111",
"111111111111111..............................111111111111111",
"11111111111......................................11111111111",
"11111111111......................................11111111111",
"11111111111......................................11111111111",
"11111111111......................................11111111111",
"1111111....><<<<<<>..............O<<<<<<<O...........1111111",
"11111111...><<<<<<>..............O<<<<<<<O..........11111111",
"11111111...><<<<<<>..............O<<<<<<<O..........11111111",
"1111111+OOO,<<<<<<,OOOX.......OOO@<<<<<<<@OOO........1111111",
"11111111<<<<<<<<<<<<<<#.......<<<<<<<<<<<<<<<.......11111111",
"1111111<<<<<<<<<<<<<<<=.......<<<<<<<<<<<<<<<........1111111",
"1111111<<<<<<<<<<<<<<<=.......<<<<<<<<<<<<<<<........1111111",
"1111111-&-&&---<<<<<<<=.......-&-&&--;<<<<<<<........1111111",
"11111111%%%%%%%<<<<<<<#.......%%%%%%%&<<<<<<<.......11111111",
"1111111%%%%%%%%<<<<<<<=.......%%%%%%%-<<<<<<<........1111111",
"11111111%%%%%%%<<<<<<<#.......%%%%%%%&<<<<<<<.......11111111",
"1111...$%%%%%%%<<<<<<<#.......%%%%%%%&<<<<<<<...........1111",
"1111...*%%%%%%%<<<<<<<=.......%%%%%%%-<<<<<<<...........1111",
"1111... %%%%%%%<<<<<<<#.......%%%%%%%&<<<<<<<...........1111",
"1111...*%%%%%%%<<<<<<<=.......%%%%%%%-<<<<<<<...........1111",
"1111.......><<<<<<>..............O<<<<<<<O..............1111",
"1111.......><<<<<<>..............O<<<<<<<O..............1111",
"1111.......><<<<<<>..............O<<<<<<<O..............1111",
"1111.......:>>>>>>:..............o>>>>>>>o..............1111",
"1111....................................................1111",
"1111....................................................1111",
"1111....................................................1111",
"1111....................................................1111",
"1111....................................................1111",
"1111....................................................1111",
"1111....................................................1111",
"1111....................................................1111",
"1111....................................................1111",
"1111....................................................1111",
"1111....................................................1111",
"1111....................................................1111",
"1111....................................................1111",
"1111....................................................1111",
"1111....................................................1111",
"1111...............111................111...............1111",
"1111...............111................111...............1111",
"1111...............111................111...............1111",
"11111.1.........1.111111.1........1..11111.1.........1.11111",
"11111111.......11111111111........11111111111.......11111111",
"1111111........11111111111........11111111111........1111111",
"1111111........11111111111........11111111111........1111111",
"111111111111111111111111111111111111111111111111111111111111",
"111111111111111111111111111111111111111111111111111111111111",
"111111111111111111111111111111111111111111111111111111111111",
"111111111111111111111111111111111111111111111111111111111111"
};
