/* XPM */
static char *result[] = {
/* columns rows colors chars-per-pixel */
"64 64 36 1 ",
"  c #246515",
". c #266A16",
"X c #2A6D17",
"o c #276C18",
"O c #2B6E19",
"+ c #306E1B",
"@ c #277314",
"# c #2C7117",
"$ c #2B7A16",
"% c #2E721A",
"& c #2F7A1B",
"* c #317417",
"= c #32751C",
"- c #38761E",
"; c #34791D",
": c #397B1E",
"> c #347621",
", c #397721",
"< c #367A21",
"1 c #3A7D21",
"2 c #2D8018",
"3 c #35831E",
"4 c #3B841F",
"5 c #3C8A1E",
"6 c #378120",
"7 c #3B8321",
"8 c #3D8A22",
"9 c #418223",
"0 c #428C23",
"q c #418C28",
"w c #489824",
"e c #469229",
"r c #4A932A",
"t c #4C992C",
"y c #509E2E",
"u c None",
/* pixels */
"uuuuuuuuuuuuuuuuuuuuuuuuuuuuuuuuuuuuuuuuuuuuuuuuuuuuuuuuuuuuuuuu",
"uuuuuuuuuuuuuuuuuuuuuuuuuuuuuuuuuuuuuuuuuuuuuuuuuuuuuuuuuuuuuuuu",
"uuuuuuuuuuuuuuuuuuuuuuuuuuuuuuuuuuuuuuuuuuuuuuuuuuuuuuuuuuuuuuuu",
"uuuuuuuuuuuuuuuuuuuuuuuuuuuuuuuuuuuuuuuuuuuuuuuuuuuuuuuuuuuuuuuu",
"uuuuuuuuuuuuuuuuuuuuuuuuuuuuuuuuuuuuuuuuuuuuuuuuuuuuuuuuuuuuuuuu",
"uuuuuuuuuuuuuuuuuuuuuuuuuuuuuuuuuuuuuuuuuuuuuuuuuuuuuuuuuuuuuuuu",
"uuuuuuuuuuuuuuuuuuuuuuuuuuuuuuuuuuuuuuuuuuuuuuuuuuuuuuuuuuuuuuuu",
"uuuuuuuuuuuuuuuuuuuuuuuuuuuuuuuuuuuuuuuuuuuuuuuuuuuuuuuuuuuuuuuu",
"uuuuuuuuuuuuuuuuuuuuuuuuuuuuuuuuuuuuuuuuuuuuuuuuuuuuuuuuuuuuuuuu",
"uuuuuuuuuuuuuuuuuuuuuuuuuuuuuuuuuuuuuuuuuuuuuuuuuuuuuuuuuuuuuuuu",
"uuuuuuuuuuuuuuuuuuuuuuuuuuuuuuuuuuuuuuuuuuuuuuuuuuuuuuuuuuuuuuuu",
"uuuuuuuuuuu0uuuuuuueyuuuuuuuuuuuuuutuuuwuuuuuuuuuuuuuuuuuuuuuuuu",
"uuuuuuuuuuu=:-;:<<%-6:::;1-==;;$;;:4;:;*%*34;;4:$<<;uuuuuuuuuuuu",
"uuuuuuuuuuu;===%=+X#=*==*,;=:;;===--*.#=*;*;=::*=+=$5uuuuuuuuuuu",
"uuuuuuuuuuu;=,=#XO*=====;===-%==#*=O--*==*=;:=*:;*O=5uuuuuuuuuuu",
"uuuuuuuuuuu-=*=%+OX+====-==%;OX==:-:9:;=:=--:=-==:190uuuuuuuuuuu",
"uuuuuuuuuuu;%#-=O-=+-9====O=-..%;1;::::=9:::-:;=$*49ruuuuuuuuuuu",
"uuuuuuuuuuu:%#O=O%==-::==*+*-=%==;;#=%%=-:,*:=X=X*:1uuuuuuuuuuuu",
"uuuuuuuuuuu%..X=1>=-X==+#*+=:-==;==%==;--*:::;=:+**=4uuuuuuuuuuu",
"uuuuuuuuuuu#X=*+=<-=#X#XX+=*%%==;;=-=-:::-**;;:=*:*X3uuuuuuuuuuu",
"uuuuuuuuuu53-==++1=O=%%..==%;%=%=;*=--==:;:=*=$.=+=*uuuuuuuuuuuu",
"uuuuuuuuuuu:===O,,;%+=%X$%:%#=%-<;;:---==*;=X==*:=;3uuuuuuuuuuuu",
"uuuuuuuuuuu;%O>#O,-<<;=-;=&##%O%;=*:==:::;*1=;=*$**38uuuuuuuuuuu",
"uuuuuuuuuuu;%O>%X-11>+1>=%%%;=+-=;:*$;=**=::=:1=#X#*8uuuuuuuuuuu",
"uuuuuuuuuu8=%#O%%%;;1==>O%%>O=O=;==#=%=;===*=--;;X#=0uuuuuuuuuuu",
"uuuuuuuuuuu;;;%#=-==;%%1=#;:O%XO;=#=;%::=X;:=;=;=:-*0uuuuuuuuuuu",
"uuuuuuuuuuu:%%6%+*=+=%#6-=:9:-<<:;;=;$::--:1=#*;=99:ruuuuuuuuuuu",
"uuuuuuuuuuu;#O;%=:==<%;;$#=1;=<<:;=%:*;=*;6<:;*&*49=0uuuuuuuuuuu",
"uuuuuuuuuuu%O%>;:7-=<;6<=#><;=;;-*==;#=:*;;;17:%=*;;0uuuuuuuuuuu",
"uuuuuuuuuuu$X%%$;--%;&;;<>&>;::;+$=;3$;;:%=%;66;###:tuuuuuuuuuuu",
"uuuuuuuuuuu:<<;;=%%%&@%>%%>&===%=;@%;;:;%1%#%=;%;<;;7uuuuuuuuuuu",
"uuuuuuuuuuu&%;<<%===;.O#&;<;;=##%<;;&:;=:<%#:<;%;;:;7uuuuuuuuuuu",
"uuuuuuuuuuu7%%>=O%O&&%o>;%%%=%;&:>>6=>&%%;%%&=<:;:;=5uuuuuuuuuuu",
"uuuuuuuuuuu6&<%%oOO<><%%#O%%%=<;%===&1<>%&;;=%<%%%%;uuuuuuuuuuuu",
"uuuuuuuuuuu>%>%%o%%<%&%>o#%%%%>>;<%%>>>&;:<1<<;>%O%;tuuuuuuuuuuu",
"uuuuuuuuuuu%ooO%&%<<o>>%Oo%>%O>&=>%o%=%&====;;%&%;%&0uuuuuuuuuuu",
"uuuuuuuuuuu<+%%%&%&<>OO>>&=&&<=O%==o%%;;<<=;%><%;%%;2uuuuuuuuuuu",
"uuuuuuuuuuu>O>>o%&%><%O&>>&><1<=%>=-<>%#<=%$%-<O%>=;3uuuuuuuuuuu",
"uuuuuuuuuuu>o>%Oo%O&&&%%>>>O%<&&=O%>%%o#;><&%%%X=>>;8uuuuuuuuuuu",
"uuuuuuuuuuu%%>O%oO>>O&==%OOooOOOXOO>>%oo%<=>;%X=1%=>euuuuuuuuuuu",
"uuuuuuuuuuu%%>O+%>,>>>>>>O%#%ooo%#%%O%%OOO=>%=O;;%;>uuuuuuuuuuuu",
"uuuuuuuuuuu=OoO%o>,>>>>+OO#O=%o%=%=>>>>+>==-;%O=%&>>7uuuuuuuuuuu",
"uuuuuuuuuuuOOooO>>>>O%o OO#%%o%>>&%%=o=O=,1-=oo%X%;#8uuuuuuuuuuu",
"uuuuuuuuuuu%O+%oo<%O=#o%%>X.ooO>%..O=O+++*=XX>%>%->#8uuuuuuuuuuu",
"uuuuuuuuuuu>+%>+O>>OOo%%o#Ooo oO%%%O>>>>==o.O%#%>O=Ouuuuuuuuuuuu",
"uuuuuuuuuuu>OOOOOOooO%o%oo%ooooO&=#%==O+==#O.O...OOO8uuuuuuuuuuu",
"uuuuuuuuuuu&%ooOO+oo=%oo .%Ooo.O=>%o+>oOO=#O#%oO@%>=8uuuuuuuuuuu",
"uuuuuuuuuuu&OOoOO+O><O>oOoo.oXO%==%oO>OO=O%%#%>O%%%>uuuuuuuuuuuu",
"uuuuuuuuuuuoo%OOO%%>>O+>%oo%>oo>=>oooOX%%#+OOOO%%o%%uuuuuuuuuuuu",
"uuuuuuuuuuu$O%OO=%OOOO&>% o>O o+=O%o%Oo$%%=>>>%>%OOO;uuuuuuuuuuu",
"uuuuuuuuuuu>%OOO%O.#>%O%XOO>>oO%>oO>>%O;<#O%><%==*==6uuuuuuuuuuu",
"uuuuuuuuuuu=O=&oX>O%,>O.OO==%o%>=%Oo%#=;=%%><%X.=+=Ouuuuuuuuuuuu",
"uuuuuuuuuuu1<&%o%;1=%$o%>%6;##%7111%$#;:=;>%;;;#====uuuuuuuuuuuu",
"uuuuuuuuuuuuu86u67u6&@$8uuuu66quuet833u89u68uuuu3307uuuuuuuuuuuu",
"uuuuuuuuuuuuuuuuuuuuuuuuuuuuuuuuuuuuuuuuuuuuuuuuuuuuuuuuuuuuuuuu",
"uuuuuuuuuuuuuuuuuuuuuuuuuuuuuuuuuuuuuuuuuuuuuuuuuuuuuuuuuuuuuuuu",
"uuuuuuuuuuuuuuuuuuuuuuuuuuuuuuuuuuuuuuuuuuuuuuuuuuuuuuuuuuuuuuuu",
"uuuuuuuuuuuuuuuuuuuuuuuuuuuuuuuuuuuuuuuuuuuuuuuuuuuuuuuuuuuuuuuu",
"uuuuuuuuuuuuuuuuuuuuuuuuuuuuuuuuuuuuuuuuuuuuuuuuuuuuuuuuuuuuuuuu",
"uuuuuuuuuuuuuuuuuuuuuuuuuuuuuuuuuuuuuuuuuuuuuuuuuuuuuuuuuuuuuuuu",
"uuuuuuuuuuuuuuuuuuuuuuuuuuuuuuuuuuuuuuuuuuuuuuuuuuuuuuuuuuuuuuuu",
"uuuuuuuuuuuuuuuuuuuuuuuuuuuuuuuuuuuuuuuuuuuuuuuuuuuuuuuuuuuuuuuu",
"uuuuuuuuuuuuuuuuuuuuuuuuuuuuuuuuuuuuuuuuuuuuuuuuuuuuuuuuuuuuuuuu",
"uuuuuuuuuuuuuuuuuuuuuuuuuuuuuuuuuuuuuuuuuuuuuuuuuuuuuuuuuuuuuuuu"
};
