/* XPM */
static char *result[] = {
/* columns rows colors chars-per-pixel */
"55 59 138 2 ",
"   c #0E0C04",
".  c #1B1707",
"X  c #1F1B08",
"o  c #251F00",
"O  c #221D0A",
"+  c #2D2300",
"@  c #27220B",
"#  c #2B250B",
"$  c #312700",
"%  c #352A00",
"&  c #3A2F00",
"*  c #322B0C",
"=  c #3C3100",
"-  c #3A310C",
";  c #372F11",
":  c #3A3212",
">  c #433500",
",  c #463800",
"<  c #4C3D02",
"1  c #41360C",
"2  c #453908",
"3  c #403613",
"4  c #443A11",
"5  c #4A3F12",
"6  c #554401",
"7  c #5B4A04",
"8  c #5F4F0A",
"9  c #4E441A",
"0  c #5C4E15",
"q  c #5B4E1B",
"w  c #655103",
"e  c #6A5500",
"r  c #6C5800",
"t  c #725C00",
"y  c #6C5B14",
"u  c #64551A",
"i  c #6C5C1D",
"p  c #7C6401",
"a  c #7A6308",
"s  c #7A6616",
"d  c #73621D",
"f  c #5C5022",
"g  c #6F6125",
"h  c #7A6A27",
"j  c #74652A",
"k  c #6C6134",
"l  c #816700",
"z  c #846B01",
"x  c #8A6E00",
"c  c #8C7000",
"v  c #977900",
"b  c #9B7C00",
"n  c #977C0E",
"m  c #9B7E0F",
"M  c #816A10",
"N  c #806B19",
"B  c #917812",
"V  c #806D24",
"C  c #857329",
"Z  c #9F8000",
"A  c #9D8214",
"S  c #A48300",
"D  c #A98700",
"F  c #AB8900",
"G  c #B08D00",
"H  c #B69100",
"J  c #BB9500",
"K  c #BF9900",
"L  c #B4930B",
"P  c #A68A16",
"I  c #AA8C16",
"U  c #B49416",
"Y  c #BA9A19",
"T  c #9E8629",
"R  c #BC9E29",
"E  c #A18C39",
"W  c #A99339",
"Q  c #BFA22D",
"!  c #BFA539",
"~  c #C49C00",
"^  c #C89F00",
"/  c #C7A005",
"(  c #CCA300",
")  c #CBA50D",
"_  c #D0A700",
"`  c #D5AA00",
"'  c #DAAE00",
"]  c #D6AD0D",
"[  c #DDB100",
"{  c #C5A214",
"}  c #CBA715",
"|  c #C9A61A",
" . c #D5B01A",
".. c #DFB718",
"X. c #E2B500",
"o. c #E7B900",
"O. c #EBBC00",
"+. c #E5BA0D",
"@. c #E4BA11",
"#. c #E3BA1A",
"$. c #CBAB2A",
"%. c #D3B53E",
"&. c #F4C300",
"*. c #F9C700",
"=. c #FECC02",
"-. c #FFCE0B",
";. c #EBC21B",
":. c #FFCF11",
">. c #FCCF19",
",. c #FFD014",
"<. c #FFD21B",
"1. c #E6C027",
"2. c #EEC625",
"3. c #F5CE2F",
"4. c #FFD324",
"5. c #FFD52B",
"6. c #EECA35",
"7. c #FFD633",
"8. c #FFD739",
"9. c #FFD83C",
"0. c #BBA342",
"q. c #D9BC4B",
"w. c #E6C540",
"e. c #EDCD4C",
"r. c #F7D343",
"t. c #FFDA43",
"y. c #F7D54B",
"u. c #FFDB4C",
"i. c #FFDD53",
"p. c #FFDF5B",
"a. c #FFDF60",
"s. c #FFE063",
"d. c #FFE26B",
"f. c #FFE373",
"g. c #FFE57B",
"h. c #AAA387",
"j. c #C9C2A9",
"k. c None",
/* pixels */
"k.k.k.k.k.k.k.k.k.k.k.k.k.k.k.k.k.k.k.k.k.k.k.k.2 M U  .#.;.;...| A 8 k.k.k.k.k.k.k.k.k.k.k.k.k.k.k.k.k.k.k.k.",
"k.k.k.k.k.k.k.k.k.k.k.k.k.k.k.k.k.k.k.k.2 Y 4.4.4.4.4.4.4.4.4.<.<.<.<.,.,.@.p k.k.k.k.k.k.k.k.k.k.k.k.k.k.k.k.",
"k.k.k.k.k.k.k.k.k.k.k.k.k.k.k.k.k.k.I 4.4.5.5.5.5.5.4.5.5.5.4.4.4.<.<.<.<.<.,.,.@.6 k.k.k.k.k.k.k.k.k.k.k.k.k.",
"k.k.k.k.k.k.k.k.k.k.k.k.k.k.k.k.| 4.5.5.5.5.5.5.5.7.5.7.5.5.5.5.5.5.4.4.<.<.<.,.:.:.-.w k.k.k.k.k.k.k.k.k.k.k.",
"k.k.k.k.k.k.k.k.k.k.k.k.k.k.I 4.5.4.5.5.5.7.7.7.7.7.7.7.7.7.7.5.5.5.4.4.4.4.<.<.>.:.-.-.&.% k.k.k.k.k.k.k.k.k.",
"k.k.k.k.k.k.k.k.k.k.k.k.1 4.4.5.5.5.7.7.7.7.7.8.8.8.8.8.7.7.7.7.7.7.5.5.4.4.<.<.<.,.,.-.-.-.D k.k.k.k.k.k.k.k.",
"k.k.k.k.k.k.k.k.k.k.k.B 4.4.5.5.7.7.7.8.8.8.9.8.9.9.9.9.9.8.8.8.7.7.7.5.5.4.4.4.<.<.:.,.-.-.=.&.k.k.k.k.k.k.k.",
"k.k.k.k.k.k.k.k.k.k.| 4.4.4.5.7.7.7.8.8.9.t.t.t.t.u.t.t.t.t.9.9.8.8.7.7.7.5.5.4.4.<.<.,.:.-.-.=.=.& k.k.k.k.k.",
"k.k.k.k.k.k.k.k.k...4.4.5.5.7.7.8.8.8.9.9.t.t.u.t.u.u.u.t.t.t.9.9.9.8.7.7.7.5.4.4.<.<.<.,.-.-.=.=.=.< k.k.k.k.",
"k.k.k.k.k.k.k.k.#.<.4.5.5.5.7.7.9.9.t.t.u.u.u.u.u.u.u.u.u.u.u.u.t.t.9.6.7.7.7.5.5.4.<.<.,.:.-.-.=.=.*., k.k.k.",
"k.k.k.k.k.k.k.} <.4.4.5.7.7.8.9.9.t.t.u.u.u.u.u.u.u.i.u.u.u.u.u.t.u d i 0 - 3.5.5.4.<.<.<.:.:.-.=.=.*.&.k.k.k.",
"k.k.k.k.k.k.n <.<.4.5.7.7.7.8.9.9.u.u.u.i.u.i.i.p.p.p.i.i.i.u.u.0 V j f 4 - * 5.5.4.4.<.<.,.:.-.=.=.=.*.&.k.k.",
"k.k.k.k.k.2 <.<.4.4.5.7.7.8.9.t.u.u.u.u.u.p.p.p.p.p.p.p.p.p.i.e.C j.k 2 * # * s 5.5.5.<.<.<.:.-.-.=.=.*.&.( k.",
"k.k.k.k.k.,.<.<.4.5.5.7.8.8.9.t.u.u.u.i.p.p.p.p.a.s.a.s.a.p.p.W h h.9 * O . # - 5.5.5.4.<.<.,.-.-.-.=.*.&.&.e ",
"k.k.k.k.L <.<.4.4.5.5.7.8.9.t.t.u.i.i.p.p.a.s.s.s.s.s.s.s.a.p.0.g f : @     @ - 5.5.5.<.<.<.,.:.-.=.=.=.&.F k.",
"k.k.k.k.:.<.<.4.5.5.7.7.8.t.t.u.u.u.i.p.a.s.s.s.d.d.d.d.s.s.a.p.f 9 ; X   . * Q 7.5.5.5.<.<.<.:.-.-.=.&.& k.k.",
"k.k.k.] :.<.<.4.5.5.7.8.8.t.t.u.u.i.p.p.s.s.d.d.f.d.d.f.d.s.s.s.E 9 ; @ O # 1 8.7.7.5.4.4.<.,.:.-.-.x k.k.k.k.",
"k.k.k.-.:.>.4.4.5.5.7.8.9.9.t.u.i.p.p.p.s.d.d.d.f.f.f.f.d.d.s.s.p.q.: @ # T t.9.7.7.5.4.4.<.<.,.] k.k.k.k.k.k.",
"k.k.L :.<.<.<.4.4.5.7.8.9.t.u.u.u.p.p.a.s.d.d.f.g.g.g.f.f.d.d.s.p.p.i.u.u.t.t.8.7.7.5.5.4.<.<.7 k.k.k.k.k.k.k.",
"k.k.-.:.:.<.4.4.5.7.7.8.9.t.t.u.i.i.p.a.s.d.f.f.g.g.g.g.f.d.s.s.p.p.i.i.u.u.9.9.7.7.5.4.4.I k.k.k.k.k.k.k.k.k.",
"k.6 -.:.,.<.<.4.5.7.7.7.9.t.u.u.u.p.p.a.s.s.f.f.g.g.g.f.f.d.d.s.p.p.i.u.u.t.t.8.8.7.5.2.k.k.k.k.k.k.k.k.k.k.k.",
"k./ -.:.,.,.4.4.4.5.7.8.8.t.u.u.i.i.p.a.s.d.d.f.f.g.f.f.d.d.s.s.p.p.i.i.u.t.t.8.7.7.s k.k.k.k.k.k.k.k.k.k.k.k.",
"k.-.-.:.,.<.<.4.5.5.7.7.8.t.t.u.u.p.p.p.s.s.d.d.f.f.f.f.d.d.s.s.p.i.i.u.t.t.t.8.$.k.k.k.k.k.k.k.k.k.k.k.k.k.k.",
"k.=.-.-.,.<.4.4.4.5.7.8.9.t.9.u.u.i.i.p.a.s.s.d.d.d.d.d.s.s.s.a.p.i.i.u.t.t.9.5 k.k.k.k.k.k.k.k.k.k.k.k.k.k.k.",
"< =.-.-.,.<.<.<.4.5.7.7.9.9.t.u.u.i.i.p.p.a.s.s.s.d.s.s.s.s.p.p.i.i.u.u.t.T k.k.k.k.k.k.k.k.k.k.k.k.k.k.k.k.k.",
"x =.-.-.:.,.<.4.4.5.5.7.7.9.9.u.u.u.u.i.i.p.a.s.s.s.a.a.s.a.p.p.i.i.u.w.k.k.k.k.k.k.k.k.k.k.k.k.k.k.k.k.k.k.k.",
"J =.=.-.:.,.<.<.4.5.5.7.7.9.9.t.u.u.u.i.i.p.p.p.a.p.p.p.p.p.i.i.i.u.i k.k.k.k.k.k.k.k.k.k.k.k.k.k.k.k.k.k.k.k.",
"` =.-.-.-.,.<.<.<.4.5.7.7.9.9.9.t.t.u.u.i.i.p.i.p.p.p.p.i.i.i.u.! k.k.k.k.k.k.k.k.k.k.k.k.k.k.k.k.k.k.k.k.k.k.",
"X.=.=.-.-.:.<.<.<.4.4.5.7.7.8.9.9.t.u.u.u.u.i.i.i.i.i.i.i.u.y.4 k.k.k.k.k.k.k.k.k.k.k.k.k.k.k.k.k.k.k.k.k.k.k.",
"o.=.=.-.-.:.,.,.<.4.5.4.5.7.7.8.8.t.t.t.u.u.u.u.u.i.u.u.u.%.k.k.k.k.k.k.k.k.k.k.k.k.k.k.k.k.k.k.k.k.k.k.k.k.k.",
"[ *.=.=.-.-.:.,.<.<.4.4.5.5.7.7.8.9.9.9.t.t.t.u.u.u.u.u.u.t.r.4 k.k.k.k.k.k.k.k.k.k.k.k.k.k.k.k.k.k.k.k.k.k.k.",
"_ *.=.=.=.-.:.,.<.<.<.4.5.5.5.7.7.8.9.9.9.t.t.t.t.t.t.t.t.t.9.t.$.k.k.k.k.k.k.k.k.k.k.k.k.k.k.k.k.k.k.k.k.k.k.",
"F &.*.=.=.-.-.:.,.<.<.<.4.5.5.5.5.7.8.8.8.9.9.9.9.9.t.9.9.9.9.9.7.9.y k.k.k.k.k.k.k.k.k.k.k.k.k.k.k.k.k.k.k.k.",
"z &.*.=.=.=.-.-.:.,.<.<.<.4.5.5.5.5.7.7.7.8.8.8.9.9.9.9.9.9.7.7.7.5.7.2.k.k.k.k.k.k.k.k.k.k.k.k.k.k.k.k.k.k.k.",
", &.&.*.=.=.=.-.-.:.,.<.<.4.<.5.5.5.5.5.7.7.7.7.7.7.8.7.9.7.7.5.5.5.5.4.4.A k.k.k.k.k.k.k.k.k.k.k.k.k.k.k.k.k.",
"k.O.&.&.*.=.-.=.-.:.:.,.<.<.<.<.4.5.5.5.5.5.7.7.7.7.7.7.5.5.5.5.5.5.4.4.4.<.<.6 k.k.k.k.k.k.k.k.k.k.k.k.k.k.k.",
"k.O.O.&.&.=.=.=.=.-.-.:.<.<.<.<.<.4.4.5.5.5.5.5.5.5.5.5.5.5.5.4.4.4.4.<.<.<.,.,.) k.k.k.k.k.k.k.k.k.k.k.k.k.k.",
"k.H O.&.&.&.=.=.=.-.-.-.:.:.,.<.<.<.<.4.<.4.4.5.4.4.4.4.4.4.4.4.4.<.<.<.,.,.,.-.-.-.p k.k.k.k.k.k.k.k.k.k.k.k.",
"k.< o.O.&.&.&.*.=.=.-.-.-.-.:.,.<.<.<.<.<.<.<.4.4.4.4.4.4.<.4.<.<.<.,.,.,.,.-.-.-.=.=.&.k.k.k.k.k.k.k.k.k.k.k.",
"k.k.X.o.O.&.&.*.=.=.=.=.-.-.-.:.,.,.,.,.<.<.<.<.<.<.<.<.<.<.<.,.,.,.,.,.,.-.-.-.=.=.=.*.*.S k.k.k.k.k.k.k.k.k.",
"k.k.S o.o.O.&.&.*.=.=.=.=.-.-.-.-.:.:.,.,.,.,.,.,.<.,.<.,.,.,.,.,.:.:.-.-.-.=.=.=.=.&.&.&.O.O.6 k.k.k.k.k.k.k.",
"k.k.k.[ o.o.o.&.&.&.*.*.=.=.=.=.-.-.-.-.:.:.:.:.:.:.:.,.,.:.:.:.-.-.-.-.=.=.=.=.*.*.&.&.&.o.X.X.K k.k.k.k.k.k.",
"k.k.k.J [ o.o.O.&.&.&.&.*.=.=.=.=.-.-.-.-.-.-.-.-.-.:.-.:.-.:.-.-.-.=.=.=.=.=.*.&.&.&.O.O.X.X.[ ' ` r k.k.k.k.",
"k.k.k.k.[ [ o.o.o.&.&.&.&.*.=.=.=.=.=.=.=.=.-.-.-.-.=.-.-.=.=.=.=.=.=.=.=.*.&.&.&.&.O.o.X.X.X.' ' ` _ ~ + k.k.",
"k.k.k.k.b [ [ X.o.o.o.&.&.&.&.&.*.*.=.=.=.=.=.=.=.=.=.=.=.=.=.=.=.=.*.*.&.&.&.&.&.o.o.X.X.X.' ` ` _ ( ( ~ x k.",
"k.k.k.k.k.` [ [ X.X.o.O.O.&.&.&.&.&.*.*.*.=.=.=.=.=.=.=.=.=.=.*.*.*.&.&.&.&.O.O.o.o.X.X.[ ' ` ` ( ( ( ~ ~ K 6 ",
"k.k.k.k.k.= ` [ [ [ X.o.o.O.O.O.&.&.&.&.&.*.&.&.*.&.=.*.*.&.*.&.&.&.&.&.O.O.o.X.X.X.[ [ ' ` ` ( ( ( ~ ~ J b k.",
"k.k.k.k.k.k.p ` ` [ [ [ X.o.o.o.o.o.&.O.&.&.&.&.&.&.&.&.O.&.&.O.O.O.O.O.o.o.o.X.[ [ ' ` ` ` ( ( ~ ~ K K H k.k.",
"k.k.k.k.k.k.k.D ` ` ' [ [ [ X.X.X.o.o.O.O.O.O.O.O.O.O.&.O.O.O.O.o.o.o.o.X.[ [ [ ' ' ` ` _ ( ( ~ ~ ~ K H k.k.k.",
"k.k.k.k.k.k.k.k.H _ ` ` ' [ [ [ X.X.X.X.o.o.o.o.o.o.o.o.o.o.o.X.o.X.X.[ [ [ ' ' ` ` _ ( ( ^ ~ ~ ~ H H % k.k.k.",
"k.k.k.k.k.k.k.k.k.H ( ` ` ` ' ' ' [ [ [ X.X.X.X.X.X.X.X.X.X.[ X.[ [ [ [ ' ` ` ` _ ( ( ( ~ ~ ~ ~ H H & k.k.k.k.",
"k.k.k.k.k.k.k.k.k.k.S ( ( _ ` ` ` ' ' ' ' ' [ [ [ [ [ [ [ [ ' ' [ ` ` ` ` ` _ ( ( ( ~ ~ ~ ~ H H H + k.k.k.k.k.",
"k.k.k.k.k.k.k.k.k.k.k.t ( ( ( ( ` ` ` ` ` ` ' ` ' ` ' ' ` ` ` ` ` ` ` _ ( ( ( ( ~ ~ ~ ~ K J J D k.k.k.k.k.k.k.",
"k.k.k.k.k.k.k.k.k.k.k.k.% ~ ( ( ( ( ( ( _ _ _ ` ` ` _ _ ` ` _ _ _ ( ( ( ( / ~ ~ ~ K K H H H t k.k.k.k.k.k.k.k.",
"k.k.k.k.k.k.k.k.k.k.k.k.k.k.l ~ ~ ( ( ( ( ( ( ( ( ( ( ( ( ( ( ( ( ~ ~ ~ ~ ~ ~ K K J H H D + k.k.k.k.k.k.k.k.k.",
"k.k.k.k.k.k.k.k.k.k.k.k.k.k.k.k.v ~ ~ ~ ~ ^ ~ ^ ^ ~ ( ( ~ ^ ~ ~ ~ ~ K ~ K K J J J H G , k.k.k.k.k.k.k.k.k.k.k.",
"k.k.k.k.k.k.k.k.k.k.k.k.k.k.k.k.k.k.p ~ K ~ K ~ ~ ~ ~ ~ ~ ~ K K ~ K K J J H H H S = k.k.k.k.k.k.k.k.k.k.k.k.k.",
"k.k.k.k.k.k.k.k.k.k.k.k.k.k.k.k.k.k.k.k.% x H K J J J J J J J J H J H H G S 6 k.k.k.k.k.k.k.k.k.k.k.k.k.k.k.k.",
"k.k.k.k.k.k.k.k.k.k.k.k.k.k.k.k.k.k.k.k.k.k.k.k.% 7 l v D D D b c r > k.k.k.k.k.k.k.k.k.k.k.k.k.k.k.k.k.k.k.k."
};
