/* XPM */
static char *result[] = {
/* columns rows colors chars-per-pixel */
"64 69 147 2 ",
"   c #090702",
".  c #100D04",
"X  c #141106",
"o  c #1B1500",
"O  c #1F1904",
"+  c #1E1A08",
"@  c #231D02",
"#  c #241E09",
"$  c #252002",
"%  c #2B2301",
"&  c #26210A",
"*  c #29230C",
"=  c #2F280C",
"-  c #322700",
";  c #352A03",
":  c #322B0D",
">  c #382F08",
",  c #3D3101",
"<  c #3E350D",
"1  c #332C11",
"2  c #3C3412",
"3  c #423502",
"4  c #463906",
"5  c #4B3D02",
"6  c #41370E",
"7  c #4D3F09",
"8  c #453B15",
"9  c #493D11",
"0  c #524200",
"q  c #5E4C00",
"w  c #564708",
"e  c #4E441A",
"r  c #524613",
"t  c #554917",
"y  c #5A4C14",
"u  c #574B1B",
"i  c #584D1E",
"p  c #5D501F",
"a  c #624E00",
"s  c #6B5600",
"d  c #725C01",
"f  c #645517",
"g  c #695610",
"h  c #6C5A11",
"j  c #65571C",
"k  c #69591C",
"l  c #7E6500",
"z  c #74631D",
"x  c #655823",
"c  c #756420",
"v  c #786620",
"b  c #7C6A22",
"n  c #7C6B29",
"m  c #726533",
"M  c #786B37",
"N  c #706539",
"B  c #816700",
"V  c #846A00",
"C  c #8E7200",
"Z  c #8C730E",
"A  c #937600",
"S  c #9E7E00",
"D  c #967C0E",
"F  c #826B10",
"G  c #846F1A",
"H  c #8C7312",
"J  c #9A7F15",
"K  c #877427",
"L  c #82712A",
"P  c #8B792F",
"I  c #937D23",
"U  c #927E2C",
"Y  c #9D8111",
"T  c #A48301",
"R  c #A98700",
"E  c #AD8A00",
"W  c #A3850C",
"Q  c #AE8E0D",
"!  c #B38F00",
"~  c #B69100",
"^  c #BB9500",
"/  c #BF9800",
"(  c #B5930B",
")  c #AA8C16",
"_  c #AF9116",
"`  c #B69513",
"'  c #99832D",
"]  c #A68B20",
"[  c #C39C00",
"{  c #C6A007",
"}  c #CBA300",
"|  c #CBA40B",
" . c #D1A700",
".. c #D4AA00",
"X. c #DAAE00",
"o. c #DEB100",
"O. c #DEB40C",
"+. c #C9A514",
"@. c #C7A418",
"#. c #CDA919",
"$. c #D1AC16",
"%. c #DDB61C",
"&. c #E3B500",
"*. c #E6B800",
"=. c #EBBC00",
"-. c #E1B70F",
";. c #E5BD1B",
":. c #C4A425",
">. c #C1A637",
",. c #EFC001",
"<. c #EEC10C",
"1. c #F4C300",
"2. c #F9C700",
"3. c #FECC02",
"4. c #F2C409",
"5. c #FFCE0C",
"6. c #ECC31A",
"7. c #F4C714",
"8. c #FFCF11",
"9. c #FFD014",
"0. c #FFD21C",
"q. c #EBC221",
"w. c #FFD324",
"e. c #FFD52B",
"r. c #EEC830",
"t. c #E6C43D",
"y. c #F4CD30",
"u. c #FFD633",
"i. c #F7D23E",
"p. c #FFD738",
"a. c #FFD83C",
"s. c #938758",
"d. c #E4C445",
"f. c #EDCE4F",
"g. c #FFDA43",
"h. c #F9D64B",
"j. c #FFDB4C",
"k. c #E5C850",
"l. c #FFDD54",
"z. c #FFDF5C",
"x. c #FFDF60",
"c. c #FFE064",
"v. c #FFE26B",
"b. c #FFE373",
"n. c #FFE57A",
"m. c #D8D5C6",
"M. c None",
/* pixels */
"M.M.M.M.M.M.M.M.M.M.M.M.M.M.M.M.M.M.M.M.M.M.M.M.M.M.M.M.M.0 F _ #.%.;.%.$.` H w M.M.M.M.M.M.M.M.M.M.M.M.M.M.M.M.M.M.M.M.M.M.M.M.",
"M.M.M.M.M.M.M.M.M.M.M.M.M.M.M.M.M.M.M.M.M.M.M.M.# H 6.w.w.w.w.w.w.w.0.w.0.0.0.0.9.0.7.W ; M.M.M.M.M.M.M.M.M.M.M.M.M.M.M.M.M.M.M.",
"M.M.M.M.M.M.M.M.M.M.M.M.M.M.M.M.M.M.M.M.M.M.Y w.w.w.e.w.w.e.e.w.e.w.w.w.w.w.w.0.0.0.0.9.9.9.( $ M.M.M.M.M.M.M.M.M.M.M.M.M.M.M.M.",
"M.M.M.M.M.M.M.M.M.M.M.M.M.M.M.M.M.M.M.= %.w.e.e.e.e.e.e.e.e.e.e.e.e.e.e.w.w.w.w.w.0.0.0.9.9.9.8.<.0 M.M.M.M.M.M.M.M.M.M.M.M.M.M.",
"M.M.M.M.M.M.M.M.M.M.M.M.M.M.M.M.M.$ %.w.w.e.e.e.e.u.u.u.e.u.e.u.e.u.e.e.e.e.e.w.w.w.w.0.0.9.9.9.9.5.4., M.M.M.M.M.M.M.M.M.M.M.M.",
"M.M.M.M.M.M.M.M.M.M.M.M.M.M.M.M._ w.w.e.e.e.e.u.u.u.u.u.u.p.p.p.p.u.u.u.u.e.e.e.w.w.w.0.0.0.0.9.9.5.5.5. .M.M.M.M.M.M.M.M.M.M.M.",
"M.M.M.M.M.M.M.M.M.M.M.M.M.M.> w.w.e.e.e.e.u.u.u.u.u.p.p.p.p.p.a.p.p.p.p.u.u.u.e.e.e.w.w.w.0.0.9.9.9.5.5.5.3.a M.M.M.M.M.M.M.M.M.",
"M.M.M.M.M.M.M.M.M.M.M.M.M.Z w.w.e.e.e.e.u.u.p.p.p.p.a.a.a.a.a.a.a.p.p.p.u.p.u.u.u.e.e.e.w.w.w.0.0.9.9.5.5.5.3.^ M.M.M.M.M.M.M.M.",
"M.M.M.M.M.M.M.M.M.M.M.M.@.w.w.w.e.e.u.u.u.p.p.a.a.a.a.g.g.g.g.a.g.g.a.a.p.p.p.p.u.e.u.e.e.w.w.0.0.9.9.9.8.5.5.3.=.M.M.M.M.M.M.M.",
"M.M.M.M.M.M.M.M.M.M.M.;.w.w.e.e.e.u.u.u.a.a.a.g.g.g.g.g.g.g.g.g.g.g.g.g.g.a.a.p.p.u.u.e.e.w.w.0.0.0.9.9.8.5.3.3.3.1.M.M.M.M.M.M.",
"M.M.M.M.M.M.M.M.M.M.6.w.w.e.e.e.u.u.p.p.a.a.g.g.g.j.j.j.j.j.j.j.j.j.g.g.g.g.g.a.a.p.u.u.u.e.e.w.0.0.9.9.8.5.5.3.3.3.2.M.M.M.M.M.",
"M.M.M.M.M.M.M.M.M.;.0.w.w.e.e.e.u.p.a.p.g.g.g.g.j.j.j.j.j.j.l.j.j.j.j.j.g.g.g.i.I p J u.e.e.e.w.w.w.0.9.9.8.5.3.3.3.2.1.M.M.M.M.",
"M.M.M.M.M.M.M.M.+.0.w.w.e.e.e.u.u.a.a.g.g.g.j.j.j.j.j.l.l.l.l.l.j.l.j.j.j.j.b v z f y 9 G e.e.e.w.w.0.9.9.9.5.5.3.3.2.2.*.M.M.M.",
"M.M.M.M.M.M.M.Z 0.0.w.w.e.e.u.u.p.p.g.g.j.g.j.j.l.l.l.l.l.z.l.l.l.l.l.l.j.' K c M t 9 < < ] e.e.w.w.0.0.9.9.5.5.5.3.3.2.1./ M.M.",
"M.M.M.M.M.M., 0.0.w.w.e.e.e.p.p.p.g.g.j.j.j.j.l.l.l.z.z.z.z.z.z.z.z.l.l.l.j n m.u 8 > = = & e.e.e.w.w.0.0.9.5.5.5.3.3.3.1.1.s M.",
"M.M.M.M.M.M.8.0.0.w.w.e.u.u.p.p.a.g.g.g.j.j.l.l.z.z.z.z.z.z.c.z.z.z.z.l.f.L s.N 8 = & + & : y.e.e.w.w.0.0.9.9.5.5.3.3.3.1.1.,.M.",
"M.M.M.M.M.Q 9.0.0.w.w.e.u.u.u.a.g.g.g.j.j.l.l.z.z.c.z.c.c.c.c.c.c.c.x.z.k.n N e 2 & X . + > r.u.e.e.w.0.0.9.9.5.5.3.5.3.2.1.=., ",
"M.M.M.M.# 9.0.0.w.w.e.e.u.u.a.a.g.g.j.j.l.l.l.z.z.z.c.v.v.c.v.c.c.c.c.x.z.x p e = +   X & = u.e.e.e.w.w.0.9.9.9.5.5.3.2.2.S M.M.",
"M.M.M.M.-.9.9.0.w.w.e.e.u.p.a.a.g.g.j.j.l.z.z.z.c.c.c.v.v.v.v.v.v.c.c.x.z.e i 2 = + X + = r p.u.e.e.w.w.0.0.9.9.5.3.3.=.@ M.M.M.",
"M.M.M.; 9.9.0.0.w.e.e.e.u.u.a.g.g.j.j.l.l.l.z.c.c.c.b.c.b.b.b.v.v.v.v.x.x.z.1 8 1 * & = * a.p.u.e.e.w.w.0.0.9.9.5.5.l M.M.M.M.M.",
"M.M.M.O.9.9.0.0.w.w.e.u.u.p.p.g.g.j.j.l.l.z.z.c.c.v.b.b.b.b.b.b.b.v.v.c.c.z.z.P & & # U g.p.p.u.u.e.w.w.0.0.9.9.| M.M.M.M.M.M.M.",
"M.M.M.5.9.9.0.w.w.w.e.u.u.p.a.g.g.j.j.l.l.z.z.c.c.v.b.b.n.n.n.n.b.b.v.v.c.z.z.l.l.l.j.g.g.a.p.p.u.e.e.w.w.0.9.4 M.M.M.M.M.M.M.M.",
"M.M.T 5.9.0.0.0.w.e.e.u.u.a.a.g.g.j.j.l.l.z.c.c.v.b.b.b.n.n.n.n.b.b.v.v.c.c.z.l.l.j.j.g.g.a.p.p.e.e.e.w.0.Y M.M.M.M.M.M.M.M.M.M.",
"M.M.5.5.9.9.0.0.w.e.e.u.u.p.a.g.g.j.l.l.l.z.c.c.c.v.b.b.n.n.n.n.b.b.v.c.c.c.z.l.l.j.j.g.g.p.p.u.u.e.w.q.M.M.M.M.M.M.M.M.M.M.M.M.",
"M.& 5.5.9.9.0.0.w.e.e.u.u.p.a.g.g.j.j.l.l.z.z.c.v.v.b.b.b.n.n.n.b.b.v.v.c.x.z.l.l.j.j.g.g.a.p.p.u.e.h M.M.M.M.M.M.M.M.M.M.M.M.M.",
"M.A 5.5.9.9.0.0.w.w.e.e.u.p.a.g.g.j.j.l.l.z.c.c.c.v.v.b.b.b.b.b.b.b.v.c.c.z.z.z.l.j.j.g.g.a.p.u.:.M.M.M.M.M.M.M.M.M.M.M.M.M.M.M.",
"M.,.5.5.9.9.0.0.w.e.e.u.u.p.p.g.g.j.j.l.l.z.z.c.c.v.v.b.b.b.b.b.v.v.c.c.z.z.l.l.j.j.j.g.a.p.u.6 M.M.M.M.M.M.M.M.M.M.M.M.M.M.M.M.",
"M.3.5.5.5.9.0.0.w.w.e.e.u.p.p.g.g.g.j.j.l.l.z.z.z.c.c.v.v.v.v.b.v.v.c.c.z.z.z.l.l.j.g.g.g.' M.M.M.M.M.M.M.M.M.M.M.M.M.M.M.M.M.M.",
"M.3.3.5.9.9.0.0.0.w.e.e.u.p.p.a.g.g.j.j.l.l.z.z.c.c.v.c.v.v.c.v.c.c.c.c.z.z.l.l.j.j.g.t.M.M.M.M.M.M.M.M.M.M.M.M.M.M.M.M.M.M.M.M.",
"0 3.3.5.5.9.9.0.w.w.w.e.e.u.p.a.a.g.g.j.j.l.l.l.z.z.z.c.c.z.c.c.c.c.z.z.z.l.l.j.j.g.k M.M.M.M.M.M.M.M.M.M.M.M.M.M.M.M.M.M.M.M.M.",
"V 3.3.5.9.9.9.0.0.w.w.e.e.u.p.p.a.g.g.j.j.j.l.l.l.z.z.z.z.c.z.c.z.z.l.z.l.l.j.j.>.M.M.M.M.M.M.M.M.M.M.M.M.M.M.M.M.M.M.M.M.M.M.M.",
"! 3.3.5.5.5.9.0.0.w.w.e.e.u.u.p.a.g.g.g.j.j.l.l.l.z.z.z.z.z.z.z.z.l.l.l.l.l.h.2 M.M.M.M.M.M.M.M.M.M.M.M.M.M.M.M.M.M.M.M.M.M.M.M.",
" .3.3.3.5.5.9.9.0.0.0.e.e.e.u.u.a.a.g.g.g.j.j.j.l.l.l.z.z.l.l.z.l.l.l.l.j.U M.M.M.M.M.M.M.M.M.M.M.M.M.M.M.M.M.M.M.M.M.M.M.M.M.M.",
"X.3.3.5.5.5.9.9.0.0.w.w.e.e.u.u.p.p.p.g.g.g.j.j.j.j.l.l.l.l.l.l.l.l.j.d.M.M.M.M.M.M.M.M.M.M.M.M.M.M.M.M.M.M.M.M.M.M.M.M.M.M.M.M.",
"o.3.3.3.5.5.8.9.0.0.0.e.w.e.e.u.u.p.p.a.g.g.g.g.g.j.j.j.j.j.j.j.l.j.' M.M.M.M.M.M.M.M.M.M.M.M.M.M.M.M.M.M.M.M.M.M.M.M.M.M.M.M.M.",
"..2.3.3.3.5.5.9.8.0.0.0.w.w.e.e.u.u.p.a.a.a.g.g.g.j.g.j.j.j.j.j.j.g.g.d.M.M.M.M.M.M.M.M.M.M.M.M.M.M.M.M.M.M.M.M.M.M.M.M.M.M.M.M.",
"[ 2.3.3.3.5.5.5.8.0.0.0.w.w.e.e.e.u.u.p.a.a.g.g.g.g.g.g.g.j.g.g.g.g.g.g.g.I M.M.M.M.M.M.M.M.M.M.M.M.M.M.M.M.M.M.M.M.M.M.M.M.M.M.",
"R 1.2.3.3.5.5.5.8.9.9.0.0.w.w.e.e.e.u.u.u.p.p.a.a.a.g.g.g.g.g.g.g.g.a.a.p.p.i.< M.M.M.M.M.M.M.M.M.M.M.M.M.M.M.M.M.M.M.M.M.M.M.M.",
"l 1.1.3.3.3.3.5.8.8.9.0.0.0.w.w.w.e.e.u.u.u.p.p.p.a.p.a.a.a.g.a.a.a.p.p.p.p.u.u.:.M.M.M.M.M.M.M.M.M.M.M.M.M.M.M.M.M.M.M.M.M.M.M.",
"0 ,.1.2.3.3.3.5.5.5.8.9.0.0.0.w.w.e.e.e.e.u.u.u.u.p.p.p.p.p.p.u.p.p.p.u.u.u.u.e.e.e.g M.M.M.M.M.M.M.M.M.M.M.M.M.M.M.M.M.M.M.M.M.",
"M.,.1.1.2.3.3.3.5.5.5.9.9.0.0.0.w.w.e.w.e.e.e.e.p.u.u.u.p.u.p.p.p.p.u.u.u.e.e.e.e.w.w.q.M.M.M.M.M.M.M.M.M.M.M.M.M.M.M.M.M.M.M.M.",
"M.,.,.1.2.2.3.3.3.5.5.8.9.9.9.0.0.0.w.w.e.e.e.e.e.e.e.u.e.u.e.u.e.e.e.e.e.e.e.w.w.w.w.0.0.D M.M.M.M.M.M.M.M.M.M.M.M.M.M.M.M.M.M.",
"M.o.=.1.1.2.3.3.3.5.5.8.8.9.9.0.0.0.0.w.w.e.e.e.e.e.e.e.e.e.e.e.e.e.e.e.w.w.w.w.w.0.0.0.0.9.7.4 M.M.M.M.M.M.M.M.M.M.M.M.M.M.M.M.",
"M.V =.=.1.1.2.3.3.3.3.5.5.5.8.9.0.0.0.0.0.0.w.0.w.w.e.w.e.e.w.e.w.e.w.w.w.w.w.0.0.0.0.9.9.9.5.5.{ M.M.M.M.M.M.M.M.M.M.M.M.M.M.M.",
"M.@ *.=.,.1.1.2.3.3.3.3.3.5.5.8.9.9.9.0.0.0.0.0.w.w.w.w.w.w.w.w.w.w.w.w.0.0.0.0.0.9.9.9.5.5.5.3.5.3.s M.M.M.M.M.M.M.M.M.M.M.M.M.",
"M.M.&.*.=.,.1.1.1.3.3.3.5.5.5.5.8.8.9.9.0.0.0.0.0.0.0.0.0.w.0.0.w.0.0.0.0.0.0.9.9.9.9.5.5.5.3.5.3.3.3.*.M.M.M.M.M.M.M.M.M.M.M.M.",
"M.M.C *.=.=.,.1.1.3.3.3.3.3.5.5.5.5.8.8.9.9.9.0.9.0.0.0.0.0.0.0.0.0.0.9.0.9.9.9.9.9.5.5.5.5.3.3.3.3.2.1.1.A M.M.M.M.M.M.M.M.M.M.",
"M.M.M.&.*.=.=.=.1.1.3.3.3.3.3.3.5.5.5.5.8.8.8.8.9.9.9.9.0.9.0.9.9.9.9.9.9.9.5.9.5.5.5.5.5.3.3.3.2.2.1.1.,.=.*., M.M.M.M.M.M.M.M.",
"M.M.M.[ &.*.=.=.=.1.1.1.2.3.3.3.3.5.5.5.5.5.5.5.9.9.9.5.9.9.9.9.9.9.8.8.9.5.5.5.5.3.5.3.3.3.3.2.1.1.1.,.=.=.*.&.! M.M.M.M.M.M.M.",
"M.M.M.% o.&.&.*.=.=.1.1.1.3.2.3.3.3.3.3.5.3.5.5.5.5.5.5.5.3.5.5.5.5.5.8.5.5.3.5.3.3.3.3.3.2.2.1.1.1.=.=.*.*.&.X.X.X.q M.M.M.M.M.",
"M.M.M.M.[ o.&.*.=.=.=.=.1.1.2.2.3.3.3.3.3.3.3.5.5.5.5.5.5.5.5.5.5.5.3.5.5.3.3.3.5.3.3.3.2.2.1.1.=.=.=.=.&.&.o.X.X.....[ O M.M.M.",
"M.M.M.M.@ X.X.&.*.*.=.=.=.1.1.1.1.2.3.3.3.3.3.3.3.3.3.3.5.3.3.5.3.3.3.3.3.3.3.3.2.3.2.1.1.1.1.=.=.=.*.&.&.&.X.X... .} } } l M.M.",
"M.M.M.M.M.A X.&.o.*.*.=.=.=.=.1.1.1.1.1.2.3.2.3.3.3.3.3.3.3.3.3.3.3.3.3.3.3.2.3.2.1.1.1.1.=.=.=.=.*.&.o.o.X.X.....} } [ [ [ ^ - ",
"M.M.M.M.M.M...X.X.X.&.&.*.=.=.=.,.1.1.1.1.1.2.2.3.3.2.3.3.3.3.2.3.3.2.3.2.1.1.1.1.1.1.1.=.=.=.*.&.&.&.X.X.X.....} } } [ [ / ^ M.",
"M.M.M.M.M.M.- X.X.X.o.&.&.*.*.=.=.=.=.1.1.1.1.1.1.1.2.1.1.2.1.2.1.2.2.1.1.1.1.1.,.=.=.=.=.*.*.&.&.o.X.X..... .} } } [ [ / ^ 0 M.",
"M.M.M.M.M.M.M.d ..X.X.X.o.o.&.*.*.*.=.=.=.=.,.=.,.1.,.1.1.1.1.1.1.1.,.,.1.=.=.=.=.=.*.*.*.&.o.o.X.X.X... . .} } [ [ [ / ^ A M.M.",
"M.M.M.M.M.M.M.M.T ....X.X.X.o.o.&.*.*.*.*.=.=.=.=.=.=.=.,.=.,.,.,.=.=.=.=.=.=.*.*.*.&.&.&.o.X.X.X.....} } } } [ [ [ / ^ E M.M.M.",
"M.M.M.M.M.M.M.M.M.^  ...X.X.X.o.o.o.&.&.&.&.*.*.=.*.=.=.*.=.=.*.=.*.*.*.*.*.*.*.&.&.o.o.X.X.X.X..... .} } } [ [ [ / ^ ~ M.M.M.M.",
"M.M.M.M.M.M.M.M.M.M.[  .......X.X.X.o.o.o.o.&.&.&.&.*.*.*.*.*.*.*.*.*.*.&.o.o.o.o.X.X.X.X.......} } } } } [ [ / ^ ^ ~ M.M.M.M.M.",
"M.M.M.M.M.M.M.M.M.M.M.~ } } ........X.o.o.o.o.o.o.o.o.&.o.o.o.o.o.o.o.o.o.o.o.o.X.X.X..... . .} } } } [ [ [ / ^ ^ ! M.M.M.M.M.M.",
"M.M.M.M.M.M.M.M.M.M.M.M.S } } ..} ..........X.X.o.X.X.o.o.o.o.o.X.o.o.o.X.X.X...........} } } } } [ [ [ / / ^ ~ R M.M.M.M.M.M.M.",
"M.M.M.M.M.M.M.M.M.M.M.M.M.s } } } } } ..........X.....X...X................... ...} } } } } } [ [ [ / / ^ ^ ~ B M.M.M.M.M.M.M.M.",
"M.M.M.M.M.M.M.M.M.M.M.M.M.M.% [ } } } } } } } ......} .. ......... ... . .} } } } } } } [ [ [ [ / ^ / ^ ~ ~ 3 M.M.M.M.M.M.M.M.M.",
"M.M.M.M.M.M.M.M.M.M.M.M.M.M.M.M.V [ [ } } } } } } } } }  .} }  .} } } } } } } } } [ [ [ [ [ / / ^ ^ ~ ~ A M.M.M.M.M.M.M.M.M.M.M.",
"M.M.M.M.M.M.M.M.M.M.M.M.M.M.M.M.M.M.R [ [ [ [ [ } } [ } } } } [ } [ } } [ [ [ [ [ [ [ / / ^ ^ ^ ~ ~ E % M.M.M.M.M.M.M.M.M.M.M.M.",
"M.M.M.M.M.M.M.M.M.M.M.M.M.M.M.M.M.M.M.@ T [ [ [ [ [ [ [ [ [ [ [ [ [ [ [ [ [ / [ / / / ^ ^ ^ ~ ! R - M.M.M.M.M.M.M.M.M.M.M.M.M.M.",
"M.M.M.M.M.M.M.M.M.M.M.M.M.M.M.M.M.M.M.M.M.M.d / / / / [ / [ [ [ / / / [ [ ^ ^ / ^ ^ ~ ~ ~ ! l o M.M.M.M.M.M.M.M.M.M.M.M.M.M.M.M.",
"M.M.M.M.M.M.M.M.M.M.M.M.M.M.M.M.M.M.M.M.M.M.M.M.o s E ^ ^ ^ ^ / ^ ^ ^ ^ ^ ^ ~ ~ ! ~ E d @ M.M.M.M.M.M.M.M.M.M.M.M.M.M.M.M.M.M.M.",
"M.M.M.M.M.M.M.M.M.M.M.M.M.M.M.M.M.M.M.M.M.M.M.M.M.M.M.M.M.- a l A S T S A B a , M.M.M.M.M.M.M.M.M.M.M.M.M.M.M.M.M.M.M.M.M.M.M.M."
};
