/* XPM */
static char *result[] = {
/* columns rows colors chars-per-pixel */
"60 61 37 1 ",
"  c black",
". c #010101",
"X c #020202",
"o c gray1",
"O c #040404",
"+ c gray2",
"@ c #070707",
"# c gray3",
"$ c #090909",
"% c gray4",
"& c #0B0B0B",
"* c #0C0C0C",
"= c gray5",
"- c #0E0E0E",
"; c gray6",
": c #101010",
"> c #111111",
", c gray7",
"< c #131313",
"1 c gray8",
"2 c #151515",
"3 c gray9",
"4 c #181818",
"5 c gray10",
"6 c #1B1B1B",
"7 c gray11",
"8 c #1D1D1D",
"9 c #1E1E1E",
"0 c gray12",
"q c #202020",
"w c gray13",
"e c #222222",
"r c #232323",
"t c gray14",
"y c #272727",
"u c #282828",
"i c None",
/* pixels */
"iiiiiiiiiiiiiiiiiiiiiiiii3*+X.  .O%,iiiiiiiiiiiiiiiiiiiiiiii",
"iiiiiiiiiiiiiiiiiiiii2X               .;iiiiiiiiiiiiiiiiiiii",
"iiiiiiiiiiiiiiiiii9o                      3iiiiiiiiiiiiiiiii",
"iiiiiiiiiiiiiiiiq                           ;iiiiiiiiiiiiiii",
"iiiiiiiiiiiiiii.                              6iiiiiiiiiiiii",
"iiiiiiiiiiiii&                                 Oiiiiiiiiiiii",
"iiiiiiiiiiii.                                    eiiiiiiiiii",
"iiiiiiiiiiy                                       1iiiiiiiii",
"iiiiiiiii8                                         *iiiiiiii",
"iiiiiiii8                                           %iiiiiii",
"iiiiiiit                                .o           >iiiiii",
"iiiiiii                               -iiiii+         7iiiii",
"iiiiii                               0iiiiiii*         iiiii",
"iiiii&                              *iiiiiiiii.        .iiii",
"iiiii                               iiiiiiiiii3         ,iii",
"iiii                                iiiiiiiiiii          iii",
"iii1                               .iiiiiiiiiii          @ii",
"iii                                 iiiiiiiiiii           ii",
"ii6                                 iiiiiiiiii=           %i",
"iiX                                 .iiiiiiiii             i",
"ii                                   #iiiiiii              7",
"i>                                     2iii&               O",
"iX                                                       #ii",
"i                                                     #iiiii",
"i                                                  @wiiiiiii",
"2                                               +riiiiiiiiii",
"%                                            O7iiiiiiiiiiiii",
"o                                         O4iiiiiiiiiiiiiiii",
".                                      o4iiiiiiiiiiiiiiiiiii",
"                                    X5iiiiiiiiiiiiiiiiiiiiii",
"                                 .2iiiiiiiiiiiiiiiiiiiiiiiii",
"                              .>iiiiiiiiiiiiiiiiiiiiiiiiiiii",
".                           +iiiiiiiiiiiiiiiiiiiiiiiiiiiiiii",
"o                             3iiiiiiiiiiiiiiiiiiiiiiiiiiiii",
"%                               =iiiiiiiiiiiiiiiiiiiiiiiiiii",
"2                                 +iiiiiiiiiiiiiiiiiiiiiiiii",
"i                                   .5iiiiiiiiiiiiiiiiiiiiii",
"i                                      >iiiiiiiiiiiiiiiiiiii",
"iX                                       @iiiiiiiiiiiiiiiiii",
"i>                                         Xqiiiiiiiiiiiiiii",
"ii                                            <iiiiiiiiiiiii",
"iiX                                             %iiiiiiiiiii",
"ii6                                               Oiiiiiiiii",
"iii                                                 .5iiiiii",
"iii1                                                   ;iiii",
"iiii                                                     iii",
"iiiii                                                   >iii",
"iiiii%                                                 .iiii",
"iiiiii                                                 iiiii",
"iiiiiii                                               9iiiii",
"iiiiiiit                                             :iiiiii",
"iiiiiiii8                                           #iiiiiii",
"iiiiiiiii8                                         &iiiiiiii",
"iiiiiiiiiiu                                       <iiiiiiiii",
"iiiiiiiiiiii.                                    qiiiiiiiiii",
"iiiiiiiiiiiii*                                 Oiiiiiiiiiiii",
"iiiiiiiiiiiiiii.                              6iiiiiiiiiiiii",
"iiiiiiiiiiiiiiiiq                           ;iiiiiiiiiiiiiii",
"iiiiiiiiiiiiiiiiii9o                      4iiiiiiiiiiiiiiiii",
"iiiiiiiiiiiiiiiiiiiii3X               .:iiiiiiiiiiiiiiiiiiii",
"iiiiiiiiiiiiiiiiiiiiiiiii4*+X.  .O$2iiiiiiiiiiiiiiiiiiiiiiii"
};
