/* XPM */
static char *result[] = {
/* columns rows colors chars-per-pixel */
"60 60 71 1 ",
"  c #040204",
". c #080705",
"X c #0D0C05",
"o c #100F05",
"O c #131306",
"+ c #171806",
"@ c #1A1B06",
"# c #1F2107",
"$ c #222307",
"% c #272A06",
"& c #2A2E07",
"* c #2E3107",
"= c #2C3008",
"- c #373D07",
"; c #363B08",
": c #393F08",
"> c #3D4407",
", c #414806",
"< c #4F5907",
"1 c #4B5209",
"2 c #515C07",
"3 c #515B08",
"4 c #5B6506",
"5 c #5E6906",
"6 c #576009",
"7 c #586309",
"8 c #5F6B08",
"9 c #616E08",
"0 c #6F7D07",
"q c #667209",
"w c #6F7D09",
"e c #707E07",
"r c #707D09",
"t c #738107",
"y c #768807",
"u c #748309",
"i c #788709",
"p c #7D8C0A",
"a c #859607",
"s c #839408",
"d c #879908",
"f c #96AA07",
"g c #9AAF06",
"h c #93A609",
"j c #95A909",
"k c #9CB306",
"l c #9CB208",
"z c #A2B707",
"x c #A5BC07",
"c c #A8BF07",
"v c #A1B508",
"b c #ABC307",
"n c #AFC609",
"m c #B5CD06",
"M c #B3CC08",
"N c #B9D107",
"B c #BED907",
"V c #B5D008",
"C c #BDD608",
"Z c #BFD808",
"A c #C4DE07",
"S c #C4DD08",
"D c #C5E207",
"F c #CFEB07",
"G c #C6E108",
"H c #CDEA08",
"J c #D1ED07",
"K c #D5F306",
"L c #D8F606",
"P c #DEFD05",
"I c #E1FF05",
/* pixels */
"                                        .                   ",
"                                                        .   ",
"          .                 .    .            .    .        ",
"               .        .                                   ",
"                                                      .     ",
"                .      .  .                                 ",
"      .                                          .          ",
"                                          .                .",
"                                        .                   ",
".                                                         . ",
"                       *,,,,,,>>,,,,>;.                     ",
"      .  .            .fLLLLLLLLLLLLPM+                     ",
"                       fIPPPPPPPPPPPIZ+               .     ",
"                 &11111bIPPPPPPPPPPPIG31111;                ",
"                 tLLLPLPPPPPPPPPPPPPPPLLLPPl.               ",
"   .        .    yIPPPIPPPPPPPPPPPPPPPPPPPIv.   .           ",
"              &22kIPPPPPPPPPPPPPPPPPPPPPPPIN72>             ",
"              qPPLPPPPPPIPPPPPPPPPPPPPPPPPPPPIh.  .         ",
"              qIPPPPPPPPPPPPPIIIIIIPPPPPPPPPPIh             ",
"           %57fPPPPPPPPPPPPPLfaaashJPPPPPPPPPPM85-          ",
"           7PPPPPPPPPPPPPPPIF*    @SPPPPPPPPPPPPIs          ",
"           4PPPPPPPPPPPPPPPPJ*    $SPPPPPPPPIIIPIa     .   .",
"           4PPPPPPPPPPPPPPPPF*    $APPPPPPIAspppp1          ",
"           4PPPPPPPPPPPPPPPPF&    @APPPPPPIz.               ",
"           7PPPPPPPPPPPPPPPPF=    +AIIPIIIIzX               ",
"        &uwkPPPPPPPPPPPPPPPPLd0ttturee00eee2.             . ",
"   .    3PPPPPPPPPPPPPPPPPPPPIIIIID@                        ",
"        <PPPPPPPPPPPPPPPPPPPPPPPIID#           .            ",
"        <PPPPPPPPPPPPPPPPPPPKy99597X                        ",
"        <PPPPPPIPPPPPPPPPPPPJ&                    .         ",
"        2PPPPPPPPPPPPPPPPPPPH&                              ",
"        <PPPPPPPPPPPPPPPPLt<<O                           .  ",
"        <LPPPPPPPPPPPPPPPK-                                 ",
"        <PPPPPPPPPPPPPIPPK> .                        .      ",
"        <PPPPPPPPPPPPPPPPLbkh$                              ",
"        <PPPPPPPPPPPPPPPPPIIJ=                            . ",
"        <PPPPPPPPPPPPPPPPPPPJ-.X.XX                         ",
"        <PPPPPPPPPPPPPPPPPPPLMccbbf+            .           ",
"        3PPPPPPPPPPPPPPPPPPPPIIIPID$          .             ",
"        1HHKPPPPPPPPPPPPPPIPPPPPPPD*XOOOOOOO           .    ",
"        O=&tPPPPPPPPPPPPPPPPPPPPPPPNMMMMMMVsX               ",
"           4PPPPPPPPPPPPPPPPPPPPPPPIPIIIIPIzX               ",
"           7PPPPPPPPPPPPPPPPPPPPPPPPPPPPPPIb$++++o          ",
"           7PPPPPPPPPPPPPPPPPPPPPPPPPPPPPPPKBCCBSe          ",
"           7PPPPPPPPPPPPPPPPPPPPPPPPPPPPPPPPPIPIIa  .       ",
"           <DAFPPPPPPPPPPPPIPPPPPPPPPPPPPPPPPPKADt      .   ",
"           X#@tIPPPPPPPPPPPPPPPPPPPPPPPPPPPPIIl$@O          ",
"              qIIIPPPPPPPPPPPPPPPPPPPPPPPPPPIIf             ",
"              2SCFPPPPPPPPPPPPPPPPPPPPPPPPPJSCs             ",
"              X+OsIPPPPPPPPPPPPPPPPPPPPPPPIc#+o          .  ",
"                 tIIIIIPPPPPPPPPPPPPPPPPIIIx.               ",
"   .             9NNmmmJIPPPPPPPPPPPPLNmmNNa..              ",
"     .     .  .  XOOOO+kIPPPPPPPPPPPIC%OOOOo           .    ",
"                       gIIIIIIIIIIIIISO                     ",
".                     .yMnnnnnnnnnnnMjO    .                ",
"                       XoooXooooXooXXX           .          ",
"                                                            ",
"                                               .            ",
"        .              .                            .       ",
"    .                                                   .   "
};
