/* XPM */
static char *result[] = {
/* columns rows colors chars-per-pixel */
"60 60 233 2 ",
"   c #040204",
".  c #020004",
"X  c #010004",
"o  c #050304",
"O  c #2D3106",
"+  c #424906",
"@  c #414806",
"#  c #373D06",
"$  c #0A0805",
"%  c #070605",
"&  c #94A807",
"*  c #DAFA05",
"=  c #D7F605",
"-  c #D9F905",
";  c #B6CF08",
":  c #171806",
">  c #030104",
",  c #000004",
"<  c #96AC06",
"1  c #E1FF04",
"2  c #DEFD04",
"3  c #E0FF04",
"4  c #BBD508",
"5  c #151507",
"6  c #292C07",
"7  c #4B5209",
"8  c #4A5009",
"9  c #4C5309",
"0  c #AEC607",
"q  c #DFFF04",
"w  c #C7E107",
"e  c #576009",
"r  c #495008",
"t  c #4A5108",
"y  c #4B5208",
"u  c #373B08",
"i  c #060504",
"p  c #748408",
"a  c #DEFC06",
"s  c #DBF906",
"d  c #DDFC05",
"f  c #DBF905",
"g  c #A1B508",
"h  c #0B0A05",
"j  c #040104",
"k  c #748508",
"l  c #E1FF05",
"z  c #A2B707",
"x  c #282B07",
"c  c #545E09",
"v  c #525C09",
"b  c #9CB208",
"n  c #B8D107",
"m  c #596308",
"M  c #555F08",
"N  c #393F08",
"B  c #657109",
"V  c #DFFE06",
"C  c #DDFC06",
"Z  c #95A709",
"A  c #070505",
"S  c #030004",
"D  c #636F09",
"F  c #E0FF05",
"G  c #94A608",
"H  c #030105",
"J  c #272A06",
"K  c #5D6806",
"L  c #5B6606",
"P  c #96AA08",
"I  c #DFFE05",
"U  c #D8F605",
"Y  c #96AA07",
"T  c #849507",
"R  c #859607",
"E  c #859507",
"W  c #91A208",
"Q  c #D3F006",
"!  c #DEFE04",
"~  c #B2CA07",
"^  c #5E6A07",
"/  c #5E6906",
"(  c #373D07",
")  c #DFFE04",
"_  c #CFEC07",
"`  c #2D3108",
"'  c #1E1F07",
"]  c #C4DD07",
"[  c #E2FF05",
"{  c #829309",
"}  c #5B6506",
"|  c #DEFD05",
" . c #2E3108",
".. c #1F2007",
"X. c #829308",
"o. c #596306",
"O. c #2C2F08",
"+. c #1C1D07",
"@. c #C3DD07",
"#. c #819208",
"$. c #000005",
"%. c #2A2F07",
"&. c #728107",
"*. c #718007",
"=. c #9DB307",
"-. c #D6F406",
";. c #879908",
":. c #738107",
">. c #728007",
",. c #7F9008",
"<. c #D1ED06",
"1. c #B2C907",
"2. c #758307",
"3. c #3D4306",
"4. c #515B08",
"5. c #DFFF06",
"6. c #DDFD04",
"7. c #E4FF05",
"8. c #758306",
"9. c #505A08",
"0. c #DCFB05",
"q. c #738106",
"w. c #728106",
"e. c #DDFB05",
"r. c #DFFF05",
"t. c #728006",
"y. c #D8F606",
"u. c #768408",
"i. c #505A07",
"p. c #525D08",
"a. c #535E08",
"s. c #2C3006",
"d. c #D5F306",
"f. c #D6F306",
"g. c #3D4407",
"h. c #050404",
"j. c #090805",
"k. c #DBFA05",
"l. c #ACC407",
"z. c #9BB107",
"x. c #9CB207",
"c. c #9EB407",
"v. c #515B07",
"b. c #E4FF04",
"n. c #DEFC04",
"m. c #515A08",
"M. c #E2FF04",
"N. c #748206",
"B. c #4B5408",
"V. c #CDEA08",
"C. c #CFEB07",
"Z. c #D5F206",
"A. c #D2EF07",
"S. c #6C7907",
"D. c #121305",
"F. c #2D3207",
"G. c #2B2E07",
"H. c #738207",
"J. c #94A708",
"K. c #2D3107",
"L. c #2E3307",
"P. c #191B06",
"I. c #819108",
"U. c #829208",
"Y. c #E3FF04",
"T. c #839308",
"R. c #505907",
"E. c #C4DF08",
"W. c #C3DE07",
"Q. c #CFEC06",
"!. c #D5F205",
"~. c #C4DE07",
"^. c #C5E207",
"/. c #728109",
"(. c #0E0E05",
"). c #1E2006",
"_. c #1B1D06",
"`. c #748209",
"'. c #9DB208",
"]. c #212306",
"[. c #1E2106",
"{. c #131405",
"}. c #657209",
"|. c #96A907",
" X c #050305",
".X c #56600A",
"XX c #BED709",
"oX c #BCD508",
"OX c #CEEA06",
"+X c #BDD608",
"@X c #BFD908",
"#X c #7E8E09",
"$X c #0D0C06",
"%X c #191907",
"&X c #161707",
"*X c #809108",
"=X c #A8BF07",
"-X c #181906",
";X c #111106",
":X c #768807",
">X c #A4BA07",
",X c #0A0905",
"<X c #606E08",
"1X c #B8D106",
"2X c #B5CE06",
"3X c #B6CF06",
"4X c #D1EE05",
"5X c #D8F505",
"6X c #B9D206",
"7X c #B6CE06",
"8X c #B9D106",
"9X c #869608",
"0X c #0C0B05",
"qX c #141405",
"wX c #171805",
"eX c #9CB306",
"rX c #BED807",
"tX c #262907",
"yX c #100F05",
"uX c #070504",
"iX c #9AAF06",
"pX c #BFD708",
"aX c #788709",
"sX c #B1C909",
"dX c #AFC609",
"fX c #AFC608",
"gX c #B0C808",
"hX c #94A70B",
"jX c #141406",
"kX c #0F1006",
"lX c #0F0F06",
"zX c #0F0F05",
"xX c #0E0D05",
/* pixels */
"                                                                                                                        ",
"                                                                                                                        ",
"                                                                                                                        ",
"                                                                                                                        ",
"                                                                                                                        ",
"                                                                                                                        ",
"                                                                                                                        ",
"                                                                                                                        ",
"                                                                                                                        ",
"                                              . X X X X X X X X X X X X X X                                             ",
"                                            o O + @ @ @ @ @ @ @ @ @ @ @ @ # $                                           ",
"                                            % & * = = = = = = = = = = = - ; : >                                         ",
"                                  . , , , ,   < 1 2 2 2 2 2 2 2 2 2 2 2 3 4 5 , , , , X                                 ",
"                                > 6 7 8 8 8 9 0 3 2 2 2 2 2 2 2 2 2 2 2 q w e r t t y u i                               ",
"                                . p a s s s s d 2 2 2 2 2 2 2 2 2 2 2 2 2 d f s s s a g h j                             ",
"                            . , , k l 2 2 2 2 2 2 2 2 2 2 2 2 2 2 2 2 2 2 2 2 2 2 2 1 z % , .                           ",
"                          > x c v b 3 2 2 2 2 2 2 2 2 2 2 2 2 2 2 2 2 2 2 2 2 2 2 2 3 n m M N o                         ",
"                          X B V C d 2 2 2 2 2 2 2 2 2 2 2 2 2 2 2 2 2 2 2 2 2 2 2 2 2 2 d l Z A                         ",
"                      S , , D F 2 2 2 2 2 2 2 2 2 2 2 2 2 1 l 1 1 l 1 2 2 2 2 2 2 2 2 2 2 1 G H , .                     ",
"                    . J K L P I 2 2 2 2 2 2 2 2 2 2 2 2 U Y T R R E W Q ! 2 2 2 2 2 2 2 2 3 ~ ^ / (                     ",
"                    , L I I 2 2 2 2 2 2 2 2 2 2 2 2 2 ) _ ` X > > X ' ] q 2 2 2 2 2 2 2 2 2 2 I [ { >                   ",
"                    , } | 2 2 2 2 2 2 2 2 2 2 2 2 2 2 ) _  .X     . ..] q 2 2 2 2 2 2 2 2 2 2 2 l X.>                   ",
"                    , } | 2 2 2 2 2 2 2 2 2 2 2 2 2 2 ) _  .X     . ..] q 2 2 2 2 2 2 2 2 2 2 2 1 X.>                   ",
"                    , } | 2 2 2 2 2 2 2 2 2 2 2 2 2 2 ) _  .X     . ..] q 2 2 2 2 2 2 2 2 2 2 2 1 X.>                   ",
"                > X , o.| 2 2 2 2 2 2 2 2 2 2 2 2 2 2 ) _ O., X X , +.@.q 2 2 2 2 2 2 2 2 2 2 2 l #.$.X S               ",
"              . %.&.*.=.2 2 2 2 2 2 2 2 2 2 2 2 2 2 2 2 -.;.*.:.&.>.,.<.! 2 2 2 2 2 2 2 2 2 2 2 q 1.:.2.3.S             ",
"              , 4.5.1 q 2 2 2 2 2 2 2 2 2 2 2 2 2 2 2 2 2 F l l l l F 2 2 2 2 2 2 2 2 2 2 2 2 2 6.) F 7.8.X             ",
"              , 9.0.2 2 2 2 2 2 2 2 2 2 2 2 2 2 2 2 2 2 2 2 2 2 2 2 2 2 2 2 2 2 2 2 2 2 2 2 2 2 2 2 2 1 q.X             ",
"              , 9.0.2 2 2 2 2 2 2 2 2 2 2 2 2 2 2 2 2 2 2 2 2 2 2 2 2 2 2 2 2 2 2 2 2 2 2 2 2 2 2 6.2 1 w.X             ",
"              , 9.0.2 2 2 2 2 2 2 2 2 2 2 2 2 2 2 2 2 2 2 2 2 2 2 2 2 2 2 2 2 2 2 2 2 2 2 2 2 2 2 2 2 1 w.X             ",
"              , 9.0.2 2 2 2 2 2 2 2 2 2 2 2 2 2 2 2 e.0.0.0.0.0.0.0.0.0.0.0.0.0.0.0.0.0.0.0.0.0.0.0.0.r.t.X             ",
"              , 9.0.2 2 2 2 2 2 2 2 2 2 2 2 2 2 2 y.u.i.p.p.p.p.p.p.p.p.p.p.p.p.p.p.p.p.p.p.p.p.p.p.p.a.s.>             ",
"              , 9.0.2 2 2 2 2 2 2 2 2 2 2 2 2 2 2 d.( , , , , , , , , , , , , , , , , , , , , , , , , , .               ",
"              , 9.0.2 2 2 2 2 2 2 2 2 2 2 2 2 2 2 f.g.h.j.j.j.j.j.j.j.j.j.j.j.j.j.j.j.j.j.j.j.j.j.j.j.j.i               ",
"              , 9.0.2 2 2 2 2 2 2 2 2 2 2 2 2 2 2 k.l.z.x.x.x.x.x.x.x.x.x.x.x.x.x.x.x.x.x.x.x.x.x.x.x.c.v..             ",
"              , 9.0.2 2 2 2 2 2 2 2 2 2 2 2 2 2 2 2 3 1 1 1 1 1 1 1 1 1 1 1 1 1 1 1 1 1 1 1 1 1 1 1 1 b.8.X             ",
"              , 9.0.n.2 2 2 2 2 2 2 2 2 2 2 2 2 2 2 2 2 2 2 2 2 2 2 2 2 2 2 2 2 2 2 2 2 2 2 2 2 2 2 2 1 q.X             ",
"              , 9.0.2 2 2 2 2 2 2 2 2 2 2 2 2 2 2 2 2 2 2 2 2 2 2 2 2 2 2 2 2 2 2 2 2 2 2 2 2 2 2 2 2 1 q.X             ",
"              , m.d ) ! 2 2 2 2 2 2 2 2 2 2 2 2 2 2 2 2 2 2 2 2 2 2 2 2 2 2 2 2 2 2 2 2 2 2 2 2 2 2 ) M.N.X             ",
"              X B.V.C.Z.2 2 2 2 2 2 2 2 2 2 2 2 2 2 2 2 2 2 2 2 2 2 2 2 2 2 2 2 2 2 2 2 2 2 2 2 2 y._ A.S.X             ",
"              > D.F.G.H.| 2 2 2 2 2 2 2 2 2 2 2 2 2 2 2 2 2 2 2 2 2 2 2 2 2 2 2 2 2 2 2 2 2 2 2 3 J.K.L.P.>             ",
"                > X , o.| 2 2 2 2 2 2 2 2 2 2 2 2 2 2 2 2 2 2 2 2 2 2 2 2 2 2 2 2 2 2 2 2 2 2 2 l I., X S               ",
"                    , } | 2 2 2 2 2 2 2 2 2 2 2 2 2 2 2 2 2 2 2 2 2 2 2 2 2 2 2 2 2 2 2 2 2 2 2 1 U.>                   ",
"                    , } | 2 2 2 2 2 2 2 2 2 2 2 2 2 2 2 2 2 2 2 2 2 2 2 2 2 2 2 2 2 2 2 2 2 2 2 1 U.>                   ",
"                    , L F 3 ) 2 2 2 2 2 2 2 2 2 2 2 2 2 2 2 2 2 2 2 2 2 2 2 2 2 2 2 2 2 2 2 2 q Y.T.>                   ",
"                    X R.E.W.Q.2 2 2 2 2 2 2 2 2 2 2 2 2 2 2 2 2 2 2 2 2 2 2 2 2 2 2 2 2 2 2 !.~.^./.>                   ",
"                    j (.)._.`.r.2 2 2 2 2 2 2 2 2 2 2 2 2 2 2 2 2 2 2 2 2 2 2 2 2 2 2 2 2 1 '.].[.{.                    ",
"                      > . , }.[ 3 ) 2 2 2 2 2 2 2 2 2 2 2 2 2 2 2 2 2 2 2 2 2 2 2 2 2 2 3 Y.|. X. >                     ",
"                          X .XXXoXOX2 2 2 2 2 2 2 2 2 2 2 2 2 2 2 2 2 2 2 2 2 2 2 2 2 !.+X@X#Xi                         ",
"                            $X%X&X*XF 2 2 2 2 2 2 2 2 2 2 2 2 2 2 2 2 2 2 2 2 2 2 2 1 =X..-X;X                          ",
"                            > S , :XY.3 3 3 3 ) 2 2 2 2 2 2 2 2 2 2 2 2 2 2 3 3 3 3 b.>X,X. >                           ",
"                                . <X1X2X2X2X3X4X) 2 2 2 2 2 2 2 2 2 2 2 2 5X6X7X7X7X8X9X,X                              ",
"                                  0XqXqX{.{.wXeX1 2 2 2 2 2 2 2 2 2 2 2 3 rXtXD.qXqXqXyXo                               ",
"                                  > > > > > uXiXb.1 1 1 1 1 1 1 1 1 1 1 Y.pX: . > > > >                                 ",
"                                            uXaXsXdXdXdXdXfXfXdXdXdXdXdXgXhXjX>                                         ",
"                                              0XkXlXlXlXlXzXzXlXlXlXzXlXzXxXo                                           ",
"                                              j > > > > > > > > > > > > > >                                             ",
"                                                                                                                        ",
"                                                                                                                        ",
"                                                                                                                        "
};
