/* XPM */
static char *result[] = {
/* columns rows colors chars-per-pixel */
"60 60 254 2 ",
"   c #040204",
".  c #020004",
"X  c #010004",
"o  c #050304",
"O  c #2D3106",
"+  c #424906",
"@  c #414806",
"#  c #373D06",
"$  c #0A0805",
"%  c #070605",
"&  c #94A807",
"*  c #DAFA05",
"=  c #D7F605",
"-  c #D9F905",
";  c #B6CF08",
":  c #171806",
">  c #030104",
",  c #000004",
"<  c #96AC06",
"1  c #E1FF05",
"2  c #DEFD05",
"3  c #DEFD04",
"4  c #E0FF04",
"5  c #BBD508",
"6  c #151506",
"7  c #292C07",
"8  c #4B5209",
"9  c #4A5008",
"0  c #4C5309",
"q  c #AEC607",
"w  c #E0FF05",
"e  c #DFFF05",
"r  c #C7E108",
"t  c #57600A",
"y  c #495009",
"u  c #4A5109",
"i  c #373B08",
"p  c #060504",
"a  c #748508",
"s  c #DEFC06",
"d  c #DBF906",
"f  c #DDFC05",
"g  c #A1B508",
"h  c #0B0A05",
"j  c #040104",
"k  c #748507",
"l  c #E1FF04",
"z  c #A2B707",
"x  c #080605",
"c  c #282B07",
"v  c #545E09",
"b  c #525C09",
"n  c #9CB208",
"m  c #B8D107",
"M  c #586309",
"N  c #555F08",
"B  c #393F07",
"V  c #657109",
"C  c #DFFE06",
"Z  c #DDFC06",
"A  c #E1FF06",
"S  c #95A709",
"D  c #070505",
"F  c #030004",
"G  c #636F09",
"H  c #94A608",
"J  c #030105",
"K  c #272A05",
"L  c #5D6806",
"P  c #5B6606",
"I  c #96AA08",
"U  c #DFFE05",
"Y  c #D8F606",
"T  c #96A907",
"R  c #849507",
"E  c #859607",
"W  c #859507",
"Q  c #90A207",
"!  c #D3F006",
"~  c #DEFE05",
"^  c #B3CA07",
"/  c #5E6A06",
"(  c #5E6906",
")  c #373D07",
"_  c #CFEC07",
"`  c #2D3107",
"'  c #1E1F07",
"]  c #C4DD07",
"[  c #E2FF05",
"{  c #829308",
"}  c #5B6506",
"|  c #2E3107",
" . c #1F2007",
".. c #C4DD08",
"X. c #829307",
"o. c #596306",
"O. c #2C2F07",
"+. c #1C1D07",
"@. c #C3DD07",
"#. c #E4FF05",
"$. c #839508",
"%. c #2B2F07",
"&. c #728107",
"*. c #717F07",
"=. c #9DB307",
"-. c #D6F406",
";. c #879908",
":. c #718007",
">. c #738107",
",. c #728007",
"<. c #7F9008",
"1. c #D1ED06",
"2. c #C7E306",
"3. c #768407",
"4. c #6F7C07",
"5. c #6F7D07",
"6. c #424907",
"7. c #030204",
"8. c #515B08",
"9. c #DFFF06",
"0. c #B0C906",
"q. c #0F0E05",
"w. c #505A08",
"e. c #DCFB06",
"r. c #B1CB07",
"t. c #111205",
"y. c #D6F306",
"u. c #798809",
"i. c #5F6B08",
"p. c #616D08",
"a. c #606D08",
"s. c #626E08",
"d. c #4D5707",
"f. c #0A0904",
"g. c #D0EB07",
"h. c #2B2E07",
"j. c #DDFB05",
"k. c #CEEA07",
"l. c #768408",
"z. c #505B07",
"x. c #4D5708",
"c. c #131306",
"v. c #D5F307",
"b. c #3D4407",
"n. c #060404",
"m. c #080705",
"M. c #DBFA05",
"N. c #ACC407",
"B. c #9BB107",
"V. c #92A508",
"C. c #222307",
"Z. c #D3EF07",
"A. c #D1EC07",
"S. c #353A08",
"D. c #0A0A05",
"F. c #0D0C05",
"G. c #0D0D05",
"H. c #DAF805",
"J. c #B2CB07",
"K. c #A6BE07",
"L. c #A7BF07",
"P. c #A7BF06",
"I. c #A9C106",
"U. c #859807",
"Y. c #0E0E05",
"T. c #515A08",
"R. c #E3FF05",
"E. c #B2CC06",
"W. c #101105",
"Q. c #4B5408",
"!. c #CDEA08",
"~. c #CFEB07",
"^. c #D5F206",
"/. c #B4CD06",
"(. c #1F2107",
"). c #121206",
"_. c #0C0C05",
"`. c #121305",
"'. c #2D3207",
"]. c #2A2E07",
"[. c #738207",
"{. c #D5F306",
"}. c #B3CD07",
"|. c #B6D008",
" X c #697709",
".X c #E4FF04",
"XX c #839407",
"oX c #829207",
"OX c #DFFF04",
"+X c #839307",
"@X c #505907",
"#X c #C4DF08",
"$X c #C3DE07",
"%X c #CFEC06",
"&X c #C4DE07",
"*X c #C5E207",
"=X c #728109",
"-X c #1E2006",
";X c #1B1D06",
":X c #748209",
">X c #9DB208",
",X c #212306",
"<X c #1E2106",
"1X c #131405",
"2X c #667209",
"3X c #050305",
"4X c #566109",
"5X c #BED709",
"6X c #BCD508",
"7X c #CEEA06",
"8X c #BED608",
"9X c #BFD908",
"0X c #7E8E09",
"qX c #060505",
"wX c #191906",
"eX c #161707",
"rX c #809108",
"tX c #A8BF07",
"yX c #181906",
"uX c #111106",
"iX c #768807",
"pX c #A4BA07",
"aX c #0A0905",
"sX c #606E08",
"dX c #B8D106",
"fX c #B5CE06",
"gX c #B6CF06",
"hX c #D1EE06",
"jX c #D7F505",
"kX c #B9D206",
"lX c #B6CE06",
"zX c #B9D106",
"xX c #869608",
"cX c #0C0B05",
"vX c #141405",
"bX c #171805",
"nX c #9CB207",
"mX c #BFD808",
"MX c #262907",
"NX c #100F05",
"BX c #070504",
"VX c #9AAF06",
"CX c #E3FF04",
"ZX c #BFD708",
"AX c #788709",
"SX c #B2C909",
"DX c #AFC609",
"FX c #B0C809",
"GX c #95A70B",
"HX c #141406",
"JX c #0F1006",
"KX c #0F0F06",
"LX c #0E0D05",
"PX c white",
/* pixels */
"                                                                                                                        ",
"                                                                                                                        ",
"                                                                                                                        ",
"                                                                                                                        ",
"                                                                                                                        ",
"                                                                                                                        ",
"                                                                                                                        ",
"                                                                                                                        ",
"                                                                                                                        ",
"                                              . X X X X X X X X X X X X X X                                             ",
"                                            o O + @ @ @ @ @ @ @ @ @ @ @ @ # $                                           ",
"                                            % & * = = = = = = = = = = = - ; : >                                         ",
"                                  . , , , ,   < 1 2 2 2 3 3 2 2 3 3 3 2 4 5 6 , , , , X                                 ",
"                                > 7 8 9 9 9 0 q w 2 2 2 2 2 2 2 2 2 2 2 e r t y u u 8 i p                               ",
"                                . a s d d d d f 2 2 2 2 2 2 2 2 2 2 2 2 2 f d d d d s g h j                             ",
"                            . , , k 1 2 2 2 2 2 2 2 2 2 2 2 2 2 2 2 2 2 2 2 2 2 2 2 l z x , .                           ",
"                          > c v b n w 2 2 2 2 2 2 2 2 2 2 2 2 2 2 2 2 2 2 2 2 2 2 2 w m M N B o                         ",
"                          X V C Z f 2 2 2 2 2 2 2 2 2 2 2 2 2 2 2 2 2 2 2 2 2 2 2 2 2 2 Z A S D                         ",
"                      F , , G w 2 2 2 2 2 2 2 2 2 2 2 2 2 1 1 1 1 1 1 2 2 2 2 2 2 2 2 2 2 1 H J , .                     ",
"                    . K L P I U 2 2 2 2 2 2 2 2 2 2 2 2 Y T R E E W Q ! ~ 2 2 2 2 2 2 2 2 w ^ / ( )                     ",
"                    , P U U 2 2 2 2 2 2 2 2 2 2 2 2 2 U _ ` X > > X ' ] e 2 2 2 2 2 2 2 2 2 2 U [ { >                   ",
"                    , } 2 2 2 2 2 2 2 2 2 2 2 2 2 2 2 U _ | X     .  ...e 2 2 2 2 2 2 2 2 2 2 2 1 X.>                   ",
"                    , } 2 2 2 2 2 2 2 2 2 2 2 2 2 2 2 U _ | X     .  ...e 2 2 2 2 2 2 2 2 2 2 2 1 X.>                   ",
"                    , } 2 2 2 2 2 2 2 2 2 2 2 2 2 2 2 U _ | X     .  ...e 2 2 2 2 2 2 2 2 2 2 2 1 X.>                   ",
"                > X , o.2 2 2 2 2 2 2 2 2 2 2 2 2 2 2 ~ _ O., X X , +.@.e 2 2 2 2 w 1 1 1 1 1 1 #.$.>                   ",
"              . %.&.*.=.2 2 2 2 2 2 2 2 2 2 2 2 2 2 2 2 -.;.:.>.&.,.<.1.~ 2 2 U 2.3.4.5.5.5.5.5.*.6.7.                  ",
"              , 8.9.1 e 2 2 2 2 2 2 2 2 2 2 2 2 2 2 2 2 2 w 1 1 1 1 w 2 2 2 2 w 0.q., X X X X X X .                     ",
"              , w.e.2 2 2 2 2 2 2 2 2 2 2 2 2 2 2 2 2 2 2 U U U U U U U U U U 1 r.t.>                                   ",
"              , w.e.2 2 2 2 2 2 2 2 2 2 2 2 2 2 2 2 2 2 y.u.i.p.p.p.p.p.a.p.p.s.d.f.                                    ",
"              , w.e.2 2 2 2 2 2 2 2 2 2 2 2 2 2 2 2 2 U g.h., X X X X X X X X , X                                       ",
"              , w.e.2 2 2 2 2 2 2 2 2 2 2 2 2 2 2 2 j.f k.| X                                                           ",
"              , w.e.2 2 2 2 2 2 2 2 2 2 2 2 2 2 2 Y l.z.x.c.>                                                           ",
"              , w.e.2 2 2 2 2 2 2 2 2 2 2 2 2 2 2 v.) , , >                                                             ",
"              , w.e.2 2 2 2 2 2 2 2 2 2 2 2 2 2 2 y.b.n.m.o                                                             ",
"              , w.e.2 2 2 2 2 2 2 2 2 2 2 2 2 2 2 M.N.B.V.C..                                                           ",
"              , w.e.2 2 2 2 2 2 2 2 2 2 2 2 2 2 2 2 w [ Z.| X > > > > > > > > > j                                       ",
"              , w.e.2 2 2 2 2 2 2 2 2 2 2 2 2 2 2 2 2 ~ A.S.D.F.F.F.F.F.F.F.F.G.h o                                     ",
"              , w.e.2 2 2 2 2 2 2 2 2 2 2 2 2 2 2 2 2 2 H.J.K.L.P.P.P.P.P.P.P.I.U.Y.>                                   ",
"              , T.Z U ~ 2 2 2 2 2 2 2 2 2 2 2 2 2 2 2 2 2 w 1 1 1 1 1 1 1 1 1 R.E.W.. > > > > > > >                     ",
"              X Q.!.~.^.2 2 2 2 2 2 2 2 2 2 2 2 2 2 2 2 2 2 2 2 2 2 2 2 2 2 2 w /.(.).c.c.c.c.c.c._.                    ",
"              > `.'.].[.2 2 2 2 2 2 2 2 2 2 2 2 2 2 2 2 2 2 2 2 2 2 2 2 2 2 2 2 {.; }.}.}.}.}.}.|. X>                   ",
"                > X , o.2 2 2 2 2 2 2 2 2 2 2 2 2 2 2 2 2 2 2 2 2 2 2 2 2 2 2 2 2 4 4 4 4 4 4 4 .XXX>                   ",
"                    , } 2 2 2 2 2 2 2 2 2 2 2 2 2 2 2 2 2 2 2 2 2 2 2 2 2 2 2 2 2 2 2 2 2 2 2 2 1 oX>                   ",
"                    , } 2 2 2 2 2 2 2 2 2 2 2 2 2 2 2 2 2 2 2 2 2 2 2 2 2 2 2 2 2 2 2 2 2 2 2 2 1 oX>                   ",
"                    , P w OXU 2 2 2 2 2 2 2 2 2 2 2 2 2 2 2 2 2 2 2 2 2 2 2 2 2 2 2 2 2 2 2 2 e R.+X>                   ",
"                    X @X#X$X%X2 2 2 2 2 2 2 2 2 2 2 2 2 2 2 2 2 2 2 2 2 2 2 2 2 2 2 2 2 2 2 ^.&X*X=X>                   ",
"                    j Y.-X;X:XU 2 2 2 2 2 2 2 2 2 2 2 2 2 2 2 2 2 2 2 2 2 2 2 2 2 2 2 2 2 1 >X,X<X1X                    ",
"                      > . , 2X[ w U 2 2 2 2 2 2 2 2 2 2 2 2 2 2 2 2 2 2 2 2 2 2 2 2 2 2 w R.T 3X. >                     ",
"                          X 4X5X6X7X2 2 2 2 2 2 2 2 2 2 2 2 2 2 2 2 2 2 2 2 2 2 2 2 2 ^.8X9X0XqX                        ",
"                            F.wXeXrXw 2 2 2 2 2 2 2 2 2 2 2 2 2 2 2 2 2 2 2 2 2 2 2 1 tX .yXuX                          ",
"                            > > , iXR.w w w w U 2 2 2 2 2 2 2 2 2 2 2 2 2 2 w w w w #.pXaX. >                           ",
"                                . sXdXfXfXfXgXhX~ 2 2 2 2 2 2 2 2 2 2 2 2 jXkXlXlXlXzXxXaX                              ",
"                                  cXvX1X1X1XbXnX1 2 2 2 2 2 2 2 2 2 2 2 w mXMX`.vXvXvXNXo                               ",
"                                  > > > > > BXVX#.1 1 1 1 1 1 1 1 1 1 1 CXZX: . > > > >                                 ",
"                                            BXAXSXDXDXDXDXDXDXDXDXDXDXDXFXGXHX>                                         ",
"                                              cXJXKXKXKXKXKXKXKXKXKXKXKXKXLXo                                           ",
"                                              j > > > > > > > > > > > > > >                                             ",
"                                                                                                                        ",
"                                                                                                                        ",
"                                                                                                                        "
};
