/* XPM */
static char *result[] = {
/* columns rows colors chars-per-pixel */
"60 60 69 1 ",
"  c #040204",
". c #080705",
"X c #0D0C05",
"o c #100F05",
"O c #141406",
"+ c #171806",
"@ c #1A1B07",
"# c #1F2007",
"$ c #222307",
"% c #262907",
"& c #2A2D07",
"* c #2C2F08",
"= c #2E3107",
"- c #2D3108",
"; c #373D07",
": c #363B08",
"> c #393F08",
", c #3E4407",
"< c #414806",
"1 c #4B5209",
"2 c #505907",
"3 c #515B08",
"4 c #5B6506",
"5 c #5D6806",
"6 c #576009",
"7 c #5A6509",
"8 c #5F6B08",
"9 c #616E08",
"0 c #657209",
"q c #717F07",
"w c #707E09",
"e c #738207",
"r c #768807",
"t c #748309",
"y c #788709",
"u c #7D8C0A",
"i c #869607",
"p c #899A07",
"a c #849509",
"s c #8A9B08",
"d c #96AA07",
"f c #9AAE07",
"g c #93A509",
"h c #96AA08",
"j c #98AD0A",
"k c #9EB307",
"l c #9CB208",
"z c #A5BC07",
"x c #A8BF07",
"c c #A1B608",
"v c #ABC307",
"b c #AFC609",
"n c #B5CE06",
"m c #B3CB09",
"M c #B9D107",
"N c #BDD608",
"B c #BED808",
"V c #C3DD07",
"C c #C5DE08",
"Z c #C6E107",
"A c #C8E207",
"S c #CFEB07",
"D c #C6E108",
"F c #CDEA08",
"G c #D1ED07",
"H c #D6F306",
"J c #D8F606",
"K c #DEFD05",
"L c #E1FF05",
/* pixels */
"                     .                                      ",
"                .             .                             ",
"           .                                        .       ",
"                                     .                   .  ",
"                  .                            .            ",
"                           .             .                  ",
"                                                            ",
"    .                                                       ",
"                                           .         .      ",
"          .                                                 ",
"                       =<<<<<<,,<<<<,:.                     ",
"                      .dKJJJJJJJJJJJKm+                     ",
"                       dLKKKKKKKKKKKLNO                     ",
".                &1<111vLKKKKKKKKKKKLD31111:     .          ",
"                 tKKJKJKKKKKKKKKKKKKKKKJJKKkX            .  ",
"                 tLKKKKKKKKKKKKKKKKKKKKKKKLc                ",
"              &33lKKKKKKKKKKKKKKKKKKKKKKKKLM63,             ",
"              0KKKKKKKKKKKKKKKKKKKKKKKKKKKKKLLg.      .     ",
"              0LKKKKKKKKKKKKKLLLKLLKKKKKKKKKLLj.            ",
"           %44dKKKKKKKKKKKKKJdiiiagHKKKKKKLZpp7             ",
"           4KKKKKKKKKKKKKKKLS=    @VKKKKKKLcX     .         ",
"           4KKKKKKKKKKKKKKKKS=    #VKKLLLLLzX               ",
"           4KKKKKKKKKKKKKKKKS=    #VLSauuuu7                ",
"   .       4KKKKKKKKKKKKKKKKS&    #CLNO                    .",
"           6KKKKKKKKKKKKKKKKG&    +CLV+                     ",
"        -eqlKKKKKKKKKKKKKKKKJpqeeeeqq9X   .         .      .",
"        2KLKKKKKKKKKKKKKKKKKKLKLLLA#                        ",
"        2KKKKKKKKKKKKKKKKKKKKLKKKLC$                        ",
"        3KKKKKKKKKKKKKKKKKKKHy99993o        .               ",
"        3JKKKKKKKKKKKKKKKKKKS&         .                    ",
"        2KKKKKKKKKKKKKKKKKKKS=                      .      .",
"        2KKKLKKKKKKKKKKKKJt31o                              ",
"        2JKKKKKKKKKKKKKKKH;         .                     . ",
"        2KKKKKKKLKKKKKKKKJ, .                               ",
"        2KKKKKKKKKKKKKKKLJvlg$                   .          ",
"        2KKKKKKKKKKKKKKKKKKLG=                              ",
"        2KKKKKKKKKKKKKKKKKKKG;.X.XX                         ",
"        2KKKKKKKKKKKKKKKKKKKJnxxxvd+                .       ",
"        2KKKKKKKKKKKKKKKKKKKKKLLKLA#          .             ",
"        1FFHKKKKKKKKKKKKKKKKKKKKKKZ=oo                      ",
"        O-&eKKKKKKKKKKKKKKKKKKKKKKJMndO                     ",
"           6KKKKKKKKKKKKKKKKKKKKKKKLLB+            .        ",
"           4KKKKKKKKKKKKKKKKKKKKKKKKKB&+++@O.               ",
"           7KKKKKKKKKKKKKLKKKKKKKKKKKJVNBBVs.               ",
"           4KKKKKKKKKKKKKKKKKKKKKKKKKKKLLLLz.             . ",
"           2ZVSKKKKKKKKKKKKKKKKKKKKKKKKKKKLx%$O             ",
".          X#@tLKKKKKKKKKKKKKKKKKKKKKKKKKKKJZAi.   .        ",
"              0LLLKKKKKKKKKKKKKKKKKKKKKKKKKLLLd             ",
"              3VNSKKKKKKKKKKKKKKKKKKKKKKKKKHNVa             ",
"              o@OaLKKKKKKKKKKKKKKKKKKKKKKLLx@+o             ",
"                 tLLKLLKKKKKKKKKKKKLKKLLLLLz.               ",
"                 9MnnnMGLKKKKKKKKKKKKJMnnnMiX               ",
"         .       XOOOO+kLKKKKKKKKKKKKB%oOOOo.               ",
"                      .fLLLLLLLLLLLLLVO                   . ",
"  .                   .tmbbbbbbbbbbbmgO                     ",
"                       XoXOXooXoXXOXoo                      ",
"                                                            ",
"          .                                                 ",
"                                                  .         ",
"                                                            "
};
