/* XPM */
static char *result[] = {
/* columns rows colors chars-per-pixel */
"60 60 256 2 ",
"   c #000004",
".  c #010004",
"X  c #020004",
"o  c #030004",
"O  c #030104",
"+  c #020005",
"@  c #030105",
"#  c #040104",
"$  c #040204",
"%  c #040304",
"&  c #050304",
"*  c #050305",
"=  c #050405",
"-  c #060504",
";  c #070505",
":  c #070604",
">  c #070605",
",  c #080705",
"<  c #090805",
"1  c #090905",
"2  c #0A0805",
"3  c #0A0905",
"4  c #0A0A05",
"5  c #0B0A05",
"6  c #0C0B05",
"7  c #0D0C05",
"8  c #0D0D05",
"9  c #0E0D05",
"0  c #0E0E05",
"q  c #0F0F05",
"w  c #0F0E06",
"e  c #100F05",
"r  c #101005",
"t  c #121205",
"y  c #121305",
"u  c #131305",
"i  c #111106",
"p  c #121306",
"a  c #131306",
"s  c #131405",
"d  c #141405",
"f  c #141406",
"g  c #151507",
"h  c #171707",
"j  c #171806",
"k  c #191906",
"l  c #181907",
"z  c #181A06",
"x  c #191A06",
"c  c #1A1B06",
"v  c #1B1D06",
"b  c #1D1D07",
"n  c #1D1F07",
"m  c #1E1F07",
"M  c #1E2006",
"N  c #1F2006",
"B  c #1F2106",
"V  c #1F2007",
"C  c #1F2107",
"Z  c #202206",
"A  c #212306",
"S  c #222307",
"D  c #262907",
"F  c #272A06",
"G  c #282B07",
"H  c #282C07",
"J  c #2A2F07",
"K  c #2B2F07",
"L  c #2B2E08",
"P  c #2C2F08",
"I  c #2D3106",
"U  c #2D3207",
"Y  c #2C3009",
"T  c #2E3108",
"R  c #373D06",
"E  c #373D07",
"W  c #353A08",
"Q  c #373B08",
"!  c #393F08",
"~  c #3E4407",
"^  c #414806",
"/  c #424906",
"(  c #495009",
")  c #4A5109",
"_  c #4A5209",
"`  c #4B5209",
"'  c #4B5408",
"]  c #4C5409",
"[  c #4D5608",
"{  c #505907",
"}  c #525C07",
"|  c #505A08",
" . c #515A08",
".. c #505B08",
"X. c #515B08",
"o. c #525C08",
"O. c #555F08",
"+. c #545E09",
"@. c #596306",
"#. c #5B6506",
"$. c #5B6606",
"%. c #5D6806",
"&. c #5E6906",
"*. c #5F6B07",
"=. c #566008",
"-. c #57600A",
";. c #586308",
":. c #616D07",
">. c #626E07",
",. c #616E08",
"<. c #636F08",
"1. c #6F7D06",
"2. c #6F7D07",
"3. c #657109",
"4. c #667209",
"5. c #6F7D09",
"6. c #717E06",
"7. c #717F07",
"8. c #707E09",
"9. c #728007",
"0. c #728107",
"q. c #738107",
"w. c #748207",
"e. c #748507",
"r. c #768807",
"t. c #728109",
"y. c #738109",
"u. c #748209",
"i. c #758408",
"p. c #748508",
"a. c #788709",
"s. c #798808",
"d. c #7C8B0B",
"f. c #7E8E09",
"g. c #7E8E0B",
"h. c #7F8F0B",
"j. c #859507",
"k. c #859607",
"l. c #869607",
"z. c #809108",
"x. c #829308",
"c. c #839609",
"v. c #849508",
"b. c #869708",
"n. c #889808",
"m. c #94A807",
"M. c #96A907",
"N. c #97AA07",
"B. c #96AC06",
"V. c #9AAF07",
"C. c #90A208",
"Z. c #92A508",
"A. c #94A708",
"S. c #95A709",
"D. c #95A70A",
"F. c #94A809",
"G. c #96AA08",
"H. c #9BB107",
"J. c #9DB306",
"K. c #9EB207",
"L. c #9CB208",
"P. c #9EB208",
"I. c #A2B807",
"U. c #A2B907",
"Y. c #A4BA07",
"T. c #A4BB07",
"R. c #A6BE06",
"E. c #A7BF06",
"W. c #A8BF07",
"Q. c #A1B608",
"!. c #A8C006",
"~. c #ACC407",
"^. c #AEC607",
"/. c #AEC608",
"(. c #AFC608",
"). c #AFC609",
"_. c #B2CA07",
"`. c #B3CA07",
"'. c #B6CE06",
"]. c #B7CF06",
"[. c #B0C808",
"{. c #B1C908",
"}. c #B2CD08",
"|. c #B3CD08",
" X c #B7CF08",
".X c #B9D106",
"XX c #B9D206",
"oX c #B8D207",
"OX c #BED707",
"+X c #BED807",
"@X c #BFD907",
"#X c #B5D008",
"$X c #B8D308",
"%X c #BCD508",
"&X c #BDD708",
"*X c #BED708",
"=X c #BFD708",
"-X c #BFD908",
";X c #C3DE07",
":X c #C4DD07",
">X c #C6DF07",
",X c #C1DB08",
"<X c #C4DE08",
"1X c #C6E107",
"2X c #C7E107",
"3X c #CEEA06",
"4X c #CEEA07",
"5X c #CFEB07",
"6X c #CFEC06",
"7X c #CFEC07",
"8X c #C5E008",
"9X c #C5E108",
"0X c #C6E208",
"qX c #C7E208",
"wX c #CDEA08",
"eX c #D0EB07",
"rX c #D1EE05",
"tX c #D1EC07",
"yX c #D3EF07",
"uX c #D3F006",
"iX c #D5F205",
"pX c #D5F305",
"aX c #D5F206",
"sX c #D5F306",
"dX c #D6F306",
"fX c #D7F505",
"gX c #D7F406",
"hX c #D8F605",
"jX c #D9F705",
"kX c #D9F606",
"lX c #DAF805",
"zX c #DBFA05",
"xX c #DBF906",
"cX c #DCFB05",
"vX c #DDFC05",
"bX c #DEFD04",
"nX c #DEFD05",
"mX c #DFFD05",
"MX c #DEFE04",
"NX c #DFFE04",
"BX c #DFFF04",
"VX c #DFFE05",
"CX c #DFFF05",
"ZX c #DEFC06",
"AX c #DFFE06",
"SX c #E0FF04",
"DX c #E1FF04",
"FX c #E0FF05",
"GX c #E1FF05",
"HX c #E2FF04",
"JX c #E3FF04",
"KX c #E2FF05",
"LX c #E0FE06",
"PX c #E4FF04",
"IX c #E5FF04",
"UX c #E5FF05",
/* pixels */
"$ $ $ $ $ $ $ $ $ $ $ $ $ $ $ $ $ $ $ $ $ $ $ $ $ $ $ $ $ $ $ $ $ $ $ $ $ $ $ $ $ $ $ $ $ $ $ $ $ $ $ $ $ $ $ $ $ $ $ $ ",
"$ $ $ $ $ $ $ $ $ $ $ $ $ $ $ $ $ $ $ $ $ $ $ $ $ $ $ $ $ $ $ $ $ $ $ $ $ $ $ $ $ $ $ $ $ $ $ $ $ $ $ $ $ $ $ $ $ $ $ $ ",
"$ $ $ $ $ $ $ $ $ $ $ $ $ $ $ $ $ $ $ $ $ $ $ $ $ $ $ $ $ $ $ $ $ $ $ $ $ $ $ $ $ $ $ $ $ $ $ $ $ $ $ $ $ $ $ $ $ $ $ $ ",
"$ $ $ $ $ $ $ $ $ $ $ $ $ $ $ $ $ $ $ $ $ $ $ $ $ $ $ $ $ $ $ $ $ $ $ $ $ $ $ $ $ $ $ $ $ $ $ $ $ $ $ $ $ $ $ $ $ $ $ $ ",
"$ $ $ $ $ $ $ $ $ $ $ $ $ $ $ $ $ $ $ $ $ $ $ $ $ $ $ $ $ $ $ $ $ $ $ $ $ $ $ $ $ $ $ $ $ $ $ $ $ $ $ $ $ $ $ $ $ $ $ $ ",
"$ $ $ $ $ $ $ $ $ $ $ $ $ $ $ $ $ $ $ $ $ $ $ $ $ $ $ $ $ $ $ $ $ $ $ $ $ $ $ $ $ $ $ $ $ $ $ $ $ $ $ $ $ $ $ $ $ $ $ $ ",
"$ $ $ $ $ $ $ $ $ $ $ $ $ $ $ $ $ $ $ $ $ $ $ $ $ $ $ $ $ $ $ $ $ $ $ $ $ $ $ $ $ $ $ $ $ $ $ $ $ $ $ $ $ $ $ $ $ $ $ $ ",
"$ $ $ $ $ $ $ $ $ $ $ $ $ $ $ $ $ $ $ $ $ $ $ $ $ $ $ $ $ $ $ $ $ $ $ $ $ $ $ $ $ $ $ $ $ $ $ $ $ $ $ $ $ $ $ $ $ $ $ $ ",
"$ $ $ $ $ $ $ $ $ $ $ $ $ $ $ $ $ $ $ $ $ $ $ $ $ $ $ $ $ $ $ $ $ $ $ $ $ $ $ $ $ $ $ $ $ $ $ $ $ $ $ $ $ $ $ $ $ $ $ $ ",
"$ $ $ $ $ $ $ $ $ $ $ $ $ $ $ $ $ $ $ $ $ $ $ X . . . . . . . . . . . . . . $ $ $ $ $ $ $ $ $ $ $ $ $ $ $ $ $ $ $ $ $ $ ",
"$ $ $ $ $ $ $ $ $ $ $ $ $ $ $ $ $ $ $ $ $ $ & I / ^ ^ ^ ^ ^ ^ ^ ^ ^ ^ ^ ^ R 2 $ $ $ $ $ $ $ $ $ $ $ $ $ $ $ $ $ $ $ $ $ ",
"$ $ $ $ $ $ $ $ $ $ $ $ $ $ $ $ $ $ $ $ $ $ > m.zXhXhXhXhXhXhXhXhXhXhXhXlX Xj O $ $ $ $ $ $ $ $ $ $ $ $ $ $ $ $ $ $ $ $ ",
"$ $ $ $ $ $ $ $ $ $ $ $ $ $ $ $ $ X         $ B.DXbXbXbXbXbXbXbXbXbXbXbXSX%Xg         . $ $ $ $ $ $ $ $ $ $ $ $ $ $ $ $ ",
"$ $ $ $ $ $ $ $ $ $ $ $ $ $ $ $ O H ` ) ) ) ] ^.SXbXbXbXbXbXbXbXbXbXbXbXBX2X-.( ) ) ` Q - $ $ $ $ $ $ $ $ $ $ $ $ $ $ $ ",
"$ $ $ $ $ $ $ $ $ $ $ $ $ $ $ $ X p.ZXxXxXxXxXvXbXbXbXbXbXbXbXbXbXbXbXbXbXvXxXxXxXxXZXQ.5 # $ $ $ $ $ $ $ $ $ $ $ $ $ $ ",
"$ $ $ $ $ $ $ $ $ $ $ $ $ $ X     e.GXbXbXbXbXbXbXbXbXbXbXbXbXbXbXbXbXbXbXbXbXbXbXbXDXI.>   X $ $ $ $ $ $ $ $ $ $ $ $ $ ",
"$ $ $ $ $ $ $ $ $ $ $ $ $ O G +.o.L.BXbXbXbXbXbXbXbXbXbXbXbXbXbXbXbXbXbXbXbXbXbXbXbXSXoX;.O.! & $ $ $ $ $ $ $ $ $ $ $ $ ",
"$ $ $ $ $ $ $ $ $ $ $ $ $ . 3.AXvXvXbXbXbXbXbXbXbXbXbXbXbXbXbXbXbXbXbXbXbXbXbXbXbXbXbXnXvXGXS.; $ $ $ $ $ $ $ $ $ $ $ $ ",
"$ $ $ $ $ $ $ $ $ $ $ o     <.FXbXbXbXbXbXbXbXbXbXbXbXbXbXDXDXDXDXDXDXbXbXbXbXbXbXbXbXbXbXDXA.@   X $ $ $ $ $ $ $ $ $ $ ",
"$ $ $ $ $ $ $ $ $ $ X F %.$.G.VXbXbXbXbXbXbXbXbXbXbXbXbXhXN.j.l.k.j.C.uXMXbXbXbXbXbXbXbXbXSX`.&.&.E $ $ $ $ $ $ $ $ $ $ ",
"$ $ $ $ $ $ $ $ $ $   $.VXVXbXbXbXbXbXbXbXbXbXbXbXbXbXNX7XT . O O X m :XBXbXbXbXbXbXbXbXbXbXbXmXKXx.O $ $ $ $ $ $ $ $ $ ",
"$ $ $ $ $ $ $ $ $ $   $.nXbXbXbXbXbXbXbXbXbXbXbXbXbXbXNX7XT . $ $ X V :XBXbXbXbXbXbXbXNXGXGXGXGXUXv.O $ $ $ $ $ $ $ $ $ ",
"$ $ $ $ $ $ $ $ $ $   $.nXbXbXbXbXbXbXbXbXbXbXbXbXbXbXNX7XT . $ $ X V :XBXbXbXbXbXbXBX;Xh.d.d.d.g._ O $ $ $ $ $ $ $ $ $ ",
"$ $ $ $ $ $ $ $ $ $   $.nXbXbXbXbXbXbXbXbXbXbXbXbXbXbXNX7XT . $ $ X V :XBXbXbXbXbXbXDXU.< + + + + O $ $ $ $ $ $ $ $ $ $ ",
"$ $ $ $ $ $ $ $ O .   @.nXbXbXbXbXbXbXbXbXbXbXbXbXbXbXNXeXP   . .   b >XHXSXSXGXSXSXPXT.5 # $ $ $ $ $ $ $ $ $ $ $ $ $ $ ",
"$ $ $ $ $ $ $ X K 0.7.J.bXbXbXbXbXbXbXbXbXbXbXbXbXbXbXbXgXn.9.q.q.q.y.8.2.2.1.2.2.1.6.} : $ $ $ $ $ $ $ $ $ $ $ $ $ $ $ ",
"$ $ $ $ $ $ $   X.LXGXSXbXbXbXbXbXbXbXbXbXbXbXbXbXbXbXbXbXSXGXDXGXHX0Xn   . . . . . . X $ $ $ $ $ $ $ $ $ $ $ $ $ $ $ $ ",
"$ $ $ $ $ $ $   | cXbXbXbXbXbXbXbXbXbXbXbXbXbXbXbXbXbXbXbXVXVXVXVXFX8XC X $ $ $ $ $ $ $ $ $ $ $ $ $ $ $ $ $ $ $ $ $ $ $ ",
"$ $ $ $ $ $ $   | cXbXbXbXbXbXbXbXbXbXbXbXbXbXbXbXbXbXbXdXs.*.:.:.>.=.e O $ $ $ $ $ $ $ $ $ $ $ $ $ $ $ $ $ $ $ $ $ $ $ ",
"$ $ $ $ $ $ $   | cXbXbXbXbXbXbXbXbXbXbXbXbXbXbXbXbXbXNXeXL   . . . . $ $ $ $ $ $ $ $ $ $ $ $ $ $ $ $ $ $ $ $ $ $ $ $ $ ",
"$ $ $ $ $ $ $   | cXbXbXbXbXbXbXbXbXbXbXbXbXbXbXbXbXvXvX4XT . $ $ $ $ $ $ $ $ $ $ $ $ $ $ $ $ $ $ $ $ $ $ $ $ $ $ $ $ $ ",
"$ $ $ $ $ $ $   | cXbXbXbXbXbXbXbXbXbXbXbXbXbXbXbXkXi...[ a O $ $ $ $ $ $ $ $ $ $ $ $ $ $ $ $ $ $ $ $ $ $ $ $ $ $ $ $ $ ",
"$ $ $ $ $ $ $   | cXbXbXbXbXbXbXbXbXbXbXbXbXbXbXbXsXE     O $ $ $ $ $ $ $ $ $ $ $ $ $ $ $ $ $ $ $ $ $ $ $ $ $ $ $ $ $ $ ",
"$ $ $ $ $ $ $   | cXbXbXbXbXbXbXbXbXbXbXbXbXbXbXbXdX~ = , & $ $ $ $ $ $ $ $ $ $ $ $ $ $ $ $ $ $ $ $ $ $ $ $ $ $ $ $ $ $ ",
"$ $ $ $ $ $ $   | cXbXbXbXbXbXbXbXbXbXbXbXbXbXbXbXzX~.H.Z.S X $ $ $ $ $ $ $ $ $ $ $ $ $ $ $ $ $ $ $ $ $ $ $ $ $ $ $ $ $ ",
"$ $ $ $ $ $ $   | cXbXbXbXbXbXbXbXbXbXbXbXbXbXbXbXbXSXHXyXT . O O O # $ $ $ $ $ $ $ $ $ $ $ $ $ $ $ $ $ $ $ $ $ $ $ $ $ ",
"$ $ $ $ $ $ $   | cXbXbXbXbXbXbXbXbXbXbXbXbXbXbXbXbXbXNXtXW 4 7 7 8 6 & $ $ $ $ $ $ $ $ $ $ $ $ $ $ $ $ $ $ $ $ $ $ $ $ ",
"$ $ $ $ $ $ $   | cXbXbXbXbXbXbXbXbXbXbXbXbXbXbXbXbXbXbXlX_.R.E.E.!.F.z o $ $ $ $ $ $ $ $ $ $ $ $ $ $ $ $ $ $ $ $ $ $ $ ",
"$ $ $ $ $ $ $    .vXNXMXbXbXbXbXbXbXbXbXbXbXbXbXbXbXbXbXbXSXDXDXDXJXqXB . O O O O O O O $ $ $ $ $ $ $ $ $ $ $ $ $ $ $ $ ",
"$ $ $ $ $ $ $ . ' wX5XsXbXbXbXbXbXbXbXbXbXbXbXbXbXbXbXbXbXbXbXbXbXBX9XY i a a p p a a w % $ $ $ $ $ $ $ $ $ $ $ $ $ $ $ ",
"$ $ $ $ $ $ $ O y U J w.nXbXbXbXbXbXbXbXbXbXbXbXbXbXbXbXbXbXbXbXbXbXjX$X}.|.|.|.|.|.#Xc.1 $ $ $ $ $ $ $ $ $ $ $ $ $ $ $ ",
"$ $ $ $ $ $ $ $ O .   @.nXbXbXbXbXbXbXbXbXbXbXbXbXbXbXbXbXbXbXbXbXbXbXSXSXSXSXSXSXSXJXT.3 X o o o O $ $ $ $ $ $ $ $ $ $ ",
"$ $ $ $ $ $ $ $ $ $   #.nXbXbXbXbXbXbXbXbXbXbXbXbXbXbXbXbXbXbXbXbXbXbXbXbXbXbXbXbXbXDXW.Z x x x c r $ $ $ $ $ $ $ $ $ $ ",
"$ $ $ $ $ $ $ $ $ $   #.nXbXbXbXbXbXbXbXbXbXbXbXbXbXbXbXbXbXbXbXbXbXbXbXbXbXbXbXbXbXbXpX@XOX+X+X,X5.O $ $ $ $ $ $ $ $ $ ",
"$ $ $ $ $ $ $ $ $ $   $.FXSXNXbXbXbXbXbXbXbXbXbXbXbXbXbXbXbXbXbXbXbXbXbXbXbXbXbXbXbXbXbXSXSXSXDXIXv.O $ $ $ $ $ $ $ $ $ ",
"$ $ $ $ $ $ $ $ $ $ . { <X;X6XbXbXbXbXbXbXbXbXbXbXbXbXbXbXbXbXbXbXbXbXbXbXbXbXbXbXbXbXbXbXbXiX;X1Xt.O $ $ $ $ $ $ $ $ $ ",
"$ $ $ $ $ $ $ $ $ $ # 0 M v u.CXbXbXbXbXbXbXbXbXbXbXbXbXbXbXbXbXbXbXbXbXbXbXbXbXbXbXbXbXbXDXP.A N u $ $ $ $ $ $ $ $ $ $ ",
"$ $ $ $ $ $ $ $ $ $ $ O X   4.KXSXNXbXbXbXbXbXbXbXbXbXbXbXbXbXbXbXbXbXbXbXbXbXbXbXbXbXbXSXPXM.* X O $ $ $ $ $ $ $ $ $ $ ",
"$ $ $ $ $ $ $ $ $ $ $ $ $ . -.*X%X3XbXbXbXbXbXbXbXbXbXbXbXbXbXbXbXbXbXbXbXbXbXbXbXbXbXaX&X-Xf.- $ $ $ $ $ $ $ $ $ $ $ $ ",
"$ $ $ $ $ $ $ $ $ $ $ $ $ $ 7 k h z.SXbXbXbXbXbXbXbXbXbXbXbXbXbXbXbXbXbXbXbXbXbXbXbXDXW.C l i $ $ $ $ $ $ $ $ $ $ $ $ $ ",
"$ $ $ $ $ $ $ $ $ $ $ $ $ $ O O   r.JXSXSXSXSXNXbXbXbXbXbXbXbXbXbXbXbXbXbXbXSXSXSXSXPXY.3 X O $ $ $ $ $ $ $ $ $ $ $ $ $ ",
"$ $ $ $ $ $ $ $ $ $ $ $ $ $ $ $ X ,..X'.'.'.].rXNXbXbXbXbXbXbXbXbXbXbXbXbXfXXX'.'.'..Xb.3 $ $ $ $ $ $ $ $ $ $ $ $ $ $ $ ",
"$ $ $ $ $ $ $ $ $ $ $ $ $ $ $ $ $ 6 d d d s j K.DXbXbXbXbXbXbXbXbXbXbXbXSX=XD t d d d q & $ $ $ $ $ $ $ $ $ $ $ $ $ $ $ ",
"$ $ $ $ $ $ $ $ $ $ $ $ $ $ $ $ $ O O O O O ; V.PXDXDXDXDXDXDXDXDXDXDXDXJX=Xj X O O O O $ $ $ $ $ $ $ $ $ $ $ $ $ $ $ $ ",
"$ $ $ $ $ $ $ $ $ $ $ $ $ $ $ $ $ $ $ $ $ $ ; a.{.).(.(./././.(.(.(.(.(.[.D.f O $ $ $ $ $ $ $ $ $ $ $ $ $ $ $ $ $ $ $ $ ",
"$ $ $ $ $ $ $ $ $ $ $ $ $ $ $ $ $ $ $ $ $ $ $ 6 e q q q q q q q q q q q e 9 & $ $ $ $ $ $ $ $ $ $ $ $ $ $ $ $ $ $ $ $ $ ",
"$ $ $ $ $ $ $ $ $ $ $ $ $ $ $ $ $ $ $ $ $ $ $ # O O O O O O O O O O O O O O $ $ $ $ $ $ $ $ $ $ $ $ $ $ $ $ $ $ $ $ $ $ ",
"$ $ $ $ $ $ $ $ $ $ $ $ $ $ $ $ $ $ $ $ $ $ $ $ $ $ $ $ $ $ $ $ $ $ $ $ $ $ $ $ $ $ $ $ $ $ $ $ $ $ $ $ $ $ $ $ $ $ $ $ ",
"$ $ $ $ $ $ $ $ $ $ $ $ $ $ $ $ $ $ $ $ $ $ $ $ $ $ $ $ $ $ $ $ $ $ $ $ $ $ $ $ $ $ $ $ $ $ $ $ $ $ $ $ $ $ $ $ $ $ $ $ ",
"$ $ $ $ $ $ $ $ $ $ $ $ $ $ $ $ $ $ $ $ $ $ $ $ $ $ $ $ $ $ $ $ $ $ $ $ $ $ $ $ $ $ $ $ $ $ $ $ $ $ $ $ $ $ $ $ $ $ $ $ "
};
