/* XPM */
static char *result[] = {
/* columns rows colors chars-per-pixel */
"64 64 148 2 ",
"   c #4A291F",
".  c #552E1F",
"X  c #59301F",
"o  c #442A22",
"O  c #4B2D23",
"+  c #532E22",
"@  c #4E3027",
"#  c #4E3229",
"$  c #543225",
"%  c #5C3425",
"&  c #54352B",
"*  c #5A362A",
"=  c #56382E",
"-  c #5C392D",
";  c #573A30",
":  c #5C3C32",
">  c #623626",
",  c #623827",
"<  c #693A27",
"1  c #603728",
"2  c #643C2C",
"3  c #693E2D",
"4  c #623E33",
"5  c #683F31",
"6  c #5E4036",
"7  c #5E4239",
"8  c #67402F",
"9  c #6A402F",
"0  c #644135",
"q  c #6C4433",
"w  c #654439",
"e  c #6A463A",
"r  c #66493D",
"t  c #6C493D",
"y  c #714636",
"u  c #724837",
"i  c #734B3A",
"p  c #794F3D",
"a  c #74503F",
"s  c #7A503E",
"d  c #5D4740",
"f  c #644C42",
"g  c #6C4D42",
"h  c #714E42",
"j  c #675046",
"k  c #6D5145",
"l  c #66534C",
"z  c #6D544A",
"x  c #6E584E",
"c  c #725244",
"v  c #7A5442",
"b  c #7E5847",
"n  c #72564A",
"m  c #7A5749",
"M  c #755A4D",
"N  c #7B5B4C",
"B  c #6F5B52",
"V  c #745C52",
"C  c #7A5E52",
"Z  c #766055",
"A  c #7C6155",
"S  c #746159",
"D  c #7C645A",
"F  c #7E685E",
"G  c #7E6B62",
"H  c #7F7168",
"J  c #805645",
"K  c #825D4C",
"L  c #815F50",
"P  c #846354",
"I  c #886555",
"U  c #8B6957",
"Y  c #82665B",
"T  c #886759",
"R  c #84695D",
"E  c #8B6B5C",
"W  c #926E5E",
"Q  c #846D62",
"!  c #8B6F62",
"~  c #867165",
"^  c #8B7265",
"/  c #86736A",
"(  c #8B756A",
")  c #8D796E",
"_  c #927364",
"`  c #997766",
"'  c #927669",
"]  c #947A6D",
"[  c #9A7C6D",
"{  c #8E7C72",
"}  c #8B7F78",
"|  c #927D72",
" . c #997F71",
".. c #8F8179",
"X. c #948176",
"o. c #9B8275",
"O. c #95847A",
"+. c #9A867B",
"@. c #97897F",
"#. c #9B897E",
"$. c #A38575",
"%. c #A28779",
"&. c #A28A7D",
"*. c #968A82",
"=. c #9C8C83",
"-. c #9E9086",
";. c #9F9289",
":. c #A28E83",
">. c #A88E80",
",. c #A29186",
"<. c #AA9385",
"1. c #A3948A",
"2. c #AA9589",
"3. c #A5988E",
"4. c #A9998F",
"5. c #B19A8D",
"6. c #A69A91",
"7. c #AB9C93",
"8. c #B19E92",
"9. c #AEA196",
"0. c #ADA299",
"q. c #B1A197",
"w. c #B1A59B",
"e. c #B9A79C",
"r. c #B7A99F",
"t. c #B5ABA2",
"y. c #BAADA3",
"u. c #BBB0A7",
"i. c #BCB3AB",
"p. c #C1B6AC",
"a. c #C2B8AF",
"s. c #C4BCB4",
"d. c #C9BFB6",
"f. c #C8C0B7",
"g. c #C7C1BA",
"h. c #CAC3BB",
"j. c #CEC8BF",
"k. c #CDC7C0",
"l. c #CECAC3",
"z. c #D3CDC6",
"x. c #D3CEC8",
"c. c #D7D3CD",
"v. c #DAD5CE",
"b. c #DAD6D0",
"n. c #DFDBD5",
"m. c #E2DED6",
"M. c #E5E3DD",
"N. c #EAE9E3",
/* pixels */
"7.P A R X.X.+.8.u.i.3.&.&.&.X.%.q.] +.P A A P E ( o. .! P P A q.t.D D w 7 7 f k n z z D V g z 1.;.C Y D R S Y R C V V D Q Q R y.",
"k . % % X 8 % , 9 9 8 8 8 8 8 b ( < 2 9 y 9 q 8 3 3 8 3 q q 8 K +.= 0 7 : : : 6 7 : : : ; 7 @ / *.: g g k g c k c g g g g g g ,.",
"C % 0 q 8 8 8 8 9 9 q q u u X _ #.< q 8 9 u u y q 9 q y u u 2 v +.: 4 : : : : : : 4 ; # = = & ^ O.& g w 6 r t a h g c c g f - | ",
"/ r j t t k x a a n a n c M a &.r.A R E R P R R A A A C P D D  .s...O.{ { / ~ ~ O.{ { =.O...{ w.s.} / | *.) / ( ~ D S V Q ,.6.i.",
"z z n M A R C <.u.F / / Q ~ ~ X.O.+.@.@.O.X.X.y.y.E R R ] _ ( [ [ o.:.o.E I b 2.v.T W W W W _ [ ] _ _ _ _ ' E y.x.j V C L ~ ( C ",
"0 0 0 w 0 0 X X.) . 8 8 0 w 8 8 2 * * 1 * 5 * A ] > 3 8 y 8 < 3 3 < > < 3 q < %.8.3 p y q y y 5 y y y q 3 8 2 &.7.& w w : 4 w w ",
"- * * 6 6 6 % D / $ * @ $ - * 6 6 * = 8 4 0 $ R X.2 u q 3 9 q 3 > % 2 3 < y < o.:.< y y 5 5 5 5 q q q q q q 2 &.| + ; & - - - - ",
"..O.../ F ~ F -.t.S F ( X.^ V j k z x k n D Q h.y.C Y R R ^ R ^ #.#.X.| | O.+.m.i.R | +.1.w.3.,.:.=.#.:. .~ R i.w./ ) O.=.1.=.} ",
"v.+.o.o.o.o.] o.+.o.X.o.+.+.] o.u.F ~ R F ( X.X.( / { | ) ( Q X.v.1.( / ( / { #.1.,.+.+.+.+. .7.s.( Q G C V C Q Q Q Q ^ ' ] ! t.",
"2.% 2 8 8 8 2 3 9 9 q 2 % 8 2 a 3.w w w 0 6 w - 0 e r e w e 4 M 7.4 - - * * 4 0 8 0 q 2 : 4 * C ( * 5 4 4 4 : - : - & : 4 e 1 =.",
",.% * * * 2 2 * 2 8 2 9 8 8 9 q -.6 w w w r t t g t r h h h e A 6.2 e 5 0 e q w q 0 0 q 5 5 % ~ | 4 g 4 4 w : - - : 4 4 4 4 2 t.",
"l.,.X.R A P R ^ X.X.] #.9.9.,.9.c.) Z M V Z D F Q Q D V V D D X.g.O.| | { ) ~ ~ ( ( / / ( ( ~ d.i.( / { / / ) { { | ( ( | =.t.N.",
"+.#.X.` ^ E E ] z.X.) ..X.4.4.3.#.X.~ D P R R ^ h.,.P P b N U _ ' [ ' W E E I E h.] R ! ! / O.2.,.] ( ( ] ' ^ :.g.' ' ' ( [ 2.2.",
"% 2 8 - 2 q 5 e 3.0 0 8 8 6 6 8 6 8 w e r e e 0 0.c < u y 9 9 3 3 3 3 3 3 3 < y 7.g t e t t w w e g t h h m e C :.+ % + $ $ % 1 ",
"- * % 2 , 2 2 q 4.a a t t a t t t e e t t t t w i.m X > , * < 2 < 2 2 3 3 < 1 q 7.t h r : : w w 5 h h h h N e D 4.% 5 4 5 1 * * ",
"R O.) R ~ ~ ~ #.h...Q Q ~ R D F F D A D D Q ( | z.8.1.1.,.1.-.#.O.] | ( A Y Y ] i.{ { | 1.=.| O.*.{ ) ' ( { / i.t.M P R D Y Y Q ",
"r.G / D O.( F G ~ / F G / Q A { t.N b a a b K P P E ' _ ^ E L [ y.U U W U I U U E E U E W U K o.h.L W W W ^ _ E I A P ! _ ~ U X.",
"#.@ = & @ @ = = & & = = - 0 0 k 1.y i 9 8 3 8 2 3 y 9 3 < 3 , N &.8 u q q i i u y u q 8 q u 9 b 7.i v v s a u u i s a u i a u a ",
"3.& 6 - * = - 6 : : : - : 0 w g -.1 2 2 % < < 3 8 3 3 q 8 y 3 L 7.8 q i i u s a u u s u q q y K 1.q 5 5 q 0 w 8 8 8 q w u u q b ",
"i.) Z H / H / ~ / { { ) ( O.{ 1.k.@.^ ( ( ~ ( ) | ) Y V C D R ,.n.@.^ ~ X.X.#.&.,.' ! ) X.&.4.8.s. .:.1.9.r.4.3.-.O.( ~ D Z j X.",
"L Y C P E R E N r.-.M Y R R R Q ~ ^ F D Y R ~ ~ k.@.k k g k A ( ^ Z n M z n M C u.P b K P W ` ` W ` ` [ ` U m I M.1.M N M n n M ",
"g g i e 0 w t 0 ) k * 6 4 6 : - : ; 8 8 & $ * $ 1.Z : w : 4 : = 6 8 6 6 6 0 e 0 9.N s s s s s s J K J J p p i s w.r e e r t t a ",
"t y e t e e e 0 X.l @ # = : 6 & $ : - 6 w r t 6 3.A 0 r : & & : * 6 8 = 6 8 0 0 w.s u y u u u p i p J K p e 8 i 4.e e e e e u t ",
"{ | ) ) ] ) #.4.l.g.w.-.X./ | 1.t.9.-.3.t.i.y.w.s.O.] X.=.1.O.O.3.#.X.X.+.@.@.9.M.9.,.&.#.+.o.X.:.2.=.+.o.X.X.4.v.+.X.X.@.O.{ ] ",
"a.L L I K I E W E E U I P P L E N.X.w M N N A M g n n N C C n R f.N s a b b b P U ` I K K K K P f.) E D A R ! ( ^ ( ^ / ^ Q D Q ",
"w.+ 2 5 9 9 9 2 8 3 3 3 3 3 3 y f.j 6 w 6 6 0 w 0 6 0 w 0 0 0 n #.8 q q u q q u y y q y y i q W w.6 t t j t k k h g w w w g 7 g ",
"7.< < 1 % X % , % % % > 8 5 2 p w.0 - = : : 6 6 = - 6 6 = : = g #.y u u 8 8 8 q q q u q y i 3 W 0.6 j t r w r 7 w w f f w r 6 M ",
"0.D D Q ' O.( ) ,.3.| ( ^ Q Q | j.;.-.4.w.i.u.6.0.t.0.1.,.,.4.q.r.( X.X.O.&.,.,.,.*.( ) ) ] ) w.h.-.#.X.X.X.) ) -.O.{ { ) ) { i.",
"` [ $.$.$.[ E N p.4.C F D D Q D F F A C V C V r 7.7.u v b K U P b K I P P K b e u.y.k A M A D D A A I F D C M n i.$.K U E ` ` [ ",
"J K J J s i u 9 o.R O & : 6 4 4 0 - : : w 0 w 6 -.o.% u u i y i a u u u u u u X 4.;.w c t a t a a j j a t t t 6 -._ y p a a s v ",
"i s J K s 9 q < #.) $ 0 : : 4 : - : ; : : w w - 7.] < q 9 3 3 q 9 y 8 q y u a 9 u.-.8 w w 7 6 w w t e e w 6 6 * -.E 9 y q u i p ",
"] ]  .X.#.o.X.( h.i.*.@.@.=.*.=.=.-.0.6.6.3.7.w.b.r.X.#.=.,.3.w.u.u.u.w.w.w.w.y.N.i.;.3.0.i.w.9.9.3.,.#.#.#.@.O.j.q.o.+.#.+.o.] ",
",.N P Y  .! R P T ! ! ! [ _ L <.t.n Y Y Q Y Y Q Y Q Y L Y Y z O.y.~ ] R F F R ~ Q  . .( E ^ Q w.z._ _ ! ! o.&.<.%.o.` ' ` ` E 1.",
") * 2 % + % 1 2 < > > 2 > 3 3 L =.- : 6 e t w w w w t g g h 4 L #.8 a c N c k v c t r w r h e Y <.> 2 1 8 8 < , 2 8 8 9 q q % E ",
"X.2 q 8 2 < 1 3 2 2 2 < 2 5 5 L =.& : & 6 e t t t t t g e e w Y -.e m a e v v a c v h c v c q R =.< y 2 X X 8 8 9 8 q 9 9 q 3 ] ",
"w.) ~ ( Q Q ! Q ( ] | ) | | ( 7.g...;.1.*.O.O.:.6.0.6.1.;.0.7.y.a.#.-.#.#.X.#.@.+.O.X.O.O.X.{ 0.u.~ ] ) X.) ~ ( ^ E F D D A Z q.",
"t a z n M n n M a.G V V C Y C Q Y Y S V V l d z p.' T T T W _ _ _ W E W E E E <.x.' _ ^ ' [ >.5.<.o.] o.$.o._ 2.h.r z M N C M t ",
"w w q r 4 4 w e ,.: # # & - : : & - - : 4 5 4 & 6.e 5 5 5 5 5 5 q q y q 8 0 2 a 4.2 q 5 5 y 5 5 y q u u s s 9 ! ;.- r w 0 0 t r ",
"= & = 8 - - : 5 / : # $ & : - - : : * ; ; : 0 & 1.v 4 % + * 1 5 2 8 8 8 8 8 , t 1.3 q q 5 2 5 g u y e u u s q _ ) $ = & * & = * ",
"-.;.@.) / / ~ / i.| ( *.} ( / +.=.6.6.:.=.1.7.6.p.! ' :.2.4.7.:.+.] ) ^ ^ ] ] ,.t.Q Q ~ ] ( Q ^ ^ ~ ~ ^ ~ ~ R u.w./ ..@.9.w.3.O.",
"w.{ ^ Q A D A D Q D D ! Q C n *.d. .%.E T T E _ W T Q +. .' ' 2.p.^ ( ( ^ ( ) ] ( ' ^ ! Q D V ( y.P U ^ E ] ] o.o.o.o.` &.+.~ 8.",
"t @ & - = 4 5 0 4 - - 4 5 : @ D 2.> 5 5 5 5 5 5 5 5 5 1 * 5 $ m 1.: e w : : 4 : 4 4 4 4 4 : & k 1., e y i i i p p u a q 8 * % ( ",
"j = - - 0 5 4 4 4 4 : - : : * ! 8.1 5 e i 5 e 5 e t 5 4 5 e 5 P 6.: w : ; : 4 - ; & # & & & $ g 1.2 u q q u u u u 9 8 8 t u 2 4.",
"#.) X.X.@.O.+.=.=.,.=.=.=.o. .t.g.]  . . .] |  .'  .| &. .' ( :.k./ Q / ( | *.:.=.| | | { -.8.t.c.9.,.O.:.@.+.X.O.,.#.X.~ ^ ) f.",
"R I A ! ^ Y U ' d.' P Y Y L E W E ! E _ ! L L L t...Y Q Y Y Y Y Q D Y R Q ! ) =.k. .( ' '  .5.t.<.:.,.>.%.&.+.[ j.o.] E N P P I ",
"q 8 q 2 2 4 - 2 w.h q q q q q e e 5 5 i i 5 h 5 7.n & * ; ; ; ; : : : : 4 - = * 1.4 * * $ $ 1 2 1 q y q * 2 2 8 9.q q 8 9 9 8 q ",
"q u q 8 8 e e u 7.i 5 q e q y e 5 u 5 y y 5 i 3 7.D & ; ; ; 4 w 4 : : & : 4 4 - ,.4 4 5 5 5 * 1 2 * 1 0 8 8 0 y q.u 9 u q u q e ",
"W ~ R E ~ R E ^ h.1.( ] | | | ]  .O.] ) ! Q Q ' x.1.Y Q Q Q Q ' ( | / Q G R Q ( s.) ^ ! ! Q Q Q ^ @...! ! ~ ~ X.l.X.! ! ^ ! ( E ",
"1.A P P L Y ] | ' ( ! T T ! P ] g.Q ~ Y V C Y Y Q S Y Y Q Q Y } k. ._ _ T T ! [ %. .' _ ! T Y  .h.| / D Q / { ..,.w.,...O. .*.x.",
"Q % - $ $ * 2 1 % 5 5 2 5 5 2 C 0.: w 7 4 7 w 7 7 4 6 4 4 4 ; g 8.4 e i J i t i p i h h i y 5 Y 6.o : : # # = # # @ @ o o o o i.",
"R % 2 2 5 * * - % % * 2 2 5 1 m 0.w t w w 4 w w 7 : : 4 7 w : g 8.0 w e 5 5 5 w 5 y 5 5 e 5 - Y =.& : : ; ; ; # @ o o o # ; & { ",
"=.R ! Q Q Q ! ~ | -.} Q ~ ^ ^ 7.s.Q ( ( ~ ~ / ( / Q Q Y S Y Y 7.g.+.+.O.+.=.=...{ { ..Q Q ^ Y 1.;.x B B G H / H V B B l d f 7 O.",
"' ( ^ ! Q C C C p.=.Q Q ~ / ~ ( ~ Q ( ~ Q ^ ) ~ i.=.Y Y V f V O.Q V V B V S D V 7.;.V Y S V V Y B z C G Q Q Q Q p.) Y ^ D S V ( ",
": e 4 4 4 : - & ;.V w g g 4 w 4 d 7 ; : 4 w : * 6.Q & 7 7 7 7 ; ; 6 : ; & & &   ( Y # & ; ; & & 4 : : : ; - ; = 6.n w w w w w 4 ",
"- & & ; ; ; - - { n g w 7 ; : ; ; : : : : ; : ; 6.G o # @ ; ; ; & ; ; ; * ; ; O / Y : 4 : : ; ; = & & = ; ; : : t.l 6 7 ; ; 4 4 ",
"O.| / ! Q ~ *.,.7./ / / / / *.0.;.=.../ / / G Q l.;.} *.} *.6.;.;.0.6.O.} } } / i.1.Q Q / ( / Q } } { / D D V 1.M.=.Y Q ~ ~ | +.",
"w.' Y C n C L Q ^ Y T ! ! ! Y %.M.1.! ! R D C Q ' ! '  .]  .' w.s.^ _ T ! W Y ^ T m m m L Q L 0.0.C Y S V C S Q Q Q S S Y V Q g.",
"h 4 4 4 e 4 w e e e t i h e - L 1.- e w w e t e g g 5 4 4 t 1 ( ' * 5 : - - * * * * : * & & + +.F & 7 : : 7 7 : 6 ; # # ; 6 o / ",
"h w 4 5 t 5 5 e e 5 t t e w 5 L R 0 y e q y h h 5 h e e g w 5 ! Q 5 5 4 * $ $ * * * & & $ : % *.Q ; 7 : 7 7 ; = ; ; & ; 6 d : F ",
"| ^ ( ( ( ( | { { +.+.O. .{ ( 6.;.~ ( ) { Q R Q Q Q Q ! Q ' | s.;.Y Q Q O.=.O.{ ) / | ..) ( Q y.6./ ..O.*.*.*.O...*.} / Q G G 0.",
"! L Q _ T T ! 8.( Y R Y Y Y T T E E E ! E L L t.! L W _ W ! ]  .' _ ! [ ' ] ] M.w.n Y L C Y S Y C S Y Y Q Q Q d.2. .[ L Y L T _ ",
"5 4 5 1 2 4 1 { 5 % 5 5 5 1 4 5 2 2 2 , > 2 3 5.m y v J i y y y i 5 h t y 5 > p.Q * 0 4 : 4 4 4 : 4 : : 4 w - 1.J 5 5 5 4 5 5 5 ",
"v e 5 5 5 g y ) t - * 1 * * 1 1 1 2 1 2 < 2 5 1.v v i y i v i h i y y y y 5 5 q.z : w e t h t 5 0 : 4 4 4 4 : t.L 5 5 i h 5 t e ",
"! ^ ] } ~ ^ ! w.L e n R ^ ^ Y L P Y R C P D t y.~ C ^ L C L Y L ! ^ Y C Y R n p.*.Q V n n l l n S V V l x V @.M.:.! ( ^ _ ' ' ^ "
};
